<svg width="149" height="58" viewBox="0 0 149 58" fill="none" xmlns="http://www.w3.org/2000/svg">
<path d="M45.192 16.35C46.0582 16.3561 55.2095 15.3622 59.6632 25.3079C62.9495 32.6467 62.3451 40.8345 59.993 46.7757C58.1309 51.479 54.5319 56.7473 45.7698 57.1666C38.7602 57.502 34.096 51.9182 32.6401 49.0844C31.6945 51.2274 28.1065 55.8099 21.7097 56.6119C13.7134 57.6142 8.3945 55.6514 4.23819 49.75C-0.50229 43.0189 -0.410714 34.9899 0.975121 29.6102C1.89086 26.0555 6.26481 16.6013 16.3147 16.4351C24.4588 16.3004 29.2456 19.9916 30.7134 21.8309L26.1455 28.5322C26.0921 28.4878 25.7817 28.2637 24.3243 27.2722C22.4661 26.0081 20.4514 24.8385 17.3131 24.8164C13.4251 24.7889 8.33599 28.6034 8.94786 37.3669C9.55982 46.1298 14.5534 47.7053 17.1495 48.1087C19.7456 48.5121 23.5008 48.4429 27.4885 42.5996C31.4763 36.7562 28.651 36.0622 31.4461 27.3225C34.2412 18.5829 42.3043 16.3297 45.192 16.35ZM45.9524 24.8243C42.1784 24.7981 39.0811 30.0911 39.0348 36.6469C38.9885 43.2025 42.0107 48.5389 45.7847 48.5659C49.5589 48.5926 52.656 43.2993 52.7024 36.7434C52.7487 30.1874 49.7266 24.851 45.9524 24.8243Z" fill="#594B43"/>
<path d="M99.8769 14.6064C103.443 13.9578 110.259 14.0418 115.683 20.0863C122.464 27.642 119.216 39.1714 118.61 41.8605C117.417 47.1462 112.038 57.8923 96.7389 57.0725C84.3266 56.4074 75.644 47.6531 74.842 43.0913L72.9163 43.0777L72.8816 47.9868C72.8591 51.1665 72.4183 55.1815 72.1162 57.0724L62.5193 57.072C63.018 54.6044 63.7457 47.0876 64.1087 39.3133C64.4715 31.5385 62.4437 20.321 61.7241 17.7168C62.6605 16.8892 65.3019 16.3007 67.7437 16.0718L67.7544 16.0699C69.7528 15.8825 75.5903 15.336 80.7483 17.2642C88.5844 20.1939 89.0118 26.6355 89.0829 30.1975C89.154 33.7594 87.7831 36.9267 85.0711 39.3139C83.5134 40.685 83.0631 40.7888 82.9971 40.7934C83.028 40.7991 83.1318 40.8432 83.1902 41.1151C83.3772 41.9835 88.1718 48.9133 96.7389 48.7813C103.959 48.6701 106.246 47.2511 108.631 44.4521C110.669 42.0599 113.216 34.0255 110.665 27.2698C108.374 21.2046 102.824 21.9658 100.283 22.9424L100.296 23.0412C100.543 24.9665 101.021 28.6889 101.021 32.2399C101.021 39.9458 100.738 42.5916 100.113 46.1547C98.9773 46.51 97.3992 46.5442 94.8882 46.1549C92.0521 45.7152 91.1913 45.0043 90.3289 44.4527C90.8563 42.4672 91.9396 37.2445 92.0519 32.24C92.1643 27.2355 90.5944 22.1415 89.8432 19.4731C90.2953 19.0592 91.2643 18.0725 94.0955 16.6818C95.326 16.0773 96.7364 15.1775 99.8769 14.6064ZM80.7477 28.3944C80.1422 23.8193 75.0695 22.6589 71.6622 24.0215L72.5135 34.9819C75.4943 35.4201 81.625 35.023 80.7477 28.3944Z" fill="#594B43"/>
<path d="M130.503 14.0879L128.377 8.02729C129.561 7.93655 132.504 7.14467 134.804 5.49591C137.103 3.84715 138.284 1.25888 138.589 0.071744L146.739 4.78737C146.67 5.28242 145.142 7.55109 141.178 10.3972C136.945 13.4364 132.375 14.3323 130.503 14.0879Z" fill="#594B43"/>
<path d="M144.021 27.4933L147.343 19.6148C145.751 18.3187 141.087 15.8123 135.166 16.156C129.246 16.4996 126.871 18.0908 124.764 19.8407C122.657 21.5907 121.451 23.7876 121.725 28.4922C121.999 33.1968 125.2 35.166 126.767 35.5625C125.355 35.9701 122.607 37.7336 121.253 40.92C119.591 44.8315 120.279 48.0745 121.253 50.4845C122.227 52.8945 126.426 56.6642 134.878 57.013C141.639 57.2921 146.942 53.7255 148.748 51.9073L145.248 44.1733C145.086 44.4291 144.376 45.1886 142.832 46.1799C141.288 47.1712 140.602 47.5315 138.274 48.3833C135.207 49.2919 129.699 49.1182 129.188 45.26C128.677 41.4017 131.232 39.9076 134.326 39.856L141.628 39.9076L141.876 32.0074L136.4 31.9687C131.884 31.9368 130.488 30.2291 130.21 29.1889C129.757 27.4933 129.687 24.5211 135.166 24.078C139.55 23.7235 142.876 26.4252 144.021 27.4933Z" fill="#594B43"/>
</svg>
