<svg width="695" height="410" viewBox="0 0 695 410" fill="none" xmlns="http://www.w3.org/2000/svg">
<path d="M123.176 13.4961V16.6895C123.176 20.3516 123.176 23.9844 122.209 29.4922L118.43 29.1699C119.426 24.043 119.426 20.2344 119.455 16.6895V16.4844H104.367V13.4961H123.176ZM126.164 31.1328V34.209H101.848V31.1328H126.164ZM138.645 13.6133V23.8965H132.111V28.6719C134.646 28.6426 137.062 28.54 139.787 28.1152L140.051 31.1035C136.564 31.6895 133.693 31.7773 130.383 31.7773H128.537V20.9082H135.041V16.6309H128.508V13.6133H138.645ZM150.832 11.0352V37.6953H147.287V24.1309H144.709V36.4062H141.281V11.4746H144.709V21.1133H147.287V11.0352H150.832ZM163.781 17.0703C163.781 22.0801 165.803 26.9434 170.256 28.877L167.971 31.8652C165.012 30.415 163.034 27.7637 161.936 24.4824C160.764 27.9688 158.713 30.8252 155.666 32.334L153.322 29.2871C157.893 27.2363 159.973 22.0801 160.002 17.0703V13.0859H163.781V17.0703ZM176.203 11.0352V37.7539H172.512V22.4316H167.268V19.4141H172.512V11.0352H176.203ZM210.92 25.9473V28.9941H200.49V37.7246H196.799V28.9941H186.516V25.9473H210.92ZM198.645 11.9141C204.357 11.9141 208.371 14.2871 208.371 17.9785C208.371 21.6113 204.357 23.9258 198.645 23.9258C192.932 23.9258 188.947 21.6113 188.977 17.9785C188.947 14.2871 192.932 11.9141 198.645 11.9141ZM198.645 14.9023C195.07 14.9023 192.785 16.0156 192.814 17.9785C192.785 19.8828 195.07 20.9668 198.645 20.9668C202.248 20.9668 204.504 19.8828 204.504 17.9785C204.504 16.0156 202.248 14.9023 198.645 14.9023ZM234.826 11.0352V37.7539H231.105V11.0352H234.826ZM226.564 13.2617V23.5449H217.775V28.4375C221.833 28.4229 225.29 28.1885 229.201 27.5586L229.523 30.5762C225.129 31.3379 221.174 31.5137 216.311 31.5137H213.908V20.5859H222.756V16.2793H213.879V13.2617H226.564ZM260.051 18.3008V21.2305H241.418V11.9727H245.139V18.3008H260.051ZM262.775 24.1016V27.0312H238.371V24.1016H262.775ZM260.227 34.1211V37.1094H241.184V29.1992H244.934V34.1211H260.227ZM293.566 11.0352V37.7539H289.787V11.0352H293.566ZM279.094 12.9102C283.107 12.9102 286.096 16.6016 286.096 22.4023C286.096 28.2617 283.107 31.9238 279.094 31.9238C274.992 31.9238 272.004 28.2617 272.033 22.4023C272.004 16.6016 274.992 12.9102 279.094 12.9102ZM279.094 16.2793C277.014 16.2793 275.637 18.4473 275.637 22.4023C275.637 26.3867 277.014 28.5254 279.094 28.5254C281.115 28.5254 282.492 26.3867 282.492 22.4023C282.492 18.4473 281.115 16.2793 279.094 16.2793ZM319.641 11.0352V25.4199H315.92V18.6523H311.643V15.6641H315.92V11.0352H319.641ZM320.051 26.709V29.4922H301.154V26.709H308.742V24.7461H312.492V26.709H320.051ZM310.588 30.2539C315.48 30.2539 318.293 31.5137 318.293 33.9453C318.293 36.4648 315.48 37.6953 310.588 37.6953C305.725 37.6953 302.941 36.4648 302.941 33.9453C302.941 31.5137 305.725 30.2539 310.588 30.2539ZM310.588 32.8027C307.805 32.8027 306.574 33.2129 306.574 33.9453C306.574 34.8242 307.805 35.1465 310.588 35.1465C313.4 35.1465 314.631 34.8242 314.631 33.9453C314.631 33.2129 313.4 32.8027 310.588 32.8027ZM310.295 12.1777V19.3848H301.916V21.3184C306.076 21.3037 308.889 21.1865 312.111 20.6152L312.434 23.4863C308.713 24.1016 305.461 24.1895 300.363 24.1895H298.166V16.7773H306.574V14.9316H298.137V12.1777H310.295ZM346.213 11.0352V37.6953H342.697V11.0352H346.213ZM340.529 11.6211V36.5234H337.043V24.2773H332.678C331.154 27.3242 328.679 29.9609 324.885 32.1582L322.775 29.5215C328.151 26.3281 330.524 22.4463 331.037 17.2168H324.24V14.1992H334.758C334.743 16.7334 334.479 19.1211 333.85 21.3184H337.043V11.6211H340.529ZM368.801 15.1074V18.0664H355.91V15.1074H360.539V11.7676H364.23V15.1074H368.801ZM362.414 19.2676C365.812 19.2676 368.244 21.9043 368.273 25.5957C368.244 29.3164 365.812 31.9531 362.414 31.9531C359.016 31.9531 356.525 29.3164 356.525 25.5957C356.525 21.9043 359.016 19.2676 362.414 19.2676ZM362.414 22.373C360.861 22.373 359.807 23.5742 359.807 25.5957C359.807 27.6172 360.861 28.7891 362.414 28.7891C363.908 28.7891 364.963 27.6172 364.992 25.5957C364.963 23.5742 363.908 22.373 362.414 22.373ZM378.996 11.0352V37.6953H375.451V24.8633H373.283V36.5527H369.797V11.5625H373.283V21.875H375.451V11.0352H378.996ZM404.338 11.0352V24.4531H400.617V22.4023H394.523V19.5605H400.617V17.2168H394.816C393.161 21.2305 389.353 23.7939 383.449 25.0684L382.189 22.0215C388.298 20.8057 391.125 18.2861 391.623 15.0781H383.684V12.0605H395.754C395.754 12.8662 395.695 13.6426 395.578 14.375H400.617V11.0352H404.338ZM404.338 25.4199V32.7148H390.393V34.4727H404.924V37.4316H386.643V29.9609H400.588V28.3496H386.613V25.4199H404.338ZM420.656 15.1074V18.0664H407.766V15.1074H412.395V11.7676H416.086V15.1074H420.656ZM414.27 19.2676C417.668 19.2676 420.1 21.9043 420.129 25.5957C420.1 29.3164 417.668 31.9531 414.27 31.9531C410.871 31.9531 408.381 29.3164 408.381 25.5957C408.381 21.9043 410.871 19.2676 414.27 19.2676ZM414.27 22.373C412.717 22.373 411.662 23.5742 411.662 25.5957C411.662 27.6172 412.717 28.7891 414.27 28.7891C415.764 28.7891 416.818 27.6172 416.848 25.5957C416.818 23.5742 415.764 22.373 414.27 22.373ZM430.852 11.0352V37.6953H427.307V24.8633H425.139V36.5527H421.652V11.5625H425.139V21.875H427.307V11.0352H430.852ZM458.127 31.5137V34.5898H433.723V31.5137H439.172V24.9805C437.106 23.75 435.861 21.8604 435.861 19.502C435.861 15.1953 440.08 12.3242 445.881 12.3242C451.652 12.3242 455.9 15.1953 455.93 19.502C455.915 21.8018 454.699 23.6768 452.707 24.9219V31.5137H458.127ZM445.881 15.2832C442.072 15.2832 439.553 16.8066 439.553 19.502C439.553 22.1094 442.072 23.7207 445.881 23.7207C449.66 23.7207 452.209 22.1094 452.238 19.502C452.209 16.8066 449.66 15.2832 445.881 15.2832ZM442.863 31.5137H448.928V26.3281C447.976 26.5186 446.95 26.6211 445.881 26.6211C444.812 26.6211 443.801 26.5332 442.863 26.3281V31.5137ZM468.117 26.9141C468.117 21.4062 469.816 16.8359 472.629 12.8809H476.76C474.738 15.8105 472.629 21.6699 472.629 26.9141C472.629 32.1875 474.738 38.0469 476.76 40.9766H472.629C469.816 37.0215 468.117 32.4219 468.117 26.9141ZM483.996 35L477.932 13.7891H482.736L486.311 28.6133H486.486L490.383 13.7891H494.514L498.41 28.6426H498.586L502.16 13.7891H506.965L500.9 35H496.594L492.551 20.9961H492.375L488.303 35H483.996ZM513.469 25.8008V35H509.133V13.7891H513.352V21.875H513.527C514.26 20.0293 515.871 18.8867 518.273 18.8867C521.584 18.8867 523.781 21.1133 523.781 24.8633V35H519.445V25.625C519.445 23.6621 518.391 22.4902 516.574 22.4902C514.758 22.4902 513.469 23.6914 513.469 25.8008ZM526.359 30.5469C526.359 27.002 529.23 25.8301 532.277 25.6543C533.42 25.5811 535.559 25.4785 536.232 25.4492V24.1602C536.203 22.8418 535.295 22.0508 533.684 22.0508C532.219 22.0508 531.281 22.7246 531.047 23.8086H526.916C527.18 21.0547 529.582 18.8867 533.801 18.8867C537.258 18.8867 540.539 20.4395 540.539 24.2773V35H536.438V32.8027H536.32C535.529 34.2676 534.035 35.293 531.662 35.293C528.615 35.293 526.359 33.7109 526.359 30.5469ZM530.52 30.4297C530.52 31.6602 531.516 32.3047 532.893 32.3047C534.855 32.3047 536.262 30.9863 536.232 29.3164V28.1445C535.573 28.1738 533.728 28.2764 532.98 28.3496C531.486 28.4961 530.52 29.1992 530.52 30.4297ZM552.229 19.0918V22.3438H549.24V30.1074C549.24 31.3672 549.855 31.6895 550.734 31.7188C551.174 31.7188 551.936 31.6895 552.463 31.6309V35.0586C551.994 35.1465 551.232 35.2051 550.148 35.2051C547.014 35.2051 544.875 33.7988 544.904 30.7227V22.3438H542.707V19.0918H544.904V15.2832H549.24V19.0918H552.229ZM562.6 26.9141C562.6 32.4219 560.9 37.0215 558.088 40.9766H553.957C555.979 38.0469 558.088 32.1875 558.088 26.9141C558.088 21.6699 555.979 15.8105 553.957 12.8809H558.088C560.9 16.8359 562.6 21.4062 562.6 26.9141Z" fill="#8CBC44"/>
<path d="M49.7319 66.308C49.0719 66.308 48.5585 66.0953 48.1919 65.67C47.8399 65.2447 47.6565 64.724 47.6419 64.108C47.6272 63.228 47.8472 62.4653 48.3019 61.82C48.7565 61.1747 49.4019 60.7053 50.2379 60.412C50.4285 60.3533 50.5899 60.3607 50.7219 60.434C50.8685 60.5073 50.9712 60.61 51.0299 60.742C51.0885 60.874 51.0959 61.0133 51.0519 61.16C51.0225 61.292 50.9345 61.3947 50.7879 61.468C50.6412 61.5413 50.4652 61.6513 50.2599 61.798C50.0545 61.93 49.9152 62.0913 49.8419 62.282C49.7979 62.3847 49.7905 62.4727 49.8199 62.546C49.8639 62.6047 49.9299 62.634 50.0179 62.634C50.2525 62.6487 50.4725 62.7 50.6779 62.788C50.8979 62.8613 51.0885 62.9713 51.2499 63.118C51.4112 63.2647 51.5359 63.448 51.6239 63.668C51.7265 63.8733 51.7779 64.1153 51.7779 64.394C51.7779 64.6727 51.7192 64.9293 51.6019 65.164C51.4992 65.3987 51.3525 65.604 51.1619 65.78C50.9859 65.9413 50.7732 66.0733 50.5239 66.176C50.2745 66.264 50.0105 66.308 49.7319 66.308ZM54.3519 66.308C53.6919 66.308 53.1785 66.0953 52.8119 65.67C52.4599 65.2447 52.2765 64.724 52.2619 64.108C52.2472 63.228 52.4672 62.4653 52.9219 61.82C53.3765 61.1747 54.0219 60.7053 54.8579 60.412C55.0485 60.3533 55.2099 60.3607 55.3419 60.434C55.4885 60.5073 55.5912 60.61 55.6499 60.742C55.7085 60.874 55.7159 61.0133 55.6719 61.16C55.6425 61.292 55.5545 61.3947 55.4079 61.468C55.2612 61.5413 55.0852 61.6513 54.8799 61.798C54.6745 61.93 54.5352 62.0913 54.4619 62.282C54.4179 62.3847 54.4105 62.4727 54.4399 62.546C54.4839 62.6047 54.5499 62.634 54.6379 62.634C54.8725 62.6487 55.0925 62.7 55.2979 62.788C55.5179 62.8613 55.7085 62.9713 55.8699 63.118C56.0312 63.2647 56.1559 63.448 56.2439 63.668C56.3465 63.8733 56.3979 64.1153 56.3979 64.394C56.3979 64.6727 56.3392 64.9293 56.2219 65.164C56.1192 65.3987 55.9725 65.604 55.7819 65.78C55.6059 65.9413 55.3932 66.0733 55.1439 66.176C54.8945 66.264 54.6305 66.308 54.3519 66.308Z" fill="#8CBC44"/>
<path d="M608.676 66.264C608.544 66.176 608.449 66.066 608.39 65.934C608.331 65.802 608.317 65.67 608.346 65.538C608.39 65.3913 608.485 65.2813 608.632 65.208C608.779 65.1347 608.955 65.032 609.16 64.9C609.365 64.7533 609.505 64.5847 609.578 64.394C609.622 64.2913 609.622 64.2107 609.578 64.152C609.549 64.0787 609.49 64.042 609.402 64.042C609.167 64.0273 608.94 63.9833 608.72 63.91C608.515 63.822 608.331 63.7047 608.17 63.558C608.009 63.4113 607.877 63.2353 607.774 63.03C607.686 62.81 607.642 62.5607 607.642 62.282C607.657 61.7393 607.862 61.2847 608.258 60.918C608.654 60.5513 609.131 60.368 609.688 60.368C610.348 60.368 610.854 60.5807 611.206 61.006C611.573 61.4313 611.763 61.952 611.778 62.568C611.793 63.448 611.573 64.2107 611.118 64.856C610.663 65.5013 610.018 65.9707 609.182 66.264C608.977 66.3373 608.808 66.3373 608.676 66.264ZM613.296 66.264C613.164 66.176 613.069 66.066 613.01 65.934C612.951 65.802 612.937 65.67 612.966 65.538C613.01 65.3913 613.105 65.2813 613.252 65.208C613.399 65.1347 613.575 65.032 613.78 64.9C613.985 64.7533 614.125 64.5847 614.198 64.394C614.242 64.2913 614.242 64.2107 614.198 64.152C614.169 64.0787 614.11 64.042 614.022 64.042C613.787 64.0273 613.56 63.9833 613.34 63.91C613.135 63.822 612.951 63.7047 612.79 63.558C612.629 63.4113 612.497 63.2353 612.394 63.03C612.306 62.81 612.262 62.5607 612.262 62.282C612.277 61.7393 612.482 61.2847 612.878 60.918C613.274 60.5513 613.751 60.368 614.308 60.368C614.968 60.368 615.474 60.5807 615.826 61.006C616.193 61.4313 616.383 61.952 616.398 62.568C616.413 63.448 616.193 64.2107 615.738 64.856C615.283 65.5013 614.638 65.9707 613.802 66.264C613.597 66.3373 613.428 66.3373 613.296 66.264Z" fill="#8CBC44"/>
<path d="M78.5488 71.1797V72.4688H71.3027V78.582H69.7988V72.4688H62.6504V71.1797H78.5488ZM70.5605 61.9219C74.2129 61.9219 76.6738 63.3867 76.6738 65.75C76.6738 68.0547 74.2129 69.5195 70.5605 69.5195C66.9082 69.5195 64.4473 68.0547 64.4473 65.75C64.4473 63.3867 66.9082 61.9219 70.5605 61.9219ZM70.5605 63.1719C67.8457 63.1719 66.0098 64.1875 66.0293 65.75C66.0098 67.293 67.8457 68.2891 70.5605 68.2891C73.2559 68.2891 75.1113 67.293 75.1113 65.75C75.1113 64.1875 73.2559 63.1719 70.5605 63.1719ZM94.291 61.2188V78.6211H92.7676V61.2188H94.291ZM89.0176 62.8398V69.0117H82.5332V73.1133C85.4141 73.1133 87.9824 72.9863 91.0879 72.4883L91.2441 73.7773C88.041 74.2852 85.4043 74.4023 82.416 74.4023H80.9707V67.7617H87.4746V64.1094H80.9316V62.8398H89.0176ZM111.283 66.4922V67.7227H99.3887V61.8633H100.912V66.4922H111.283ZM113.119 70.0859V71.3359H97.2207V70.0859H113.119ZM111.381 76.8828V78.1523H99.291V73.1133H100.814V76.8828H111.381ZM135.365 69.8125V71.082H119.545V69.8125H126.693V68.0938C123.363 67.957 121.303 66.7754 121.303 64.8711C121.303 62.7812 123.686 61.5898 127.455 61.5898C131.225 61.5898 133.588 62.7812 133.588 64.8711C133.588 66.7852 131.527 67.9668 128.178 68.0938V69.8125H135.365ZM128.217 72.8008C128.217 75.1445 130.99 76.8438 134.154 77.3125L133.529 78.5039C130.893 78.0645 128.49 76.834 127.455 74.9297C126.41 76.834 123.998 78.0645 121.381 78.5039L120.775 77.3125C123.9 76.8438 126.674 75.1445 126.674 72.8008V72.2344H128.217V72.8008ZM127.455 62.8008C124.643 62.8008 122.865 63.582 122.885 64.8711C122.865 66.1602 124.643 66.9023 127.455 66.9023C130.229 66.9023 132.025 66.1602 132.025 64.8711C132.025 63.582 130.229 62.8008 127.455 62.8008ZM144.74 61.5312C148.607 61.5312 150.873 62.5859 150.873 64.5195C150.873 66.4922 148.607 67.5469 144.74 67.5664C140.873 67.5469 138.588 66.4922 138.588 64.5195C138.588 62.5859 140.873 61.5312 144.74 61.5312ZM144.74 62.6836C141.85 62.6836 140.17 63.3867 140.189 64.5195C140.17 65.7305 141.85 66.3945 144.74 66.3945C147.611 66.3945 149.311 65.7305 149.311 64.5195C149.311 63.3867 147.611 62.6836 144.74 62.6836ZM152.65 68.7383V69.9883H136.83V68.7383H152.65ZM150.619 71.4922V75.3789H140.307V77.1758H151.146V78.3867H138.783V74.2461H149.115V72.6641H138.744V71.4922H150.619ZM159.154 68.1719L160.678 62.8594H162.123L161.049 68.1719H159.154ZM179.428 70.418V71.668H172.357V75.0664H170.834V71.668H163.529V70.418H179.428ZM177.65 76.9219V78.2109H165.561V73.4648H167.084V76.9219H177.65ZM167.182 61.7852V64.0117H175.775V61.7852H177.299V68.7188H165.658V61.7852H167.182ZM167.182 67.4688H175.775V65.1836H167.182V67.4688ZM196.713 71.5898V72.8203H192.533V78.582H191.01V72.8203H186.518V78.582H184.975V72.8203H180.814V71.5898H196.713ZM194.779 61.9023V66.3555H184.311V68.5234H195.15V69.793H182.768V65.1641H193.217V63.1719H182.729V61.9023H194.779ZM201.107 62.8789L199.584 68.1914H198.139L199.213 62.8789H201.107ZM215.971 61.2188V68.3867H218.881V69.6562H215.971V78.582H214.447V61.2188H215.971ZM212.768 64.0117V65.2812H202.436V64.0117H206.908V61.4336H208.432V64.0117H212.768ZM207.689 66.7266C210.15 66.7266 211.928 68.3672 211.947 70.7109C211.928 73.0547 210.15 74.6953 207.689 74.6953C205.209 74.6953 203.412 73.0547 203.432 70.7109C203.412 68.3672 205.209 66.7266 207.689 66.7266ZM207.689 68.0156C206.068 68.0156 204.877 69.1484 204.896 70.7109C204.877 72.293 206.068 73.4062 207.689 73.3867C209.291 73.4062 210.463 72.293 210.482 70.7109C210.463 69.1484 209.291 68.0156 207.689 68.0156ZM226.029 66.5508C226.029 69.5 228.178 72.4883 230.736 73.6016L229.877 74.8125C227.846 73.8848 226.088 71.8828 225.287 69.4805C224.467 72.0293 222.719 74.2461 220.736 75.2422L219.818 74.0312C222.299 72.8398 224.467 69.5586 224.486 66.5508V64.2852H220.385V63.0156H230.17V64.2852H226.029V66.5508ZM234.135 61.2188V78.582H232.592V61.2188H234.135ZM246.967 62.2148C249.564 62.2148 251.479 63.875 251.479 66.2188C251.479 68.582 249.564 70.2227 246.967 70.2422C244.369 70.2227 242.436 68.582 242.455 66.2188C242.436 63.875 244.369 62.2148 246.967 62.2148ZM246.967 63.5039C245.268 63.5039 243.939 64.6562 243.959 66.2188C243.939 67.8203 245.268 68.9727 246.967 68.9727C248.686 68.9727 249.975 67.8203 249.975 66.2188C249.975 64.6562 248.686 63.5039 246.967 63.5039ZM255.697 61.2188V65.1445H258.314V66.4141H255.697V69.9102H254.174V61.2188H255.697ZM245.463 71.7852V76.8438C246.469 76.8145 247.807 76.668 249.037 76.2578L249.271 77.4883C247.572 78.0547 245.932 78.1133 244.799 78.1133H243.979V71.7852H245.463ZM257.436 71.8633V73.0547H248.666V71.8633H252.318V70.3203H253.822V71.8633H257.436ZM253.041 73.6406C254.936 73.6406 256.283 74.5977 256.303 76.1016C256.283 77.6055 254.936 78.543 253.041 78.543C251.127 78.543 249.799 77.6055 249.818 76.1016C249.799 74.5977 251.127 73.6406 253.041 73.6406ZM253.041 74.7539C251.967 74.7539 251.186 75.3008 251.186 76.1016C251.186 76.9219 251.967 77.4492 253.041 77.4492C254.135 77.4492 254.896 76.9219 254.896 76.1016C254.896 75.3008 254.135 74.7539 253.041 74.7539ZM273.334 62.9766V64.7148C273.314 66.8438 273.314 69.2266 272.689 72.7227L271.127 72.5469C271.791 69.2266 271.791 66.7852 271.791 64.7148V64.2461H261.088V62.9766H273.334ZM275.229 74.8516V76.1211H259.408V74.8516H265.619V68.6406H267.123V74.8516H275.229ZM295.307 61.2188V65.75H297.904V67.0391H295.307V71.5898H293.764V61.2188H295.307ZM289.721 71.9219C293.256 71.9219 295.443 73.1523 295.443 75.2227C295.443 77.332 293.256 78.543 289.721 78.543C286.166 78.543 283.959 77.332 283.959 75.2227C283.959 73.1523 286.166 71.9219 289.721 71.9219ZM289.721 73.1914C287.104 73.1719 285.463 73.9531 285.463 75.2227C285.463 76.5117 287.104 77.3125 289.721 77.3125C292.318 77.3125 293.959 76.5117 293.959 75.2227C293.959 73.9531 292.318 73.1719 289.721 73.1914ZM290.229 62.5469V63.8164H284.018V68.9141C287.533 68.8945 289.564 68.7871 291.889 68.3086L292.045 69.5781C289.623 70.0664 287.533 70.1641 283.861 70.1641H282.514V62.5469H290.229ZM313.334 61.2383V73.9727H311.811V61.2383H313.334ZM313.881 76.9219V78.2109H302.123V72.8008H303.646V76.9219H313.881ZM305.15 63.9531C305.131 66.5898 306.947 68.9727 309.525 69.9102L308.725 71.1406C306.713 70.3691 305.15 68.8066 304.389 66.8047C303.617 68.9336 302.035 70.6426 300.014 71.4531L299.174 70.2617C301.811 69.2461 303.588 66.6875 303.588 63.9531V62.2148H305.15V63.9531ZM321.967 62.4883C324.701 62.4883 326.635 64.1484 326.635 66.5703C326.635 68.9922 324.701 70.6523 321.967 70.6523C319.232 70.6523 317.26 68.9922 317.279 66.5703C317.26 64.1484 319.232 62.4883 321.967 62.4883ZM321.967 63.8359C320.111 63.8359 318.764 64.9492 318.783 66.5703C318.764 68.1914 320.111 69.3047 321.967 69.3047C323.803 69.3047 325.131 68.1914 325.131 66.5703C325.131 64.9492 323.803 63.8359 321.967 63.8359ZM330.521 61.2188V78.6211H328.998V61.2188H330.521ZM316.381 73.4844C319.584 73.4844 323.998 73.4648 327.846 72.8984L327.963 74.0312C323.998 74.7734 319.721 74.793 316.596 74.793L316.381 73.4844ZM352.025 61.2188V68.3867H354.936V69.6562H352.025V78.582H350.502V61.2188H352.025ZM348.822 64.0117V65.2812H338.49V64.0117H342.963V61.4336H344.486V64.0117H348.822ZM343.744 66.7266C346.205 66.7266 347.982 68.3672 348.002 70.7109C347.982 73.0547 346.205 74.6953 343.744 74.6953C341.264 74.6953 339.467 73.0547 339.486 70.7109C339.467 68.3672 341.264 66.7266 343.744 66.7266ZM343.744 68.0156C342.123 68.0156 340.932 69.1484 340.951 70.7109C340.932 72.293 342.123 73.4062 343.744 73.3867C345.346 73.4062 346.518 72.293 346.537 70.7109C346.518 69.1484 345.346 68.0156 343.744 68.0156ZM369.818 61.9219V66.4336H359.35V68.6797H370.189V69.9492H357.807V65.2227H368.256V63.1719H357.768V61.9219H369.818ZM371.752 71.7852V73.0156H364.525V78.6211H363.002V73.0156H355.854V71.7852H371.752ZM389.037 69.2852V70.4961H373.139V69.2852H389.037ZM387.045 71.8828V75.5742H376.615V77.2344H387.611V78.3477H375.072V74.5195H385.521V73.0352H375.053V71.8828H387.045ZM386.986 61.7461V65.3398H376.732V66.8633H387.299V67.9766H375.209V64.2852H385.443V62.8594H375.15V61.7461H386.986ZM409.779 61.2188V78.6211H408.236V61.2188H409.779ZM400.541 62.5664C403.119 62.5859 404.975 64.9297 404.975 68.6211C404.975 72.3125 403.119 74.6562 400.541 74.6562C397.943 74.6562 396.107 72.3125 396.107 68.6211C396.107 64.9297 397.943 62.5859 400.541 62.5664ZM400.541 63.9336C398.803 63.9531 397.592 65.7891 397.592 68.6211C397.592 71.4531 398.803 73.2891 400.541 73.2891C402.279 73.2891 403.49 71.4531 403.49 68.6211C403.49 65.7891 402.279 63.9531 400.541 63.9336ZM421.42 64.2266V65.4766H412.709V64.2266H416.322V61.7461H417.846V64.2266H421.42ZM417.064 66.6484C419.252 66.6484 420.814 68.2891 420.834 70.5938C420.814 72.918 419.252 74.5781 417.064 74.5781C414.896 74.5781 413.334 72.918 413.334 70.5938C413.334 68.2891 414.896 66.6484 417.064 66.6484ZM417.064 67.9375C415.697 67.957 414.701 69.0703 414.701 70.5938C414.701 72.1367 415.697 73.25 417.064 73.2305C418.451 73.25 419.467 72.1367 419.467 70.5938C419.467 69.0703 418.451 67.957 417.064 67.9375ZM427.533 61.2188V78.582H426.068V69.8125H423.764V77.7227H422.318V61.6484H423.764V68.543H426.068V61.2188H427.533ZM443.607 61.2383V66.9609H446.225V68.25H443.607V74.2461H442.084V61.2383H443.607ZM440.424 63.3672V64.6172H430.072V63.3672H434.486V61.2383H436.01V63.3672H440.424ZM435.248 65.5742C437.729 65.5742 439.408 66.8438 439.428 68.8164C439.408 70.7695 437.729 72.0195 435.248 72.0195C432.748 72.0195 431.049 70.7695 431.068 68.8164C431.049 66.8438 432.748 65.5742 435.248 65.5742ZM435.248 66.7852C433.607 66.7852 432.514 67.5859 432.533 68.8164C432.514 70.0469 433.607 70.8281 435.248 70.8086C436.869 70.8281 437.963 70.0469 437.982 68.8164C437.963 67.5859 436.869 66.7852 435.248 66.7852ZM444.408 76.9219V78.2109H432.748V73.2109H434.252V76.9219H444.408ZM466.654 61.2383V78.6016H465.15V61.2383H466.654ZM452.26 70.6914C455.717 70.6719 460.053 70.6523 463.9 70.2227L463.979 71.3945C462.299 71.6191 460.57 71.7656 458.881 71.8438V78.0547H457.357V71.9219C455.629 71.9805 453.959 72 452.455 72L452.26 70.6914ZM462.572 67.1953V68.4844H453.92V62.2148H462.338V63.4648H455.463V67.1953H462.572ZM488.529 62.918V64.5977C488.51 66.707 488.529 69.0898 487.807 72.625L486.303 72.4492C486.645 70.877 486.82 69.5 486.928 68.2695L476.303 68.9141L476.049 67.5664L486.986 67.1172C487.025 66.1992 487.025 65.3691 487.025 64.5977V64.1875H476.557V62.918H488.529ZM490.463 74.9102V76.2188H474.643V74.9102H480.854V70.418H482.357V74.9102H490.463ZM506.244 61.2188V78.6211H504.701V61.2188H506.244ZM501.322 62.8789V64.168H494.604V72.9766C497.982 72.9766 500.209 72.8691 502.807 72.4102L502.963 73.6992C500.268 74.1875 497.982 74.2852 494.467 74.3047H493.061V62.8789H501.322ZM525.092 69.2852V70.4961H509.193V69.2852H525.092ZM523.1 71.8828V75.5742H512.67V77.2344H523.666V78.3477H511.127V74.5195H521.576V73.0352H511.107V71.8828H523.1ZM523.041 61.7461V65.3398H512.787V66.8633H523.354V67.9766H511.264V64.2852H521.498V62.8594H511.205V61.7461H523.041ZM546.361 61.2188V78.582H544.896V61.2188H546.361ZM542.846 61.6484V77.6836H541.4V68.7383H538.471V67.4883H541.4V61.6484H542.846ZM536.615 66.1797C536.615 69.1875 537.963 72.1758 540.365 73.5625L539.428 74.6953C537.719 73.6699 536.508 71.7949 535.912 69.5781C535.277 71.9707 534.018 74.0117 532.279 75.1055L531.303 73.9531C533.725 72.5078 535.131 69.3438 535.131 66.1797V64.5391H531.791V63.2695H539.799V64.5391H536.615V66.1797ZM562.377 61.2188V66.5117H564.994V67.8008H562.377V74.0312H560.854V61.2188H562.377ZM563.178 76.9219V78.2109H551.518V72.7031H553.021V76.9219H563.178ZM553.686 62.4492C556.283 62.4492 558.236 64.207 558.256 66.7266C558.236 69.2461 556.283 71.0039 553.686 71.0039C551.088 71.0039 549.115 69.2461 549.135 66.7266C549.115 64.207 551.088 62.4492 553.686 62.4492ZM553.686 63.7969C551.967 63.7969 550.619 65.0078 550.639 66.7266C550.619 68.4453 551.967 69.6562 553.686 69.6562C555.443 69.6562 556.752 68.4453 556.752 66.7266C556.752 65.0078 555.443 63.7969 553.686 63.7969ZM574.76 64.2266V65.4766H566.049V64.2266H569.662V61.7461H571.186V64.2266H574.76ZM570.404 66.6484C572.592 66.6484 574.154 68.2891 574.174 70.5938C574.154 72.918 572.592 74.5781 570.404 74.5781C568.236 74.5781 566.674 72.918 566.674 70.5938C566.674 68.2891 568.236 66.6484 570.404 66.6484ZM570.404 67.9375C569.037 67.957 568.041 69.0703 568.041 70.5938C568.041 72.1367 569.037 73.25 570.404 73.2305C571.791 73.25 572.807 72.1367 572.807 70.5938C572.807 69.0703 571.791 67.957 570.404 67.9375ZM580.873 61.2188V78.582H579.408V69.8125H577.104V77.7227H575.658V61.6484H577.104V68.543H579.408V61.2188H580.873ZM599.271 75.0664V76.3555H583.373V75.0664H587.318V70.3789C585.834 69.6074 584.936 68.3574 584.936 66.7852C584.936 64.0898 587.572 62.332 591.283 62.3125C594.994 62.332 597.631 64.0898 597.631 66.7852C597.631 68.3281 596.762 69.5684 595.326 70.3398V75.0664H599.271ZM591.283 63.582C588.432 63.5625 586.42 64.8516 586.42 66.7852C586.42 68.7188 588.432 70.0273 591.283 70.0273C594.115 70.0273 596.146 68.7188 596.146 66.7852C596.146 64.8516 594.115 63.5625 591.283 63.582ZM588.822 75.0664H593.783V70.9258C593.031 71.1309 592.191 71.2383 591.283 71.2383C590.395 71.2383 589.564 71.1406 588.822 70.9453V75.0664ZM602.494 77.1172C601.811 77.1172 601.225 76.5508 601.244 75.8477C601.225 75.1641 601.811 74.5977 602.494 74.5977C603.178 74.5977 603.744 75.1641 603.744 75.8477C603.744 76.5508 603.178 77.1172 602.494 77.1172Z" fill="black"/>
<rect y="144" width="295" height="74" rx="37" fill="#B5B5B5"/>
<rect x="400" y="144" width="295" height="74" rx="37" fill="#E6E6E6"/>
<rect y="240" width="295" height="74" rx="37" fill="#B5B5B5"/>
<rect x="400" y="240" width="295" height="74" rx="37" fill="#E6E6E6"/>
<rect y="336" width="295" height="74" rx="37" fill="#B5B5B5"/>
<rect x="400" y="336" width="295" height="74" rx="37" fill="#E6E6E6"/>
<path d="M295 277H400" stroke="url(#paint0_linear_180_25473)" stroke-width="1.3" stroke-dasharray="3 3"/>
<path d="M295 181H400" stroke="url(#paint1_linear_180_25473)" stroke-width="1.3" stroke-dasharray="3 3"/>
<path d="M295 374H400" stroke="url(#paint2_linear_180_25473)" stroke-width="1.3" stroke-dasharray="3 3"/>
<path d="M89.8262 273.484C89.8262 276.514 91.2227 279.607 93.8867 281.025L92.748 282.529C90.8896 281.541 89.5898 279.693 88.9023 277.502C88.2041 279.854 86.915 281.874 85.0566 282.98L83.8535 281.434C86.5176 279.887 87.8926 276.6 87.9141 273.484V272.711H84.4336V271.035H87.9141V268.264H89.8262V271.035H93.2422V272.711H89.8262V273.484ZM100.59 267.576V286.826H98.6348V267.576H100.59ZM96.6797 267.984V285.859H94.7461V276.771H91.9746V275.074H94.7461V267.984H96.6797ZM113.932 269.596V271.229H103.104V269.596H107.615V267.404H109.635V269.596H113.932ZM108.604 272.109C111.203 272.109 113.029 273.549 113.051 275.697C113.029 277.846 111.203 279.264 108.604 279.264C105.982 279.264 104.178 277.846 104.178 275.697C104.178 273.549 105.982 272.109 108.604 272.109ZM108.604 273.656C107.078 273.656 106.09 274.451 106.09 275.697C106.09 276.943 107.078 277.717 108.604 277.717C110.107 277.717 111.139 276.943 111.16 275.697C111.139 274.451 110.107 273.656 108.604 273.656ZM119.131 267.576V279.973H117.09V277.502H113.975V275.848H117.09V273.721H113.996V272.066H117.09V267.576H119.131ZM112.729 280.166C116.768 280.166 119.238 281.369 119.238 283.475C119.238 285.559 116.768 286.805 112.729 286.783C108.668 286.805 106.197 285.559 106.197 283.475C106.197 281.369 108.668 280.166 112.729 280.166ZM112.729 281.734C109.957 281.734 108.324 282.336 108.324 283.475C108.324 284.592 109.957 285.236 112.729 285.215C115.436 285.236 117.068 284.592 117.068 283.475C117.068 282.336 115.436 281.734 112.729 281.734ZM124.287 279.715C123.449 279.715 122.74 279.027 122.762 278.189C122.74 277.352 123.449 276.664 124.287 276.664C125.104 276.664 125.812 277.352 125.812 278.189C125.812 279.027 125.104 279.715 124.287 279.715ZM134.578 272.475C134.557 275.891 136.533 279.371 139.412 280.768L138.145 282.4C136.05 281.315 134.428 279.156 133.59 276.578C132.72 279.328 131.033 281.627 128.842 282.766L127.574 281.111C130.539 279.693 132.537 275.998 132.537 272.475V269.188H134.578V272.475ZM142.893 267.576V275.246H145.986V276.986H142.893V286.826H140.852V267.576H142.893ZM162.852 267.576V286.869H160.811V267.576H162.852ZM152.561 269.016C155.418 269.016 157.523 271.637 157.523 275.762C157.523 279.908 155.418 282.529 152.561 282.529C149.66 282.529 147.576 279.908 147.576 275.762C147.576 271.637 149.66 269.016 152.561 269.016ZM152.561 270.842C150.777 270.842 149.553 272.732 149.553 275.762C149.553 278.812 150.777 280.703 152.561 280.703C154.322 280.703 155.547 278.812 155.547 275.762C155.547 272.732 154.322 270.842 152.561 270.842ZM183.541 282.658V284.334H165.924V282.658H183.541ZM175.764 271.658C175.764 274.602 179.094 277.201 182.768 277.781L181.951 279.393C178.847 278.812 175.979 276.997 174.711 274.473C173.476 277.019 170.629 278.888 167.578 279.479L166.74 277.846C170.328 277.266 173.637 274.602 173.637 271.658V271.057H167.385V269.402H182.016V271.057H175.764V271.658ZM194.691 269.273V278.254H185.689V269.273H194.691ZM187.688 270.928V276.643H192.693V270.928H187.688ZM200.062 267.555V273.312H202.855V275.031H200.062V281.67H198.021V267.555H200.062ZM200.879 284.764V286.418H187.859V280.316H189.9V284.764H200.879ZM225.328 267.576V286.826H223.266V267.576H225.328ZM219.592 269.639C219.592 275.268 217.186 280.166 210.59 283.324L209.516 281.67C214.64 279.231 217.132 275.762 217.529 271.271H210.439V269.639H219.592ZM244.32 268.5V270.133H238.455C238.573 272.228 241.345 274.075 244.922 274.516L244.148 276.127C240.851 275.697 238.144 274.161 237.102 272.002C236.06 274.15 233.363 275.697 230.076 276.127L229.303 274.516C232.901 274.075 235.641 272.228 235.748 270.133H229.947V268.5H244.32ZM245.932 277.373V279.027H238.283V282.766H236.264V279.027H228.314V277.373H245.932ZM243.977 284.764V286.418H230.506V280.918H232.547V284.764H243.977Z" fill="black"/>
<path d="M70.4001 274.865L77.1632 281.628L73.6276 285.164L66.8645 278.401L60.5006 284.765L56.965 281.229L63.329 274.865L57.3642 268.9L60.8997 265.365L66.8645 271.33L73.2285 264.966L76.764 268.501L70.4001 274.865Z" fill="url(#paint3_linear_180_25473)"/>
<path d="M133.585 182.619V184.273H125.722V190.805H123.724V184.273H115.968V182.619H133.585ZM131.372 172.607V180.17H118.181V172.607H131.372ZM120.179 174.24V178.58H129.331V174.24H120.179ZM141.728 175.035C141.728 177.484 143.425 179.826 146.368 180.814L145.337 182.404C143.156 181.652 141.556 180.148 140.718 178.258C139.88 180.342 138.215 181.975 135.948 182.77L134.853 181.18C137.86 180.148 139.665 177.678 139.687 175.014V174.498H135.454V172.844H145.874V174.498H141.728V175.035ZM150.128 171.576V176.518H152.921V178.236H150.128V183.178H148.087V171.576H150.128ZM150.128 184.123V190.826H148.087V185.777H137.409V184.123H150.128ZM160.333 172.457C163.233 172.457 165.339 174.068 165.339 176.453C165.339 178.816 163.233 180.449 160.333 180.428C157.433 180.449 155.37 178.816 155.37 176.453C155.37 174.068 157.433 172.457 160.333 172.457ZM160.333 174.111C158.593 174.111 157.325 175.035 157.347 176.453C157.325 177.85 158.593 178.773 160.333 178.752C162.116 178.773 163.384 177.85 163.384 176.453C163.384 175.035 162.116 174.111 160.333 174.111ZM170.022 171.598V190.826H168.003V171.598H170.022ZM153.995 181.932C157.54 181.932 162.46 181.846 166.671 181.223L166.821 182.748C165.07 183.081 163.244 183.285 161.472 183.414V190.225H159.431V183.521C157.562 183.607 155.8 183.618 154.274 183.629L153.995 181.932ZM195.954 183.178V184.854H188.177V190.848H186.157V184.854H178.401V183.178H195.954ZM194.278 173.896V175.551H188.198C188.316 177.678 191.217 179.751 194.88 180.213L194.149 181.846C191.056 181.416 188.424 179.966 187.188 178C185.932 179.987 183.278 181.416 180.185 181.846L179.433 180.213C183.096 179.751 186.018 177.721 186.157 175.551H180.056V173.896H186.157V171.576H188.177V173.896H194.278ZM204.161 176.152C204.161 178.58 205.966 180.814 208.931 181.738L207.942 183.35C205.729 182.651 204.054 181.19 203.194 179.311C202.335 181.33 200.67 182.898 198.403 183.65L197.415 182.061C200.358 181.115 202.142 178.752 202.142 176.152V175.701H197.952V174.047H202.142V171.705H204.183V174.047H208.351V175.701H204.161V176.152ZM213.464 171.598V185.928H211.423V179.074H207.685V177.42H211.423V171.598H213.464ZM213.979 188.764V190.418H200.96V184.66H203.001V188.764H213.979Z" fill="#333333"/>
<path d="M101.4 181.864L108.163 188.627L104.628 192.163L97.8645 185.4L91.5006 191.764L87.965 188.228L94.329 181.864L88.3642 175.899L91.8997 172.364L97.8645 178.329L104.229 171.965L107.764 175.5L101.4 181.864Z" fill="url(#paint4_linear_180_25473)"/>
<path d="M78.2334 364.221C81.1338 364.242 83.2607 366.025 83.2822 368.539C83.2607 371.074 81.1338 372.836 78.2334 372.836C75.3115 372.836 73.1631 371.074 73.1631 368.539C73.1631 366.025 75.3115 364.242 78.2334 364.221ZM78.2334 365.939C76.4502 365.918 75.1396 366.971 75.1611 368.539C75.1396 370.129 76.4502 371.182 78.2334 371.182C79.9951 371.182 81.3057 370.129 81.3057 368.539C81.3057 366.971 79.9951 365.918 78.2334 365.939ZM88.7393 363.576V373.373H86.6982V363.576H88.7393ZM88.7393 374.254V379.109H78.126V380.957H89.3838V382.59H76.1494V377.584H86.7197V375.887H76.085V374.254H88.7393ZM100.706 375.564C104.681 375.564 107.087 376.896 107.087 379.174C107.087 381.473 104.681 382.805 100.706 382.826C96.6885 382.805 94.2393 381.473 94.2393 379.174C94.2393 376.896 96.6885 375.564 100.706 375.564ZM100.706 377.176C97.9131 377.176 96.2588 377.885 96.2803 379.174C96.2588 380.463 97.9131 381.193 100.706 381.193C103.478 381.193 105.089 380.463 105.089 379.174C105.089 377.885 103.478 377.176 100.706 377.176ZM106.915 363.576V368.281H109.708V370.021H106.915V375.07H104.874V363.576H106.915ZM94.54 364.779V367.551H99.5889V364.779H101.608V373.717H92.542V364.779H94.54ZM94.54 372.084H99.5889V369.162H94.54V372.084ZM117.7 366.992C117.7 369.42 119.44 371.805 122.341 372.793L121.288 374.383C119.129 373.631 117.528 372.095 116.69 370.193C115.853 372.31 114.166 374.007 111.878 374.812L110.825 373.201C113.79 372.191 115.616 369.613 115.616 367.014V366.477H111.448V364.822H121.825V366.477H117.7V366.992ZM126.853 376.059V382.826H124.812V377.713H113.812V376.059H126.853ZM126.853 363.576V375.092H124.812V370.15H121.245V368.475H124.812V363.576H126.853ZM145.78 363.598V377.584H143.739V363.598H145.78ZM146.36 380.764V382.418H133.19V376.166H135.253V380.764H146.36ZM135.339 364.887C138.239 364.887 140.452 366.863 140.452 369.656C140.452 372.492 138.239 374.447 135.339 374.447C132.438 374.447 130.204 372.492 130.204 369.656C130.204 366.863 132.438 364.887 135.339 364.887ZM135.339 366.67C133.534 366.67 132.202 367.895 132.202 369.656C132.202 371.461 133.534 372.664 135.339 372.664C137.101 372.664 138.454 371.461 138.454 369.656C138.454 367.895 137.101 366.67 135.339 366.67ZM163.978 366.305C163.978 369.441 167.329 372.406 171.024 373.072L170.079 374.77C167.007 374.104 164.171 372.084 162.925 369.377C161.657 372.062 158.832 374.082 155.749 374.77L154.847 373.072C158.499 372.385 161.829 369.441 161.829 366.305V364.844H163.978V366.305ZM171.819 378.594V380.291H154.202V378.594H171.819ZM183.099 365.273V366.949H176.095V370.666H182.712V372.299H176.095V376.617C179.307 376.606 181.681 376.467 184.474 376.016L184.667 377.67C181.702 378.164 179.124 378.271 175.579 378.271H174.032V365.273H183.099ZM188.212 363.576V371.16H191.306V372.879H188.212V382.826H186.171V363.576H188.212ZM197.687 364.221C200.587 364.242 202.714 366.025 202.735 368.539C202.714 371.074 200.587 372.836 197.687 372.836C194.765 372.836 192.616 371.074 192.616 368.539C192.616 366.025 194.765 364.242 197.687 364.221ZM197.687 365.939C195.903 365.918 194.593 366.971 194.614 368.539C194.593 370.129 195.903 371.182 197.687 371.182C199.448 371.182 200.759 370.129 200.759 368.539C200.759 366.971 199.448 365.918 197.687 365.939ZM208.192 363.576V373.373H206.151V363.576H208.192ZM208.192 374.254V379.109H197.579V380.957H208.837V382.59H195.603V377.584H206.173V375.887H195.538V374.254H208.192ZM234.21 373.652V375.285H226.562V378.83H224.542V375.285H216.593V373.652H234.21ZM232.255 380.764V382.418H218.784V377.154H220.804V380.764H232.255ZM220.933 364.178V366.52H229.849V364.178H231.89V371.955H218.913V364.178H220.933ZM220.933 370.322H229.849V368.045H220.933V370.322ZM253.224 375.006V376.617H248.798V382.826H246.735V376.617H242.095V382.826H240.054V376.617H235.606V375.006H253.224ZM251.14 364.264V369.42H239.796V371.547H251.548V373.201H237.755V367.895H249.056V365.939H237.69V364.264H251.14Z" fill="black"/>
<path d="M62.4001 373.864L69.1632 380.627L65.6276 384.163L58.8645 377.4L52.5006 383.764L48.965 380.228L55.329 373.864L49.3642 367.899L52.8997 364.364L58.8645 370.329L65.2285 363.965L68.764 367.5L62.4001 373.864Z" fill="url(#paint5_linear_180_25473)"/>
<path d="M497.729 269.584C497.729 272.033 499.318 274.332 502.305 275.277L501.016 277.146C498.921 276.438 497.417 275.02 496.59 273.215C495.73 275.277 494.162 276.899 491.928 277.684L490.639 275.814C493.775 274.719 495.322 272.141 495.344 269.369V267.521H497.729V269.584ZM506.172 266.49V271.217H508.879V273.193H506.172V278.113H503.787V266.49H506.172ZM499.855 278.543C503.873 278.521 506.344 279.896 506.365 282.195C506.344 284.537 503.873 285.891 499.855 285.891C495.795 285.891 493.281 284.537 493.281 282.195C493.281 279.896 495.795 278.521 499.855 278.543ZM499.855 280.412C497.191 280.412 495.666 281.057 495.666 282.195C495.666 283.398 497.191 284 499.855 284C502.52 284 504.002 283.398 504.002 282.195C504.002 281.057 502.52 280.412 499.855 280.412ZM525.25 266.512V272.141H527.871V274.096H525.25V279.639H522.865V266.512H525.25ZM518.826 279.811C522.951 279.811 525.336 280.906 525.357 282.883C525.336 284.859 522.951 285.912 518.826 285.912C514.637 285.912 512.273 284.859 512.273 282.883C512.273 280.906 514.637 279.811 518.826 279.811ZM518.826 281.572C516.033 281.551 514.658 282.002 514.658 282.883C514.658 283.699 516.033 284.15 518.826 284.15C521.576 284.15 522.93 283.699 522.951 282.883C522.93 282.002 521.576 281.551 518.826 281.572ZM509.695 277.146C511.167 277.146 512.843 277.146 514.594 277.082V275.814C512.413 275.567 511.07 274.579 511.07 273.107C511.07 271.389 512.896 270.336 515.754 270.336C518.611 270.336 520.438 271.389 520.438 273.107C520.438 274.568 519.127 275.546 516.979 275.793V276.996C518.633 276.921 520.298 276.781 521.855 276.566L522.049 278.221C517.902 278.93 513.391 278.994 509.953 278.994L509.695 277.146ZM521.34 267.994V269.756H510.189V267.994H514.594V266.34H516.979V267.994H521.34ZM515.754 271.926C514.25 271.926 513.348 272.377 513.369 273.107C513.348 273.881 514.25 274.311 515.754 274.311C517.258 274.311 518.16 273.881 518.16 273.107C518.16 272.377 517.258 271.926 515.754 271.926ZM530.041 278.07C530.041 274.031 531.244 270.658 533.264 267.779H535.842C534.359 269.906 532.877 274.225 532.877 278.07C532.877 281.916 534.359 286.234 535.842 288.383H533.264C531.244 285.482 530.041 282.131 530.041 278.07ZM537.217 270.787V268.445H549.613V270.787H544.822V284H542.029V270.787H537.217ZM551.805 284V268.445H557.648C561.215 268.445 563.127 270.615 563.127 273.602C563.127 276.588 561.193 278.736 557.605 278.736H554.598V284H551.805ZM554.598 276.438H557.219C559.324 276.438 560.27 275.256 560.27 273.602C560.27 271.926 559.324 270.787 557.219 270.787H554.598V276.438ZM579.262 276.223C579.262 281.25 576.211 284.215 572.129 284.215C568.047 284.215 564.996 281.229 564.996 276.223C564.996 271.195 568.047 268.23 572.129 268.23C576.211 268.23 579.262 271.195 579.262 276.223ZM576.447 276.223C576.447 272.678 574.664 270.744 572.129 270.744C569.594 270.744 567.811 272.678 567.811 276.223C567.811 279.768 569.594 281.701 572.129 281.701C574.664 281.701 576.447 279.768 576.447 276.223ZM586.738 278.07C586.738 282.131 585.535 285.482 583.516 288.383H580.938C582.42 286.234 583.902 281.916 583.902 278.07C583.902 274.225 582.42 269.906 580.938 267.779H583.516C585.535 270.658 586.738 274.031 586.738 278.07ZM612.111 275.406V277.34H604.42V278.951C607.9 279.188 609.941 280.391 609.963 282.41C609.941 284.645 607.428 285.891 603.238 285.891C599.006 285.891 596.471 284.645 596.471 282.41C596.471 280.391 598.533 279.177 602.057 278.951V277.34H594.408V275.406H612.111ZM603.238 280.756C600.402 280.777 598.877 281.336 598.898 282.41C598.877 283.484 600.402 284.064 603.238 284.064C606.01 284.064 607.557 283.484 607.578 282.41C607.557 281.336 606.01 280.777 603.238 280.756ZM610.521 267.35V269.262H604.936C605.312 270.862 607.632 272.302 611.273 272.635L610.436 274.525C606.912 274.171 604.291 272.764 603.238 270.787C602.186 272.753 599.607 274.171 596.084 274.525L595.268 272.635C598.834 272.302 601.154 270.841 601.562 269.262H596.02V267.35H610.521ZM629.6 266.512V277.49H627.193V266.512H629.6ZM629.6 278.457V285.676H616.709V278.457H629.6ZM619.072 280.348V283.742H627.258V280.348H619.072ZM620.662 269.133C620.662 271.604 622.316 273.924 625.346 274.891L624.186 276.717C621.94 276.019 620.329 274.59 619.459 272.721C618.567 274.729 616.935 276.33 614.604 277.104L613.422 275.213C616.58 274.203 618.191 271.689 618.191 269.133V267.242H620.662V269.133Z" fill="#333333"/>
<path d="M478.87 267.564C478.87 267.564 473.074 282.165 471.492 282.165C469.911 282.165 467.699 275.282 467.277 274.864C466.75 274.343 465.458 274.596 464.642 274.864C462.993 275.408 462.886 276.081 463.062 276.429C463.94 277.993 465.802 281.33 466.223 282.165C466.75 283.207 468.331 286.857 472.02 285.815C475.708 284.772 481.504 271.736 482.558 269.65C483.612 267.564 485.193 266 482.558 266C480.45 266 479.397 266.521 478.87 267.564Z" fill="#3A3869"/>
<path d="M452.711 368.152C452.689 371.611 454.43 375.135 457.438 376.574L455.977 378.486C453.871 377.423 452.356 375.371 451.529 372.9C450.681 375.543 449.091 377.734 446.867 378.852L445.406 376.939C448.521 375.457 450.305 371.74 450.326 368.152V365.059H452.711V368.152ZM460.982 363.49V371.096H463.969V373.137H460.982V382.912H458.598V363.49H460.982ZM482.488 372.836V374.748H464.785V372.836H468.91V370.365C467.449 369.753 466.611 368.775 466.611 367.508C466.611 365.188 469.34 363.812 473.615 363.812C477.891 363.812 480.598 365.188 480.619 367.508C480.608 368.786 479.771 369.764 478.299 370.365V372.836H482.488ZM473.615 375.93C477.805 375.908 480.318 377.154 480.34 379.389C480.318 381.645 477.805 382.869 473.615 382.869C469.383 382.869 466.848 381.645 466.848 379.389C466.848 377.154 469.383 375.908 473.615 375.93ZM473.615 377.734C470.779 377.734 469.254 378.293 469.275 379.389C469.254 380.484 470.779 381.064 473.615 381.064C476.387 381.064 477.934 380.484 477.955 379.389C477.934 378.293 476.387 377.734 473.615 377.734ZM473.615 365.66C470.736 365.66 469.082 366.305 469.104 367.508C469.082 368.689 470.736 369.312 473.615 369.312C476.473 369.312 478.148 368.689 478.148 367.508C478.148 366.305 476.473 365.66 473.615 365.66ZM471.316 372.836H475.914V370.988C475.216 371.085 474.442 371.139 473.615 371.139C472.788 371.139 472.015 371.085 471.316 370.988V372.836ZM490.76 369.012C490.76 372.02 492.543 375.436 495.615 376.854L494.283 378.744C492.092 377.713 490.47 375.629 489.6 373.201C488.719 375.865 487.021 378.143 484.787 379.217L483.391 377.348C486.484 375.887 488.354 372.234 488.375 369.012V367.379H484.143V365.402H494.82V367.379H490.76V369.012ZM499.01 363.49V371.053H501.996V373.051H499.01V382.912H496.625V363.49H499.01ZM519.699 365.531V367.4H515.682C515.725 369.076 517.261 370.569 520.129 371.139L519.184 372.986C516.96 372.524 515.381 371.482 514.521 370.086C513.673 371.611 512.083 372.761 509.795 373.244L508.785 371.396C511.696 370.827 513.243 369.184 513.275 367.4H509.279V365.531H513.297V363.533H515.682V365.531H519.699ZM524.275 363.512V382.891H521.912V363.512H524.275ZM508.055 374.254C511.664 374.254 516.498 374.232 520.645 373.717L520.816 375.436C519.141 375.726 517.4 375.908 515.703 376.016V382.311H513.297V376.145C511.524 376.22 509.838 376.23 508.355 376.23L508.055 374.254ZM545.008 366.52V368.475H542.365V370.688H545.008V372.643H542.365V375.887H539.98V363.49H542.365V366.52H545.008ZM536.092 376.059C540.066 376.059 542.58 377.326 542.58 379.475C542.58 381.602 540.066 382.891 536.092 382.891C532.053 382.891 529.582 381.602 529.604 379.475C529.582 377.326 532.053 376.059 536.092 376.059ZM536.092 377.885C533.428 377.885 531.945 378.4 531.967 379.475C531.945 380.506 533.428 381.086 536.092 381.086C538.713 381.086 540.195 380.506 540.195 379.475C540.195 378.4 538.713 377.885 536.092 377.885ZM538.584 365.467V367.336H527.068V365.467H531.645V363.361H534.029V365.467H538.584ZM532.826 368.109C535.641 368.109 537.553 369.506 537.574 371.59C537.553 373.674 535.641 375.049 532.826 375.049C529.99 375.049 528.057 373.674 528.057 371.59C528.057 369.506 529.99 368.109 532.826 368.109ZM532.826 369.871C531.344 369.871 530.377 370.516 530.377 371.59C530.377 372.643 531.344 373.244 532.826 373.244C534.309 373.244 535.297 372.643 535.297 371.59C535.297 370.516 534.309 369.871 532.826 369.871ZM554.891 363.791C559.316 363.791 561.873 364.973 561.895 367.121C561.873 369.291 559.316 370.451 554.891 370.473C550.465 370.451 547.887 369.291 547.887 367.121C547.887 364.973 550.465 363.791 554.891 363.791ZM554.891 365.553C551.926 365.553 550.379 366.111 550.4 367.121C550.379 368.195 551.926 368.689 554.891 368.689C557.898 368.689 559.424 368.195 559.424 367.121C559.424 366.111 557.898 365.553 554.891 365.553ZM563.764 371.504V373.416H546.061V371.504H563.764ZM561.551 374.727V379.475H550.508V380.914H562.088V382.74H548.166V377.777H559.209V376.488H548.145V374.727H561.551ZM581.832 365.359V367.25H570.316V365.359H574.893V363.404H577.277V365.359H581.832ZM576.074 368.002C578.889 368.002 580.801 369.42 580.822 371.547C580.801 373.674 578.889 375.092 576.074 375.092C573.26 375.092 571.305 373.674 571.305 371.547C571.305 369.42 573.26 368.002 576.074 368.002ZM576.074 369.807C574.592 369.807 573.625 370.451 573.625 371.547C573.625 372.643 574.592 373.266 576.074 373.244C577.557 373.266 578.545 372.643 578.545 371.547C578.545 370.451 577.557 369.807 576.074 369.807ZM585.613 363.49V368.646H588.32V370.602H585.613V375.65H583.229V363.49H585.613ZM585.613 376.553V382.912H583.229V378.465H572.68V376.553H585.613ZM593.799 375.135V376.982H602.35V375.135H604.734V382.676H591.436V375.135H593.799ZM593.799 380.785H602.35V378.809H593.799V380.785ZM607.012 372.084V374.039H589.309V372.084H607.012ZM599.385 364.436C599.385 366.52 602.049 368.711 606.066 369.184L605.229 371.074C601.974 370.634 599.406 369.194 598.16 367.229C596.903 369.205 594.325 370.634 591.092 371.074L590.211 369.184C594.271 368.689 596.914 366.584 596.936 364.436V363.705H599.385V364.436ZM623.533 363.49V371.225H626.52V373.201H623.533V382.912H621.17V363.49H623.533ZM619.666 366.477V368.389H608.215V366.477H612.812V363.77H615.197V366.477H619.666ZM614.016 369.656C616.809 369.656 618.893 371.547 618.893 374.232C618.893 376.918 616.809 378.787 614.016 378.787C611.18 378.787 609.096 376.918 609.117 374.232C609.096 371.547 611.18 369.656 614.016 369.656ZM614.016 371.611C612.49 371.611 611.395 372.643 611.395 374.232C611.395 375.822 612.49 376.832 614.016 376.811C615.498 376.832 616.594 375.822 616.615 374.232C616.594 372.643 615.498 371.611 614.016 371.611ZM643.062 368.99V370.881H629.613V364.199H631.977V368.99H643.062ZM645.061 373.137V375.027H627.314V373.137H645.061ZM643.191 380.527V382.461H629.441V376.746H631.826V380.527H643.191ZM654.342 381H651.355L656.834 365.445H660.271L665.771 381H662.785L661.496 377.154H655.631L654.342 381ZM656.383 374.898H660.744L658.617 368.625H658.488L656.383 374.898ZM670.412 365.445V381H667.619V365.445H670.412Z" fill="#333333"/>
<path d="M438.87 365.564C438.87 365.564 433.074 380.165 431.492 380.165C429.911 380.165 427.699 373.282 427.277 372.864C426.75 372.343 425.458 372.596 424.642 372.864C422.993 373.408 422.886 374.081 423.062 374.429C423.94 375.993 425.802 379.33 426.223 380.165C426.75 381.207 428.331 384.857 432.02 383.815C435.708 382.772 441.504 369.736 442.558 367.65C443.612 365.564 445.193 364 442.558 364C440.45 364 439.397 364.521 438.87 365.564Z" fill="#3A3869"/>
<path d="M516.598 170.49V189.912H514.32V180.008H512.129V188.924H509.938V170.855H512.129V178.096H514.32V170.49H516.598ZM507.746 172.789V174.723H502.891V183.359C505.007 183.338 506.747 183.23 508.713 182.865L508.885 184.82C506.543 185.293 504.502 185.357 501.795 185.379H500.484V172.789H507.746ZM534.258 170.49V178.504H536.986V180.502H534.258V189.912H531.852V170.49H534.258ZM518.66 184.52C520.132 184.52 521.84 184.52 523.623 184.477V182.65C521.507 182.296 520.121 180.964 520.143 179.148C520.121 176.957 522.055 175.496 524.848 175.496C527.598 175.496 529.553 176.957 529.574 179.148C529.553 180.975 528.146 182.307 526.029 182.65V184.391C527.662 184.305 529.295 184.176 530.82 183.961L530.971 185.701C526.803 186.453 522.312 186.496 519.004 186.496L518.66 184.52ZM530.605 172.725V174.615H519.025V172.725H523.623V170.576H526.029V172.725H530.605ZM524.848 177.322C523.365 177.344 522.398 178.01 522.398 179.148C522.398 180.266 523.365 180.932 524.848 180.91C526.309 180.932 527.275 180.266 527.275 179.148C527.275 178.01 526.309 177.344 524.848 177.322ZM559.352 170.49V189.912H556.945V170.49H559.352ZM553.551 172.553C553.551 178.332 551.316 183.252 544.506 186.475L543.26 184.562C548.341 182.146 550.704 178.858 551.123 174.443H544.248V172.553H553.551ZM577.463 170.512V176.119H580.17V178.096H577.463V184.799H575.078V170.512H577.463ZM578.236 187.592V189.525H565.023V183.359H567.408V187.592H578.236ZM565.174 171.887V174.852H569.707V171.887H572.07V181.641H562.811V171.887H565.174ZM565.174 179.75H569.707V176.699H565.174V179.75ZM604.082 182.156V184.111H596.391V189.934H594.027V184.111H586.379V182.156H604.082ZM602.428 172.789V174.68H596.434C596.659 176.603 599.184 178.611 603.072 179.084L602.191 180.975C598.979 180.566 596.487 179.148 595.23 177.279C593.952 179.17 591.438 180.566 588.205 180.975L587.346 179.084C591.224 178.611 593.77 176.635 594.006 174.68H588.012V172.789H594.027V170.512H596.391V172.789H602.428ZM612.375 175.088C612.375 177.408 613.986 179.643 617.059 180.588L615.898 182.457C613.696 181.791 612.106 180.384 611.215 178.59C610.355 180.523 608.755 182.049 606.488 182.779L605.328 180.91C608.379 179.943 609.99 177.58 609.99 175.088V174.787H605.93V172.896H609.99V170.619H612.396V172.896H616.436V174.787H612.375V175.088ZM621.656 170.512V184.928H619.271V178.203H615.791V176.291H619.271V170.512H621.656ZM622.15 187.592V189.525H608.916V183.682H611.301V187.592H622.15Z" fill="#333333"/>
<path d="M487.87 171.564C487.87 171.564 482.074 186.165 480.492 186.165C478.911 186.165 476.699 179.282 476.277 178.864C475.75 178.343 474.458 178.596 473.642 178.864C471.993 179.408 471.886 180.081 472.062 180.429C472.94 181.993 474.802 185.33 475.223 186.165C475.75 187.207 477.331 190.857 481.02 189.815C484.708 188.772 490.504 175.736 491.558 173.65C492.612 171.564 494.193 170 491.558 170C489.45 170 488.397 170.521 487.87 171.564Z" fill="#3A3869"/>
<defs>
<linearGradient id="paint0_linear_180_25473" x1="295" y1="278" x2="400" y2="278" gradientUnits="userSpaceOnUse">
<stop stop-color="#B5B5B5"/>
<stop offset="1" stop-color="#E6E6E6"/>
</linearGradient>
<linearGradient id="paint1_linear_180_25473" x1="295" y1="182" x2="400" y2="182" gradientUnits="userSpaceOnUse">
<stop stop-color="#B5B5B5"/>
<stop offset="1" stop-color="#E6E6E6"/>
</linearGradient>
<linearGradient id="paint2_linear_180_25473" x1="295" y1="375" x2="400" y2="375" gradientUnits="userSpaceOnUse">
<stop stop-color="#B5B5B5"/>
<stop offset="1" stop-color="#E6E6E6"/>
</linearGradient>
<linearGradient id="paint3_linear_180_25473" x1="75.5" y1="263.5" x2="58" y2="283.5" gradientUnits="userSpaceOnUse">
<stop stop-color="#E60000"/>
<stop offset="1" stop-color="#9A0000"/>
</linearGradient>
<linearGradient id="paint4_linear_180_25473" x1="106.5" y1="170.499" x2="89" y2="190.499" gradientUnits="userSpaceOnUse">
<stop stop-color="#E60000"/>
<stop offset="1" stop-color="#9A0000"/>
</linearGradient>
<linearGradient id="paint5_linear_180_25473" x1="67.5" y1="362.499" x2="50" y2="382.499" gradientUnits="userSpaceOnUse">
<stop stop-color="#E60000"/>
<stop offset="1" stop-color="#9A0000"/>
</linearGradient>
</defs>
</svg>
