<svg width="662" height="392" viewBox="0 0 662 392" fill="none" xmlns="http://www.w3.org/2000/svg">
<path d="M166.279 11.0352V37.7539H162.5V11.0352H166.279ZM151.807 12.9102C155.82 12.9102 158.809 16.6016 158.809 22.4023C158.809 28.2617 155.82 31.9238 151.807 31.9238C147.705 31.9238 144.717 28.2617 144.746 22.4023C144.717 16.6016 147.705 12.9102 151.807 12.9102ZM151.807 16.2793C149.727 16.2793 148.35 18.4473 148.35 22.4023C148.35 26.3867 149.727 28.5254 151.807 28.5254C153.828 28.5254 155.205 26.3867 155.205 22.4023C155.205 18.4473 153.828 16.2793 151.807 16.2793ZM183.008 12.8223V21.3184H174.629V24.2188C178.76 24.1895 181.66 24.0723 184.854 23.5742L185.146 26.5625C181.484 27.1191 178.203 27.207 173.105 27.207H170.879V18.4766H179.287V15.7812H170.85V12.8223H183.008ZM192.354 11.0645V30.6934H188.633V20.6152H184.355V17.4512H188.633V11.0645H192.354ZM193.027 34.2383V37.2266H174.512V29.082H178.232V34.2383H193.027ZM212.539 17.0703C212.51 21.8457 214.561 26.6797 218.838 28.7305L216.582 31.7188C213.726 30.3125 211.807 27.6758 210.693 24.4531C209.536 27.9102 207.471 30.7373 204.453 32.2168L202.139 29.1992C206.65 27.1191 208.789 22.0215 208.789 17.0703V13.0859H212.539V17.0703ZM223.76 11.0352V21.3184H227.686V24.4824H223.76V37.6953H220.01V11.0352H223.76ZM249.805 11.0645V17.3633H253.408V20.4688H249.805V26.8848H246.055V11.0645H249.805ZM249.805 27.998V37.4023H232.344V27.998H249.805ZM236.006 30.9277V34.4141H246.143V30.9277H236.006ZM241.836 12.3535V20.4688H233.34V22.8711C237.749 22.8418 240.737 22.6953 244.121 22.1094L244.531 25.0391C240.693 25.8008 237.266 25.918 231.875 25.918H229.619V17.6562H238.203V15.3418H229.59V12.3535H241.836ZM277.695 11.0352V37.6953H274.121V11.0352H277.695ZM272.129 11.416V36.4648H268.613V23.8672H266.475C266.123 29.1113 263.896 32.2754 260.615 32.2754C257.1 32.2754 254.814 28.584 254.814 22.5781C254.814 16.6016 257.1 12.9395 260.615 12.9395C263.823 12.9395 266.021 15.9277 266.445 20.9082H268.613V11.416H272.129ZM260.615 16.4551C259.121 16.4551 258.242 18.5059 258.271 22.5781C258.242 26.6797 259.121 28.7012 260.615 28.6719C262.139 28.7012 263.047 26.6797 263.047 22.5781C263.047 18.5059 262.139 16.4551 260.615 16.4551ZM303.623 11.0352V37.6953H300.107V11.0352H303.623ZM297.939 11.6211V36.5234H294.453V24.2773H290.088C288.564 27.3242 286.089 29.9609 282.295 32.1582L280.186 29.5215C285.562 26.3281 287.935 22.4463 288.447 17.2168H281.65V14.1992H292.168C292.153 16.7334 291.89 19.1211 291.26 21.3184H294.453V11.6211H297.939ZM337.666 27.002V30.0488H327.324V37.7246H323.633V30.0488H313.35V27.002H337.666ZM335.439 14.1113V17.041H327.441C327.866 19.3848 330.869 22.0215 336.377 22.6367L335.029 25.5664C330.518 25.0537 327.251 23.208 325.508 20.7617C323.779 23.2373 320.483 25.0537 315.928 25.5664L314.58 22.6367C320.088 22.0215 323.12 19.3994 323.574 17.041H315.547V14.1113H323.633V11.0645H327.324V14.1113H335.439ZM349.092 17.3047C349.092 20.293 351.055 23.3691 355.391 24.6875L353.604 27.5879C350.615 26.7383 348.506 24.9072 347.305 22.5781C346.118 25.0977 343.994 27.0752 340.918 28.0273L339.102 25.0977C343.438 23.8086 345.371 20.5566 345.371 17.3047V17.0996H340.01V14.1699H345.371V11.2109H349.15V14.1699H354.482V17.0996H349.092V17.3047ZM361.748 11.0645V30.8398H358.027V21.8457H353.604V18.8281H358.027V11.0645H361.748ZM362.393 34.2383V37.2266H344.053V29.1406H347.803V34.2383H362.393ZM378.066 15.1074V18.0664H365.176V15.1074H369.805V11.7676H373.496V15.1074H378.066ZM371.68 19.2676C375.078 19.2676 377.51 21.9043 377.539 25.5957C377.51 29.3164 375.078 31.9531 371.68 31.9531C368.281 31.9531 365.791 29.3164 365.791 25.5957C365.791 21.9043 368.281 19.2676 371.68 19.2676ZM371.68 22.373C370.127 22.373 369.072 23.5742 369.072 25.5957C369.072 27.6172 370.127 28.7891 371.68 28.7891C373.174 28.7891 374.229 27.6172 374.258 25.5957C374.229 23.5742 373.174 22.373 371.68 22.373ZM388.262 11.0352V37.6953H384.717V24.8633H382.549V36.5527H379.062V11.5625H382.549V21.875H384.717V11.0352H388.262ZM415.537 31.5137V34.5898H391.133V31.5137H396.582V24.9805C394.517 23.75 393.271 21.8604 393.271 19.502C393.271 15.1953 397.49 12.3242 403.291 12.3242C409.062 12.3242 413.311 15.1953 413.34 19.502C413.325 21.8018 412.109 23.6768 410.117 24.9219V31.5137H415.537ZM403.291 15.2832C399.482 15.2832 396.963 16.8066 396.963 19.502C396.963 22.1094 399.482 23.7207 403.291 23.7207C407.07 23.7207 409.619 22.1094 409.648 19.502C409.619 16.8066 407.07 15.2832 403.291 15.2832ZM400.273 31.5137H406.338V26.3281C405.386 26.5186 404.36 26.6211 403.291 26.6211C402.222 26.6211 401.211 26.5332 400.273 26.3281V31.5137ZM425.527 26.9141C425.527 21.4062 427.227 16.8359 430.039 12.8809H434.17C432.148 15.8105 430.039 21.6699 430.039 26.9141C430.039 32.1875 432.148 38.0469 434.17 40.9766H430.039C427.227 37.0215 425.527 32.4219 425.527 26.9141ZM441.406 35L435.342 13.7891H440.146L443.721 28.6133H443.896L447.793 13.7891H451.924L455.82 28.6426H455.996L459.57 13.7891H464.375L458.311 35H454.004L449.961 20.9961H449.785L445.713 35H441.406ZM470.879 25.8008V35H466.543V13.7891H470.762V21.875H470.938C471.67 20.0293 473.281 18.8867 475.684 18.8867C478.994 18.8867 481.191 21.1133 481.191 24.8633V35H476.855V25.625C476.855 23.6621 475.801 22.4902 473.984 22.4902C472.168 22.4902 470.879 23.6914 470.879 25.8008ZM491.68 35.3223C486.875 35.3223 483.887 32.0117 483.887 27.0898C483.887 22.168 486.875 18.8867 491.68 18.8867C496.484 18.8867 499.502 22.168 499.502 27.0898C499.502 32.0117 496.484 35.3223 491.68 35.3223ZM491.709 31.9531C493.936 31.9531 495.078 29.873 495.078 27.0898C495.078 24.2773 493.936 22.1973 491.709 22.1973C489.453 22.1973 488.281 24.2773 488.281 27.0898C488.281 29.873 489.453 31.9531 491.709 31.9531ZM509.492 26.9141C509.492 32.4219 507.793 37.0215 504.98 40.9766H500.85C502.871 38.0469 504.98 32.1875 504.98 26.9141C504.98 21.6699 502.871 15.8105 500.85 12.8809H504.98C507.793 16.8359 509.492 21.4062 509.492 26.9141Z" fill="#8CBC44"/>
<path d="M194.242 155.945V160.562H198.836V155.945H201.039V160.562H206.172V162.367H186.953V160.562H192.062V155.945H194.242ZM197.617 146.898C197.617 150.133 201.297 153.109 205.328 153.742L204.438 155.594C200.98 154.949 197.84 152.922 196.445 150.109C195.051 152.91 191.91 154.973 188.5 155.594L187.586 153.742C191.617 153.086 195.273 150.109 195.273 146.898V145.305H197.617V146.898ZM220.023 145.727V147.555H218.008V153.32C219.027 153.262 220.023 153.156 220.984 153.039L221.125 154.703C216.836 155.406 211.844 155.477 208.305 155.477L208.047 153.648L210.602 153.625V147.555H208.609V145.727H220.023ZM225.109 144.016V156.812H222.883V144.016H225.109ZM218.102 157.258C222.531 157.258 225.25 158.641 225.25 161.078C225.25 163.539 222.531 164.969 218.102 164.945C213.648 164.969 210.953 163.539 210.953 161.078C210.953 158.641 213.648 157.258 218.102 157.258ZM218.102 158.969C214.984 158.969 213.156 159.742 213.156 161.078C213.156 162.461 214.984 163.234 218.102 163.234C221.219 163.234 223.023 162.461 223.023 161.078C223.023 159.742 221.219 158.969 218.102 158.969ZM212.734 153.578C213.754 153.566 214.82 153.531 215.875 153.461V147.555H212.734V153.578ZM247.656 160.539V162.391H228.438V160.539H236.898V156.227H230.641V145.422H232.867V149.031H243.18V145.422H245.383V156.227H239.102V160.539H247.656ZM232.867 154.422H243.18V150.836H232.867V154.422ZM265.539 143.992V152.125H268.914V153.953H265.539V165.039H263.312V143.992H265.539ZM259.891 146.008V147.812H252.297V157.961C255.824 157.949 258.473 157.797 261.461 157.258L261.742 159.133C258.461 159.719 255.672 159.836 251.758 159.812H250.07V146.008H259.891ZM275.898 152.5L277.773 146.031H279.766L278.523 152.5H275.898ZM298.844 143.992V155.266H296.617V143.992H298.844ZM287.289 156.273V158.641H296.641V156.273H298.844V164.734H285.109V156.273H287.289ZM287.289 162.906H296.641V160.398H287.289V162.906ZM287.453 144.953C290.664 144.953 293.031 146.945 293.031 149.828C293.031 152.711 290.664 154.703 287.453 154.68C284.242 154.703 281.852 152.711 281.852 149.828C281.852 146.945 284.242 144.953 287.453 144.953ZM287.453 146.828C285.461 146.805 284.031 148.047 284.031 149.828C284.031 151.633 285.461 152.852 287.453 152.852C289.422 152.852 290.852 151.633 290.852 149.828C290.852 148.047 289.422 146.805 287.453 146.828ZM319.164 150.133V151.914H304.703V144.742H306.906V150.133H319.164ZM321.367 154.562V156.344H302.148V154.562H321.367ZM319.305 162.672V164.5H304.539V158.336H306.766V162.672H319.305ZM346.82 143.992V164.992H344.711V143.992H346.82ZM342.391 144.531V163.961H340.281V154.211H336.18C334.926 156.648 332.934 158.781 329.969 160.516L328.703 158.922C333.156 156.273 335.301 152.746 335.688 148.422H329.688V146.594H337.891C337.879 148.645 337.598 150.602 336.953 152.43H340.281V144.531H342.391ZM353.5 146.055L351.625 152.523H349.633L350.875 146.055H353.5ZM380.172 153.719V155.523H371.688V157.539C375.543 157.75 377.828 159.051 377.828 161.242C377.828 163.633 375.109 164.969 370.586 164.945C366.016 164.969 363.297 163.633 363.297 161.242C363.297 159.051 365.582 157.75 369.484 157.539V155.523H361.023V153.719H380.172ZM370.586 159.227C367.375 159.227 365.547 159.953 365.547 161.242C365.547 162.508 367.375 163.258 370.586 163.234C373.75 163.258 375.602 162.508 375.602 161.242C375.602 159.953 373.75 159.227 370.586 159.227ZM378.461 144.953V146.734H372.086C372.402 148.762 375.355 150.484 379.188 150.859L378.391 152.617C374.758 152.195 371.746 150.66 370.609 148.422C369.438 150.66 366.438 152.195 362.805 152.617L362.031 150.859C365.805 150.484 368.77 148.762 369.086 146.734H362.781V144.953H378.461ZM400.984 160.516V162.367H381.766V160.516H386.359V155.031C384.637 154.082 383.594 152.57 383.594 150.695C383.594 147.391 386.828 145.211 391.328 145.211C395.852 145.211 399.086 147.391 399.086 150.695C399.086 152.547 398.078 154.035 396.391 154.984V160.516H400.984ZM391.328 146.992C388.023 146.992 385.75 148.422 385.75 150.695C385.75 152.945 388.023 154.422 391.328 154.422C394.609 154.422 396.93 152.945 396.93 150.695C396.93 148.422 394.609 146.992 391.328 146.992ZM388.562 160.516H394.141V155.828C393.285 156.051 392.336 156.156 391.328 156.156C390.344 156.156 389.406 156.051 388.562 155.852V160.516ZM419.008 144.016V150.766H422.055V152.617H419.008V159.719H416.781V144.016H419.008ZM415.047 146.453V148.258H402.531V146.453H407.688V143.992H409.914V146.453H415.047ZM408.789 149.266C411.812 149.266 413.875 150.836 413.875 153.227C413.875 155.617 411.812 157.164 408.789 157.164C405.742 157.164 403.68 155.617 403.68 153.227C403.68 150.836 405.742 149.266 408.789 149.266ZM408.789 150.977C407.008 150.977 405.812 151.844 405.836 153.227C405.812 154.586 407.008 155.43 408.789 155.43C410.57 155.43 411.766 154.586 411.789 153.227C411.766 151.844 410.57 150.977 408.789 150.977ZM419.898 162.742V164.547H405.695V158.477H407.922V162.742H419.898ZM436.398 149.336C436.375 153.062 438.531 156.859 441.672 158.383L440.289 160.164C438.004 158.98 436.234 156.625 435.32 153.812C434.371 156.812 432.531 159.32 430.141 160.562L428.758 158.758C431.992 157.211 434.172 153.18 434.172 149.336V145.75H436.398V149.336ZM445.469 143.992V152.359H448.844V154.258H445.469V164.992H443.242V143.992H445.469ZM466.352 144.016V149.242H469.422V151.117H466.352V156.508H464.125V144.016H466.352ZM466.352 157.492V164.734H452.898V157.492H466.352ZM455.078 159.227V162.93H464.195V159.227H455.078ZM460.258 145.117V151.047H452.945V153.672C456.59 153.66 459.168 153.555 462.227 153.039L462.461 154.82C459.203 155.406 456.438 155.523 452.406 155.523H450.719V149.359H458.078V146.898H450.695V145.117H460.258Z" fill="black"/>
<circle cx="154.5" cy="153.5" r="11.5" fill="#8CBC44"/>
<path d="M155.997 159H154.479V150.612H154.425L152.066 152.157V150.715L154.521 149.102H155.997V159Z" fill="white"/>
<rect x="180" y="157" width="295" height="12" fill="#8CBC44" fill-opacity="0.28"/>
<path d="M206.391 227.234V229.039H187.242V227.234H195.703V225.359C191.754 225.148 189.305 223.695 189.305 221.398C189.305 218.867 192.211 217.414 196.805 217.414C201.422 217.414 204.305 218.867 204.305 221.398C204.305 223.707 201.855 225.16 197.859 225.359V227.234H206.391ZM197.93 230.891C197.93 233.539 200.883 235.602 204.961 236.164L204.094 237.898C200.824 237.395 198.082 235.953 196.805 233.773C195.527 235.953 192.785 237.395 189.516 237.898L188.672 236.164C192.703 235.602 195.68 233.539 195.68 230.891V230.305H197.93V230.891ZM196.805 219.125C193.57 219.125 191.578 219.969 191.602 221.398C191.578 222.852 193.57 223.648 196.805 223.648C200.016 223.648 202.008 222.852 202.008 221.398C202.008 219.969 200.016 219.125 196.805 219.125ZM231.258 216.992V228.266H229.031V216.992H231.258ZM219.703 229.273V231.641H229.055V229.273H231.258V237.734H217.523V229.273H219.703ZM219.703 235.906H229.055V233.398H219.703V235.906ZM219.867 217.953C223.078 217.953 225.445 219.945 225.445 222.828C225.445 225.711 223.078 227.703 219.867 227.68C216.656 227.703 214.266 225.711 214.266 222.828C214.266 219.945 216.656 217.953 219.867 217.953ZM219.867 219.828C217.875 219.805 216.445 221.047 216.445 222.828C216.445 224.633 217.875 225.852 219.867 225.852C221.836 225.852 223.266 224.633 223.266 222.828C223.266 221.047 221.836 219.805 219.867 219.828ZM251.578 223.133V224.914H237.117V217.742H239.32V223.133H251.578ZM253.781 227.562V229.344H234.562V227.562H253.781ZM251.719 235.672V237.5H236.953V231.336H239.18V235.672H251.719ZM279.234 216.992V237.992H277.078V216.992H279.234ZM274.898 217.438V236.938H272.789V226.742H268.477V224.891H272.789V217.438H274.898ZM269.906 219.5V221.328H264.117V231.195C266.871 231.172 268.723 231.055 270.891 230.586L271.078 232.461C268.664 232.953 266.602 233.047 263.32 233.047H261.938V219.5H269.906ZM295.5 222.336C295.477 226.18 297.797 230.023 301.055 231.477L299.719 233.234C297.305 232.086 295.395 229.73 294.422 226.859C293.438 229.93 291.504 232.473 288.984 233.703L287.625 231.828C290.93 230.352 293.25 226.344 293.25 222.336V218.75H295.5V222.336ZM305.18 216.992V238.039H302.953V216.992H305.18ZM325.031 216.992V223.203H328.078V225.055H325.031V232.25H322.781V216.992H325.031ZM319.336 218.586C319.336 224.094 315.586 228.102 309.445 229.953L308.508 228.172C313.418 226.695 316.477 223.906 316.922 220.438H309.398V218.586H319.336ZM325.898 235.742V237.547H311.695V230.68H313.945V235.742H325.898ZM341.648 221.234C341.648 223.215 342.598 225.688 344.719 227.141C346.805 225.711 347.766 223.273 347.766 221.234V218.609H350.016V221.234C349.992 223.789 351.375 226.414 354.188 227.586L352.969 229.25C350.953 228.371 349.594 226.73 348.867 224.773C348.164 226.789 346.828 228.57 344.695 229.508C342.551 228.57 341.191 226.719 340.5 224.703C339.762 226.637 338.402 228.348 336.422 229.25L335.227 227.586C337.969 226.367 339.398 223.578 339.422 221.234V218.609H341.648V221.234ZM354.328 233.398V235.227H335.133V233.398H354.328ZM373.336 216.992V237.992H371.086V216.992H373.336ZM367.078 219.242C367.078 225.383 364.453 230.727 357.258 234.172L356.086 232.367C361.676 229.707 364.395 225.922 364.828 221.023H357.094V219.242H367.078ZM391.781 228.945V233.984H387.234V236.047C389.461 236.035 390.785 235.953 392.438 235.648L392.648 237.289C390.703 237.688 389.18 237.734 386.273 237.734H385.125V232.414H389.648V230.609H385.102V228.945H391.781ZM401.344 229.789V231.43H392.414V229.789H395.766V228.008H397.922V229.789H401.344ZM396.797 232.156C398.906 232.156 400.453 233.305 400.453 235.086C400.453 236.867 398.906 237.969 396.797 237.969C394.688 237.969 393.164 236.867 393.164 235.086C393.164 233.305 394.688 232.156 396.797 232.156ZM396.797 233.727C395.742 233.727 395.062 234.195 395.062 235.086C395.062 235.953 395.742 236.422 396.797 236.422C397.828 236.422 398.578 235.953 398.578 235.086C398.578 234.195 397.828 233.727 396.797 233.727ZM399.867 216.992V227.469H397.664V216.992H399.867ZM390.117 219.195C390.094 221.914 392.18 224.352 395.367 225.336L394.289 227.094C391.828 226.32 389.977 224.691 389.016 222.594C388.066 224.879 386.18 226.684 383.625 227.539L382.523 225.805C385.805 224.727 387.844 222.078 387.844 219.195V217.602H390.117V219.195ZM422.367 227.961V229.742H403.219V227.961H422.367ZM420.211 235.742V237.547H405.633V231.453H407.883V235.742H420.211ZM412.781 217.695C417.328 217.672 420.281 219.266 420.281 221.891C420.281 224.539 417.328 226.133 412.781 226.156C408.211 226.133 405.281 224.539 405.281 221.891C405.281 219.266 408.211 217.672 412.781 217.695ZM412.781 219.477C409.57 219.477 407.555 220.391 407.578 221.891C407.555 223.438 409.57 224.328 412.781 224.328C415.992 224.328 417.984 223.438 417.984 221.891C417.984 220.391 415.992 219.477 412.781 219.477ZM437.109 222.336C437.086 226.062 439.242 229.859 442.383 231.383L441 233.164C438.715 231.98 436.945 229.625 436.031 226.812C435.082 229.812 433.242 232.32 430.852 233.562L429.469 231.758C432.703 230.211 434.883 226.18 434.883 222.336V218.75H437.109V222.336ZM446.18 216.992V225.359H449.555V227.258H446.18V237.992H443.953V216.992H446.18ZM467.062 217.016V222.242H470.133V224.117H467.062V229.508H464.836V217.016H467.062ZM467.062 230.492V237.734H453.609V230.492H467.062ZM455.789 232.227V235.93H464.906V232.227H455.789ZM460.969 218.117V224.047H453.656V226.672C457.301 226.66 459.879 226.555 462.938 226.039L463.172 227.82C459.914 228.406 457.148 228.523 453.117 228.523H451.43V222.359H458.789V219.898H451.406V218.117H460.969Z" fill="black"/>
<circle cx="154.5" cy="226.5" r="11.5" fill="#8CBC44"/>
<path d="M151.212 232V230.906L154.644 227.447C155.724 226.312 156.271 225.684 156.271 224.822C156.271 223.852 155.478 223.223 154.438 223.223C153.345 223.223 152.634 223.92 152.634 224.973H151.212C151.198 223.168 152.579 221.965 154.466 221.965C156.38 221.965 157.692 223.168 157.706 224.781C157.692 225.889 157.173 226.764 155.313 228.596L153.304 230.633V230.715H157.87V232H151.212Z" fill="white"/>
<rect x="180" y="231" width="295" height="12" fill="#8CBC44" fill-opacity="0.28"/>
<path d="M206.078 299.719V301.523H197.594V303.539C201.449 303.75 203.734 305.051 203.734 307.242C203.734 309.633 201.016 310.969 196.492 310.945C191.922 310.969 189.203 309.633 189.203 307.242C189.203 305.051 191.488 303.75 195.391 303.539V301.523H186.93V299.719H206.078ZM196.492 305.227C193.281 305.227 191.453 305.953 191.453 307.242C191.453 308.508 193.281 309.258 196.492 309.234C199.656 309.258 201.508 308.508 201.508 307.242C201.508 305.953 199.656 305.227 196.492 305.227ZM204.367 290.953V292.734H197.992C198.309 294.762 201.262 296.484 205.094 296.859L204.297 298.617C200.664 298.195 197.652 296.66 196.516 294.422C195.344 296.66 192.344 298.195 188.711 298.617L187.938 296.859C191.711 296.484 194.676 294.762 194.992 292.734H188.688V290.953H204.367ZM226.891 306.516V308.367H207.672V306.516H212.266V301.031C210.543 300.082 209.5 298.57 209.5 296.695C209.5 293.391 212.734 291.211 217.234 291.211C221.758 291.211 224.992 293.391 224.992 296.695C224.992 298.547 223.984 300.035 222.297 300.984V306.516H226.891ZM217.234 292.992C213.93 292.992 211.656 294.422 211.656 296.695C211.656 298.945 213.93 300.422 217.234 300.422C220.516 300.422 222.836 298.945 222.836 296.695C222.836 294.422 220.516 292.992 217.234 292.992ZM214.469 306.516H220.047V301.828C219.191 302.051 218.242 302.156 217.234 302.156C216.25 302.156 215.312 302.051 214.469 301.852V306.516ZM244.914 290.016V296.766H247.961V298.617H244.914V305.719H242.688V290.016H244.914ZM240.953 292.453V294.258H228.438V292.453H233.594V289.992H235.82V292.453H240.953ZM234.695 295.266C237.719 295.266 239.781 296.836 239.781 299.227C239.781 301.617 237.719 303.164 234.695 303.164C231.648 303.164 229.586 301.617 229.586 299.227C229.586 296.836 231.648 295.266 234.695 295.266ZM234.695 296.977C232.914 296.977 231.719 297.844 231.742 299.227C231.719 300.586 232.914 301.43 234.695 301.43C236.477 301.43 237.672 300.586 237.695 299.227C237.672 297.844 236.477 296.977 234.695 296.977ZM245.805 308.742V310.547H231.602V304.477H233.828V308.742H245.805ZM271.516 289.992V294.211H274.562V296.086H271.516V300.516H269.289V289.992H271.516ZM258.203 290.93V297.773C261.027 297.75 264.004 297.527 267.227 296.883L267.508 298.734C263.969 299.438 260.781 299.648 257.688 299.648H255.977V290.93H258.203ZM271.516 301.477V306.82H260.195V308.93H272.242V310.734H257.992V305.109H269.289V303.234H257.945V301.477H271.516ZM299.008 289.992V300.797H296.805V289.992H299.008ZM299.031 301.805V307.055H287.453V309H299.734V310.781H285.297V305.367H296.828V303.562H285.227V301.805H299.031ZM289.258 292.172C289.234 294.984 291.273 297.539 294.484 298.547L293.383 300.281C290.934 299.484 289.094 297.82 288.156 295.688C287.195 297.984 285.32 299.812 282.812 300.68L281.688 298.922C284.969 297.82 286.984 295.078 286.984 292.172V290.555H289.258V292.172ZM313.117 291.844C313.094 294.633 316.516 297.258 320.641 297.797L319.773 299.625C316.34 299.074 313.316 297.293 311.969 294.82C310.586 297.305 307.574 299.074 304.164 299.625L303.273 297.797C307.398 297.258 310.773 294.656 310.797 291.844V290.695H313.117V291.844ZM321.508 301.688V303.516H312.977V310.992H310.797V303.516H302.359V301.688H321.508ZM339.461 289.992V298.5H342.836V300.352H339.461V310.992H337.258V289.992H339.461ZM335.43 293.273V295.102H322.984V293.273H328.164V290.273H330.391V293.273H335.43ZM329.289 296.648C332.289 296.648 334.492 298.664 334.516 301.523C334.492 304.406 332.289 306.398 329.289 306.422C326.266 306.398 324.062 304.406 324.062 301.523C324.062 298.664 326.266 296.648 329.289 296.648ZM329.289 298.477C327.508 298.477 326.172 299.719 326.195 301.523C326.172 303.352 327.508 304.57 329.289 304.547C331.07 304.57 332.383 303.352 332.383 301.523C332.383 299.719 331.07 298.477 329.289 298.477ZM360.836 292.008V294.07C360.836 296.672 360.836 299.578 360.039 303.867L357.789 303.633C358.609 299.578 358.609 296.602 358.609 294.07V293.812H345.859V292.008H360.836ZM362.992 306.305V308.156H343.844V306.305H351.133V298.898H353.336V306.305H362.992ZM387.859 290.016V301.664H385.633V290.016H387.859ZM378.086 292.805C378.062 295.594 380.102 298.148 383.312 299.133L382.234 300.891C379.762 300.094 377.922 298.441 376.961 296.297C376.012 298.605 374.137 300.422 371.617 301.266L370.516 299.508C373.797 298.43 375.812 295.711 375.812 292.805V290.766H378.086V292.805ZM388 302.812V304.594H385.234V308.93H388.211V310.734H373.586V308.93H376.586V304.594H373.773V302.812H388ZM378.789 308.93H383.031V304.594H378.789V308.93ZM398.922 296.18C398.922 299.695 401.219 303.328 404.453 304.711L403.234 306.445C400.762 305.355 398.793 303.047 397.82 300.234C396.848 303.234 394.867 305.789 392.43 306.984L391.141 305.227C394.305 303.75 396.648 299.789 396.672 296.18V293.953H391.867V292.102H403.703V293.953H398.922V296.18ZM408.578 289.992V310.992H406.352V289.992H408.578ZM423.625 291.117C426.812 291.117 429.133 293.156 429.133 295.992C429.133 298.852 426.812 300.867 423.625 300.867C420.461 300.867 418.094 298.852 418.117 295.992C418.094 293.156 420.461 291.117 423.625 291.117ZM423.625 292.969C421.727 292.969 420.273 294.211 420.273 295.992C420.273 297.773 421.727 299.039 423.625 299.039C425.547 299.039 426.977 297.773 426.977 295.992C426.977 294.211 425.547 292.969 423.625 292.969ZM434.289 289.992V294.586H437.336V296.438H434.289V300.445H432.062V289.992H434.289ZM422.078 302.625V308.602C423.309 308.543 424.727 308.367 426.062 307.922L426.391 309.68C424.445 310.336 422.547 310.43 420.977 310.43H419.898V302.625H422.078ZM436.258 302.695V304.406H425.664V302.695H429.906V300.984H432.086V302.695H436.258ZM430.961 305.016C433.281 305.016 434.922 306.188 434.922 308.016C434.922 309.82 433.281 310.969 430.961 310.945C428.594 310.969 426.977 309.82 427 308.016C426.977 306.188 428.594 305.016 430.961 305.016ZM430.961 306.609C429.789 306.609 428.969 307.148 428.969 308.016C428.969 308.859 429.789 309.398 430.961 309.398C432.109 309.398 432.93 308.859 432.93 308.016C432.93 307.148 432.109 306.609 430.961 306.609ZM457.68 300.961V302.742H438.531V300.961H457.68ZM455.523 308.742V310.547H440.945V304.453H443.195V308.742H455.523ZM448.094 290.695C452.641 290.672 455.594 292.266 455.594 294.891C455.594 297.539 452.641 299.133 448.094 299.156C443.523 299.133 440.594 297.539 440.594 294.891C440.594 292.266 443.523 290.672 448.094 290.695ZM448.094 292.477C444.883 292.477 442.867 293.391 442.891 294.891C442.867 296.438 444.883 297.328 448.094 297.328C451.305 297.328 453.297 296.438 453.297 294.891C453.297 293.391 451.305 292.477 448.094 292.477ZM472.422 295.336C472.398 299.062 474.555 302.859 477.695 304.383L476.312 306.164C474.027 304.98 472.258 302.625 471.344 299.812C470.395 302.812 468.555 305.32 466.164 306.562L464.781 304.758C468.016 303.211 470.195 299.18 470.195 295.336V291.75H472.422V295.336ZM481.492 289.992V298.359H484.867V300.258H481.492V310.992H479.266V289.992H481.492ZM502.375 290.016V295.242H505.445V297.117H502.375V302.508H500.148V290.016H502.375ZM502.375 303.492V310.734H488.922V303.492H502.375ZM491.102 305.227V308.93H500.219V305.227H491.102ZM496.281 291.117V297.047H488.969V299.672C492.613 299.66 495.191 299.555 498.25 299.039L498.484 300.82C495.227 301.406 492.461 301.523 488.43 301.523H486.742V295.359H494.102V292.898H486.719V291.117H496.281Z" fill="black"/>
<circle cx="154.5" cy="299.5" r="11.5" fill="#8CBC44"/>
<path d="M154.521 305.137C152.47 305.137 151.007 304.029 150.952 302.416H152.483C152.538 303.291 153.399 303.838 154.507 303.838C155.696 303.838 156.571 303.182 156.571 302.225C156.571 301.254 155.751 300.543 154.343 300.543H153.495V299.312H154.343C155.464 299.312 156.257 298.684 156.257 297.74C156.257 296.838 155.587 296.223 154.534 296.223C153.536 296.223 152.661 296.77 152.62 297.672H151.171C151.212 296.059 152.702 294.965 154.548 294.965C156.489 294.965 157.72 296.195 157.706 297.658C157.72 298.779 157.022 299.6 155.956 299.859V299.928C157.31 300.119 158.089 301.021 158.089 302.279C158.089 303.934 156.571 305.137 154.521 305.137Z" fill="white"/>
<rect x="180" y="303" width="330" height="12" fill="#8CBC44" fill-opacity="0.28"/>
<path d="M205.164 362.992V383.992H203.031V373.234H200.336V382.914H198.25V363.414H200.336V371.406H203.031V362.992H205.164ZM190.398 365.477V376.68C192.344 376.668 194.465 376.516 196.844 376.047L197.078 377.992C194.195 378.508 191.781 378.648 189.531 378.648H188.172V365.477H190.398ZM224.453 365.969C224.453 369.391 228.109 372.625 232.141 373.352L231.109 375.203C227.758 374.477 224.664 372.273 223.305 369.32C221.922 372.25 218.84 374.453 215.477 375.203L214.492 373.352C218.477 372.602 222.109 369.391 222.109 365.969V364.375H224.453V365.969ZM233.008 379.375V381.227H213.789V379.375H233.008ZM245.312 364.844V366.672H237.672V370.727H244.891V372.508H237.672V377.219C241.176 377.207 243.766 377.055 246.812 376.562L247.023 378.367C243.789 378.906 240.977 379.023 237.109 379.023H235.422V364.844H245.312ZM250.891 362.992V371.266H254.266V373.141H250.891V383.992H248.664V362.992H250.891ZM261.227 363.695C264.391 363.719 266.711 365.664 266.734 368.406C266.711 371.172 264.391 373.094 261.227 373.094C258.039 373.094 255.695 371.172 255.695 368.406C255.695 365.664 258.039 363.719 261.227 363.695ZM261.227 365.57C259.281 365.547 257.852 366.695 257.875 368.406C257.852 370.141 259.281 371.289 261.227 371.289C263.148 371.289 264.578 370.141 264.578 368.406C264.578 366.695 263.148 365.547 261.227 365.57ZM272.688 362.992V373.68H270.461V362.992H272.688ZM272.688 374.641V379.938H261.109V381.953H273.391V383.734H258.953V378.273H270.484V376.422H258.883V374.641H272.688ZM285.578 363.344C290.312 363.344 293.078 364.609 293.078 366.953C293.078 369.297 290.312 370.586 285.578 370.586C280.844 370.586 278.078 369.297 278.078 366.953C278.078 364.609 280.844 363.344 285.578 363.344ZM285.578 364.984C282.227 364.984 280.375 365.711 280.398 366.953C280.375 368.242 282.227 368.922 285.578 368.922C288.93 368.922 290.781 368.242 290.781 366.953C290.781 365.711 288.93 364.984 285.578 364.984ZM295.164 371.875V373.656H276.016V371.875H295.164ZM292.75 375.273V380.195H280.516V382.07H293.336V383.781H278.336V378.578H290.547V376.938H278.312V375.273H292.75ZM319.117 362.992V367.375H322.164V369.227H319.117V373.609H316.891V362.992H319.117ZM313.258 364.117V372.625H303.438V364.117H313.258ZM305.617 365.898V370.844H311.078V365.898H305.617ZM319.117 374.57V379.891H307.773V381.953H319.844V383.734H305.594V378.227H316.914V376.305H305.547V374.57H319.117ZM342.578 379.609V381.484H323.359V379.609H331.82V375.93H325.703V369.25H338.031V366.297H325.656V364.469H340.234V371.031H327.906V374.102H340.727V375.93H334.023V379.609H342.578ZM367.469 362.992V373.797H365.242V368.406H360.812V366.602H365.242V362.992H367.469ZM367.469 374.781V380.008H355.961V381.953H368.195V383.734H353.781V378.32H365.266V376.539H353.734V374.781H367.469ZM357.344 365.5C357.344 368.172 359.266 370.656 362.43 371.664L361.258 373.398C358.949 372.602 357.203 371.02 356.289 369.016C355.363 371.266 353.559 373.035 351.086 373.891L349.891 372.109C353.172 371.055 355.117 368.453 355.141 365.5V363.672H357.344V365.5ZM388.211 362.992V375.391H385.984V372.273H381.414V373.984H371.664V364.562H381.414V366.297H385.984V362.992H388.211ZM373.867 366.344V372.203H379.234V366.344H373.867ZM381.18 375.977C385.586 375.977 388.281 377.43 388.281 379.984C388.281 382.516 385.586 383.969 381.18 383.945C376.773 383.969 374.055 382.516 374.078 379.984C374.055 377.43 376.773 375.977 381.18 375.977ZM381.18 377.688C378.109 377.711 376.281 378.508 376.281 379.984C376.281 381.391 378.109 382.234 381.18 382.234C384.25 382.234 386.078 381.391 386.078 379.984C386.078 378.508 384.25 377.711 381.18 377.688ZM381.414 370.469H385.984V368.078H381.414V370.469ZM407.805 362.992V371.5H411.18V373.352H407.805V383.992H405.602V362.992H407.805ZM403.773 366.273V368.102H391.328V366.273H396.508V363.273H398.734V366.273H403.773ZM397.633 369.648C400.633 369.648 402.836 371.664 402.859 374.523C402.836 377.406 400.633 379.398 397.633 379.422C394.609 379.398 392.406 377.406 392.406 374.523C392.406 371.664 394.609 369.648 397.633 369.648ZM397.633 371.477C395.852 371.477 394.516 372.719 394.539 374.523C394.516 376.352 395.852 377.57 397.633 377.547C399.414 377.57 400.727 376.352 400.727 374.523C400.727 372.719 399.414 371.477 397.633 371.477ZM429.648 362.992V383.992H427.398V362.992H429.648ZM423.391 365.242C423.391 371.383 420.766 376.727 413.57 380.172L412.398 378.367C417.988 375.707 420.707 371.922 421.141 367.023H413.406V365.242H423.391ZM444.484 364.562C447.332 364.562 449.418 366.977 449.758 370.867H454.094V362.992H456.297V384.039H454.094V372.672H449.781C449.535 376.762 447.402 379.305 444.484 379.305C441.344 379.305 439.141 376.445 439.164 371.922C439.141 367.422 441.344 364.562 444.484 364.562ZM444.484 366.555C442.586 366.555 441.273 368.617 441.273 371.922C441.273 375.25 442.586 377.312 444.484 377.312C446.383 377.312 447.695 375.25 447.695 371.922C447.695 368.617 446.383 366.555 444.484 366.555ZM477.016 362.992V384.039H474.812V375.25H470.711V373.398H474.812V369.508H470.828V367.68H474.812V362.992H477.016ZM469.562 364.844V372.508H462.531V377.336C465.508 377.324 467.992 377.184 470.992 376.75L471.18 378.578C467.898 379.094 465.227 379.188 461.898 379.188H460.305V370.75H467.383V366.648H460.258V364.844H469.562ZM499.469 373.516V375.32H491.148V379.398H488.898V375.32H480.25V373.516H499.469ZM497.336 381.719V383.547H482.664V377.383H484.891V381.719H497.336ZM489.836 363.484C494.359 363.484 497.289 365.125 497.289 367.75C497.289 370.375 494.359 371.992 489.836 371.992C485.336 371.992 482.359 370.375 482.359 367.75C482.359 365.125 485.336 363.484 489.836 363.484ZM489.836 365.266C486.766 365.266 484.727 366.203 484.75 367.75C484.727 369.273 486.766 370.188 489.836 370.188C492.93 370.188 494.945 369.273 494.945 367.75C494.945 366.203 492.93 365.266 489.836 365.266ZM514.164 368.336C514.141 372.062 516.297 375.859 519.438 377.383L518.055 379.164C515.77 377.98 514 375.625 513.086 372.812C512.137 375.812 510.297 378.32 507.906 379.562L506.523 377.758C509.758 376.211 511.938 372.18 511.938 368.336V364.75H514.164V368.336ZM523.234 362.992V371.359H526.609V373.258H523.234V383.992H521.008V362.992H523.234ZM544.117 363.016V368.242H547.188V370.117H544.117V375.508H541.891V363.016H544.117ZM544.117 376.492V383.734H530.664V376.492H544.117ZM532.844 378.227V381.93H541.961V378.227H532.844ZM538.023 364.117V370.047H530.711V372.672C534.355 372.66 536.934 372.555 539.992 372.039L540.227 373.82C536.969 374.406 534.203 374.523 530.172 374.523H528.484V368.359H535.844V365.898H528.461V364.117H538.023Z" fill="black"/>
<circle cx="154.5" cy="372.5" r="11.5" fill="#8CBC44"/>
<path d="M150.713 376.072V374.855L155.088 368.102H156.947V374.801H158.301V376.072H156.947V378H155.525V376.072H150.713ZM152.299 374.801H155.525V369.893H155.416L152.299 374.719V374.801Z" fill="white"/>
<rect x="180" y="376" width="373" height="12" fill="#8CBC44" fill-opacity="0.28"/>
<path d="M2.73185 67.308C2.07185 67.308 1.55852 67.0953 1.19185 66.67C0.839852 66.2447 0.656518 65.724 0.641852 65.108C0.627185 64.228 0.847185 63.4653 1.30185 62.82C1.75652 62.1747 2.40185 61.7053 3.23785 61.412C3.42852 61.3533 3.58985 61.3607 3.72185 61.434C3.86852 61.5073 3.97118 61.61 4.02985 61.742C4.08852 61.874 4.09585 62.0133 4.05185 62.16C4.02252 62.292 3.93452 62.3947 3.78785 62.468C3.64119 62.5413 3.46519 62.6513 3.25985 62.798C3.05452 62.93 2.91518 63.0913 2.84185 63.282C2.79785 63.3847 2.79052 63.4727 2.81985 63.546C2.86385 63.6047 2.92985 63.634 3.01785 63.634C3.25252 63.6487 3.47252 63.7 3.67785 63.788C3.89785 63.8613 4.08852 63.9713 4.24985 64.118C4.41119 64.2647 4.53585 64.448 4.62385 64.668C4.72652 64.8733 4.77785 65.1153 4.77785 65.394C4.77785 65.6727 4.71919 65.9293 4.60185 66.164C4.49919 66.3987 4.35252 66.604 4.16185 66.78C3.98585 66.9413 3.77319 67.0733 3.52385 67.176C3.27452 67.264 3.01052 67.308 2.73185 67.308ZM7.35185 67.308C6.69185 67.308 6.17852 67.0953 5.81185 66.67C5.45985 66.2447 5.27652 65.724 5.26185 65.108C5.24719 64.228 5.46719 63.4653 5.92185 62.82C6.37652 62.1747 7.02185 61.7053 7.85785 61.412C8.04852 61.3533 8.20985 61.3607 8.34185 61.434C8.48852 61.5073 8.59119 61.61 8.64985 61.742C8.70852 61.874 8.71585 62.0133 8.67185 62.16C8.64252 62.292 8.55452 62.3947 8.40785 62.468C8.26119 62.5413 8.08519 62.6513 7.87985 62.798C7.67452 62.93 7.53519 63.0913 7.46185 63.282C7.41785 63.3847 7.41052 63.4727 7.43985 63.546C7.48385 63.6047 7.54985 63.634 7.63785 63.634C7.87252 63.6487 8.09252 63.7 8.29785 63.788C8.51785 63.8613 8.70852 63.9713 8.86985 64.118C9.03119 64.2647 9.15585 64.448 9.24385 64.668C9.34652 64.8733 9.39785 65.1153 9.39785 65.394C9.39785 65.6727 9.33919 65.9293 9.22185 66.164C9.11919 66.3987 8.97252 66.604 8.78185 66.78C8.60585 66.9413 8.39319 67.0733 8.14385 67.176C7.89452 67.264 7.63052 67.308 7.35185 67.308Z" fill="#8CBC44"/>
<path d="M653.676 67.264C653.544 67.176 653.449 67.066 653.39 66.934C653.331 66.802 653.317 66.67 653.346 66.538C653.39 66.3913 653.485 66.2813 653.632 66.208C653.779 66.1347 653.955 66.032 654.16 65.9C654.365 65.7533 654.505 65.5847 654.578 65.394C654.622 65.2913 654.622 65.2107 654.578 65.152C654.549 65.0787 654.49 65.042 654.402 65.042C654.167 65.0273 653.94 64.9833 653.72 64.91C653.515 64.822 653.331 64.7047 653.17 64.558C653.009 64.4113 652.877 64.2353 652.774 64.03C652.686 63.81 652.642 63.5607 652.642 63.282C652.657 62.7393 652.862 62.2847 653.258 61.918C653.654 61.5513 654.131 61.368 654.688 61.368C655.348 61.368 655.854 61.5807 656.206 62.006C656.573 62.4313 656.763 62.952 656.778 63.568C656.793 64.448 656.573 65.2107 656.118 65.856C655.663 66.5013 655.018 66.9707 654.182 67.264C653.977 67.3373 653.808 67.3373 653.676 67.264ZM658.296 67.264C658.164 67.176 658.069 67.066 658.01 66.934C657.951 66.802 657.937 66.67 657.966 66.538C658.01 66.3913 658.105 66.2813 658.252 66.208C658.399 66.1347 658.575 66.032 658.78 65.9C658.985 65.7533 659.125 65.5847 659.198 65.394C659.242 65.2913 659.242 65.2107 659.198 65.152C659.169 65.0787 659.11 65.042 659.022 65.042C658.787 65.0273 658.56 64.9833 658.34 64.91C658.135 64.822 657.951 64.7047 657.79 64.558C657.629 64.4113 657.497 64.2353 657.394 64.03C657.306 63.81 657.262 63.5607 657.262 63.282C657.277 62.7393 657.482 62.2847 657.878 61.918C658.274 61.5513 658.751 61.368 659.308 61.368C659.968 61.368 660.474 61.5807 660.826 62.006C661.193 62.4313 661.383 62.952 661.398 63.568C661.413 64.448 661.193 65.2107 660.738 65.856C660.283 66.5013 659.638 66.9707 658.802 67.264C658.597 67.3373 658.428 67.3373 658.296 67.264Z" fill="#8CBC44"/>
<path d="M26.8965 63.8789V65.168H20.4707V74.0156C23.5957 74.0156 25.666 73.9082 28.0684 73.4492L28.2637 74.7188C25.7051 75.207 23.5957 75.3242 20.2559 75.3242H18.9277V63.8789H26.8965ZM32.4629 62.2188V79.6211H30.9199V69.8164H25.8613V68.5469H30.9199V62.2188H32.4629ZM46.2324 64.9727C46.2129 67.043 48.0098 68.918 50.5684 69.6797L49.8457 70.8711C47.834 70.2754 46.2617 68.9961 45.4902 67.3555C44.748 69.2207 43.1074 70.6562 40.9785 71.3203L40.2168 70.1289C42.834 69.3086 44.6699 67.2773 44.6895 65.0117V64.4648H40.7441V63.2148H50.0996V64.4648H46.2324V64.9727ZM53.9277 62.2188V66.0273H56.5449V67.2969H53.9277V71.1836H52.4043V62.2188H53.9277ZM53.9277 71.9844V76.1445H44.3965V78.2148H54.5723V79.4258H42.8926V75.0117H52.4043V73.2148H42.8535V71.9844H53.9277ZM76.9941 62.2188V71.5352H75.4707V62.2188H76.9941ZM67.2676 72.4141V74.5234H75.4707V72.4141H76.9941V79.3477H65.7441V72.4141H67.2676ZM67.2676 78.0977H75.4707V75.7539H67.2676V78.0977ZM67.6191 63.0781C70.2559 63.0586 72.1699 64.6797 72.1699 67.0625C72.1699 69.4258 70.2559 71.0469 67.6191 71.0469C64.9824 71.0469 63.0684 69.4258 63.0684 67.0625C63.0684 64.6797 64.9824 63.0586 67.6191 63.0781ZM67.6191 64.3672C65.8418 64.3477 64.5527 65.4805 64.5723 67.0625C64.5527 68.6445 65.8418 69.7773 67.6191 69.7773C69.377 69.7773 70.666 68.6445 70.666 67.0625C70.666 65.4805 69.377 64.3477 67.6191 64.3672ZM93.8691 63.9766V65.7148C93.8496 67.8438 93.8496 70.2266 93.2246 73.7227L91.6621 73.5469C92.3262 70.2266 92.3262 67.7852 92.3262 65.7148V65.2461H81.623V63.9766H93.8691ZM95.7637 75.8516V77.1211H79.9434V75.8516H86.1543V69.6406H87.6582V75.8516H95.7637ZM116.584 62.2383V71.8867H115.061V62.2383H116.584ZM108.4 64.582C108.381 66.9844 110.256 69.1523 112.834 69.9922L112.092 71.2031C110.041 70.5098 108.42 69.0645 107.639 67.1797C106.857 69.2012 105.217 70.7832 103.146 71.5156L102.365 70.3047C104.982 69.3867 106.838 67.1016 106.838 64.582V62.8828H108.4V64.582ZM116.701 72.9219V74.1719H114.299V78.0977H116.877V79.3477H104.865V78.0977H107.463V74.1719H105.021V72.9219H116.701ZM108.967 78.0977H112.775V74.1719H108.967V78.0977ZM135.354 71.3789V72.6289H119.533V71.3789H135.354ZM133.596 77.9219V79.2109H121.584V74.1523H123.127V77.9219H133.596ZM127.443 62.8438C131.174 62.8242 133.576 64.1133 133.576 66.2812C133.576 68.4492 131.174 69.7383 127.443 69.7383C123.674 69.7383 121.291 68.4492 121.291 66.2812C121.291 64.1133 123.674 62.8242 127.443 62.8438ZM127.443 64.0742C124.65 64.0742 122.854 64.9141 122.873 66.2812C122.854 67.6484 124.65 68.4883 127.443 68.4883C130.217 68.4883 132.014 67.6484 132.014 66.2812C132.014 64.9141 130.217 64.0742 127.443 64.0742ZM151.682 62.2188V79.582H150.197V62.2188H151.682ZM148.127 62.6484V78.6836H146.662V70.1484H142.873V68.8594H146.662V62.6484H148.127ZM144.045 64.3672V65.6367H138.986V74.1133C141.486 74.1035 143.068 73.9961 144.943 73.5859L145.1 74.8945C143.088 75.3047 141.389 75.3828 138.596 75.4023H137.502V64.3672H144.045ZM163.791 63.5664C166.154 63.5859 167.854 65.6074 168.107 68.8594H171.994V62.2188H173.518V79.6211H171.994V70.1289H168.127C167.941 73.5273 166.213 75.6562 163.791 75.6562C161.232 75.6562 159.436 73.3125 159.436 69.6211C159.436 65.9297 161.232 63.5859 163.791 63.5664ZM163.791 64.9336C162.072 64.9531 160.9 66.7891 160.9 69.6211C160.9 72.4531 162.072 74.2891 163.791 74.2891C165.49 74.2891 166.682 72.4531 166.682 69.6211C166.682 66.7891 165.49 64.9531 163.791 64.9336ZM190.725 62.2188V79.6211H189.182V62.2188H190.725ZM185.803 63.8789V65.168H179.084V73.9766C182.463 73.9766 184.689 73.8691 187.287 73.4102L187.443 74.6992C184.748 75.1875 182.463 75.2852 178.947 75.3047H177.541V63.8789H185.803ZM199.807 66.8867C199.807 70.0312 201.818 73.1953 204.338 74.3477L203.42 75.5977C201.447 74.582 199.816 72.502 199.045 70.0312C198.273 72.6289 196.643 74.8555 194.67 75.9102L193.674 74.6797C196.213 73.4297 198.244 70.0898 198.244 66.8867V63.7227H199.807V66.8867ZM208.088 62.2188V79.6211H206.564V69.4062H202.443V68.1562H206.564V62.2188H208.088ZM226.857 72.5312V73.7812H219.611V79.582H218.107V73.7812H210.959V72.5312H226.857ZM214.514 62.9414V65.3438H223.264V62.9414H224.807V70.4219H212.99V62.9414H214.514ZM214.514 69.1719H223.264V66.5938H214.514V69.1719ZM242.658 62.2188V79.6211H241.135V70.0508H237.463V68.7812H241.135V62.2188H242.658ZM237.17 63.8203V65.0898H230.607V68.7031H236.408V69.9531H230.607V74.1523C233.801 74.1523 235.832 74.0449 238.225 73.625L238.4 74.8945C235.881 75.3047 233.752 75.4219 230.393 75.4219H229.064V63.8203H237.17ZM264.006 62.2188V69.0547H266.916V70.3828H264.006V79.582H262.482V62.2188H264.006ZM252.814 63.7031V68.293H257.893V63.7031H259.416V75.4219H251.291V63.7031H252.814ZM252.814 74.1328H257.893V69.5234H252.814V74.1328ZM282.229 62.2383V79.6211H280.666V74.4648H276.643V73.2344H280.666V62.2383H282.229ZM267.6 70.4023C268.654 70.3926 269.787 70.3828 270.979 70.3633C271.584 67.9512 271.633 66.2129 271.643 64.9727H268.732V63.6836H273.127V64.6211C273.107 65.832 273.107 67.7363 272.502 70.3242C273.713 70.2949 274.943 70.2461 276.174 70.168C276.701 67.873 276.74 66.2227 276.74 64.9727H273.986V63.6836H278.244V64.7383C278.225 65.9688 278.225 67.707 277.736 70.0703C278.312 70.0215 278.889 69.9727 279.455 69.9141L279.533 71.0469C277.844 71.291 276.076 71.4473 274.338 71.5352V78.8398H272.795V71.6133C271.037 71.6816 269.348 71.7012 267.834 71.6914L267.6 70.4023ZM289.787 63.5664C292.346 63.5859 294.162 65.9297 294.182 69.6211C294.162 73.3125 292.346 75.6562 289.787 75.6562C287.209 75.6562 285.412 73.3125 285.412 69.6211C285.412 65.9297 287.209 63.5859 289.787 63.5664ZM289.787 64.9336C288.068 64.9531 286.857 66.7891 286.857 69.6211C286.857 72.4531 288.068 74.2891 289.787 74.2891C291.525 74.2891 292.697 72.4531 292.697 69.6211C292.697 66.7891 291.525 64.9531 289.787 64.9336ZM301.389 66.5938V67.9023H298.576V71.7695H301.389V73.0586H298.576V79.582H297.053V62.2188H298.576V66.5938H301.389ZM321.018 62.1602V66.3789H323.654V67.6484H321.018V71.7695H319.494V62.1602H321.018ZM321.018 72.668V76.5156H311.486V78.2148H321.662V79.3867H309.982V75.3828H319.494V73.8203H309.943V72.668H321.018ZM317.834 63.8008V65.0312H307.482V63.8008H311.896V62.043H313.42V63.8008H317.834ZM312.658 65.8125C315.178 65.8125 316.818 66.9062 316.838 68.6641C316.818 70.4219 315.178 71.5156 312.658 71.5156C310.119 71.5156 308.459 70.4219 308.479 68.6641C308.459 66.9062 310.119 65.8125 312.658 65.8125ZM312.658 66.9453C311.018 66.9453 309.924 67.6289 309.943 68.6641C309.924 69.7188 311.018 70.3633 312.658 70.3633C314.299 70.3633 315.373 69.7188 315.393 68.6641C315.373 67.6289 314.299 66.9453 312.658 66.9453ZM330.939 67.5508C330.939 70.5 333.088 73.4883 335.646 74.6016L334.787 75.8125C332.756 74.8848 330.998 72.8828 330.197 70.4805C329.377 73.0293 327.629 75.2461 325.646 76.2422L324.729 75.0312C327.209 73.8398 329.377 70.5586 329.396 67.5508V65.2852H325.295V64.0156H335.08V65.2852H330.939V67.5508ZM339.045 62.2188V79.582H337.502V62.2188H339.045ZM362.932 76.0664V77.3555H347.033V76.0664H354.182V71.8281H348.908V63.6836H360.959V71.8281H355.686V76.0664H362.932ZM350.412 64.9141V70.5977H359.475V64.9141H350.412ZM380.217 76.1055V77.3945H364.318V76.1055H380.217ZM378.205 63.5469V68.8008H367.834V71.6523H378.615V72.8828H366.311V67.5508H376.701V64.8164H366.271V63.5469H378.205ZM389.299 63.5078C389.299 64.8457 389.055 66.0664 388.576 67.1797H391.389V62.6094H392.854V72.0039H391.389V68.4492H387.893C386.77 70.1875 384.973 71.584 382.58 72.6094L381.779 71.4766C385.334 70.0215 387.404 67.7266 387.717 64.7773H382.521V63.5078H389.299ZM396.35 62.2383V72.2773H394.885V62.2383H396.35ZM387.658 74.0352C387.639 75.5977 388.469 77.209 390.119 78.1562C391.779 77.1211 392.619 75.3633 392.639 74.0352V72.8633H394.123V74.0352C394.123 75.832 395.451 77.6484 397.678 78.3906L396.916 79.5234C395.178 78.9082 393.957 77.6875 393.361 76.2031C392.824 77.6289 391.779 78.9863 390.158 79.6797C388.459 79.0059 387.404 77.7168 386.896 76.2422C386.271 77.668 385.07 78.8984 383.42 79.5234L382.639 78.3906C384.826 77.5898 386.193 75.7148 386.193 74.0352V72.8633H387.658V74.0352ZM412.326 62.2188V69.0938H415.236V70.3828H412.326V79.6211H410.803V62.2188H412.326ZM407.756 63.918V65.1875H401.174V73.9766C404.318 73.9766 406.545 73.8301 409.123 73.3516L409.318 74.6797C406.604 75.168 404.318 75.2656 401.018 75.2656H399.65V63.918H407.756ZM424.963 63.7422V65.2852H429.025V62.2383H430.568V74.9141H429.025V70.2852H424.963V71.8477H416.994V63.7422H424.963ZM418.518 65.0117V70.6172H423.459V65.0117H418.518ZM430.959 77.9219V79.2109H419.338V73.7812H420.881V77.9219H430.959ZM424.963 69.0156H429.025V66.5742H424.963V69.0156ZM436.311 76.6914L434.787 82.0039H433.342L434.416 76.6914H436.311ZM445.08 78H443.244L448.42 63.8594H450.275L455.451 78H453.596L452.189 74.0156H446.506L445.08 78ZM447.033 72.4727H451.643L449.396 66.1445H449.279L447.033 72.4727ZM459.123 63.8594V78H457.365V63.8594H459.123ZM474.826 62.2188V69.2891H477.639V70.5781H474.826V79.582H473.303V62.2188H474.826ZM470.334 64.0938C470.334 69.0156 468.029 73.4883 462.365 76.2812L461.506 75.0703C465.998 72.834 468.439 69.4941 468.791 65.3828H462.307V64.0938H470.334ZM498.537 62.2188V79.582H497.072V70.4805H494.514V78.6836H493.107V62.6094H494.514V69.2109H497.072V62.2188H498.537ZM490.842 64.3477V65.6172H485.861V73.9766C488.254 73.9668 489.914 73.8789 491.838 73.4883L491.975 74.7773C489.885 75.207 488.107 75.2852 485.451 75.2852H484.338V64.3477H490.842ZM515.314 62.2383V74.9727H513.791V62.2383H515.314ZM515.861 77.9219V79.2109H504.104V73.8008H505.627V77.9219H515.861ZM507.131 64.9531C507.111 67.5898 508.928 69.9727 511.506 70.9102L510.705 72.1406C508.693 71.3691 507.131 69.8066 506.369 67.8047C505.598 69.9336 504.016 71.6426 501.994 72.4531L501.154 71.2617C503.791 70.2461 505.568 67.6875 505.568 64.9531V63.2148H507.131V64.9531ZM537.678 62.2188V72.5703H536.135V68.0195H532.639V66.75H536.135V62.2188H537.678ZM531.916 73.1172C535.529 73.1172 537.736 74.2891 537.736 76.3398C537.736 78.3906 535.529 79.5625 531.916 79.582C528.303 79.5625 526.096 78.3906 526.096 76.3398C526.096 74.2891 528.303 73.1172 531.916 73.1172ZM531.916 74.3086C529.26 74.3086 527.6 75.0703 527.619 76.3398C527.6 77.5898 529.26 78.3516 531.916 78.3516C534.572 78.3516 536.213 77.5898 536.213 76.3398C536.213 75.0703 534.572 74.3086 531.916 74.3086ZM529.318 65.4023C529.318 67.668 531.057 69.8164 533.596 70.6953L532.795 71.9258C530.842 71.2227 529.328 69.7676 528.596 67.9609C527.834 70.002 526.223 71.6328 524.162 72.4141L523.361 71.1836C525.939 70.2461 527.775 67.9023 527.775 65.4219V64.7773H523.85V63.4883H533.205V64.7773H529.318V65.4023ZM554.904 62.2188V79.6211H553.381V62.2188H554.904ZM549.631 63.8398V70.0117H543.146V74.1133C546.027 74.1133 548.596 73.9863 551.701 73.4883L551.857 74.7773C548.654 75.2852 546.018 75.4023 543.029 75.4023H541.584V68.7617H548.088V65.1094H541.545V63.8398H549.631ZM566.525 65.2266V66.4766H557.814V65.2266H561.428V62.7461H562.951V65.2266H566.525ZM562.17 67.6484C564.357 67.6484 565.92 69.2891 565.939 71.5938C565.92 73.918 564.357 75.5781 562.17 75.5781C560.002 75.5781 558.439 73.918 558.439 71.5938C558.439 69.2891 560.002 67.6484 562.17 67.6484ZM562.17 68.9375C560.803 68.957 559.807 70.0703 559.807 71.5938C559.807 73.1367 560.803 74.25 562.17 74.2305C563.557 74.25 564.572 73.1367 564.572 71.5938C564.572 70.0703 563.557 68.957 562.17 68.9375ZM572.639 62.2188V79.582H571.174V70.8125H568.869V78.7227H567.424V62.6484H568.869V69.543H571.174V62.2188H572.639ZM589.162 70.5781V71.8477H577.17V63.8398H588.986V65.1094H578.693V70.5781H589.162ZM591.037 75.9297V77.2188H575.139V75.9297H591.037ZM606.76 62.2383V71.7695H605.236V62.2383H606.76ZM601.232 63.0781V67.7656H594.826V70.1289C597.932 70.1094 600.256 70.0508 603.068 69.582L603.244 70.8516C600.334 71.3203 597.951 71.3984 594.748 71.418H593.342V66.5547H599.709V64.3477H593.303V63.0781H601.232ZM597.014 72.6484V74.7188H605.236V72.6484H606.76V79.3477H595.471V72.6484H597.014ZM597.014 78.0977H605.236V75.9492H597.014V78.0977ZM624.025 62.2188V79.582H622.502V62.2188H624.025ZM612.346 63.9375V73.7812C614.992 73.7715 617.736 73.5566 620.646 72.9414L620.861 74.25C617.775 74.8945 615.021 75.1094 612.248 75.1094H610.842V63.9375H612.346ZM640.432 62.2188V69.0938H643.342V70.3828H640.432V79.6211H638.908V62.2188H640.432ZM635.861 63.918V65.1875H629.279V73.9766C632.424 73.9766 634.65 73.8301 637.229 73.3516L637.424 74.6797C634.709 75.168 632.424 75.2656 629.123 75.2656H627.756V63.918H635.861ZM646.115 78.1172C645.432 78.1172 644.846 77.5508 644.865 76.8477C644.846 76.1641 645.432 75.5977 646.115 75.5977C646.799 75.5977 647.365 76.1641 647.365 76.8477C647.365 77.5508 646.799 78.1172 646.115 78.1172Z" fill="black"/>
</svg>
