<svg width="423" height="161" viewBox="0 0 423 161" fill="none" xmlns="http://www.w3.org/2000/svg">
<path d="M50.1426 8.50781C53.7949 8.50781 56.3926 10.2656 56.3926 12.9414C56.3926 15.4805 54.0879 17.1504 50.7676 17.3359V21.1836H58.0918V22.2383H42.3105V21.1836H49.5371V17.3359C46.2266 17.1602 43.9121 15.4805 43.9121 12.9414C43.9121 10.2656 46.5098 8.50781 50.1426 8.50781ZM50.1426 9.52344C47.2324 9.52344 45.084 10.9102 45.084 12.9414C45.084 14.9727 47.2324 16.3594 50.1426 16.3594C53.0527 16.3594 55.2207 14.9727 55.2207 12.9414C55.2207 10.9102 53.0527 9.52344 50.1426 9.52344ZM73.4824 11.6523V12.6875H61.7832V7.58984H62.9746V11.6523H73.4824ZM75.3379 14.5625V15.5977H59.5762V14.5625H75.3379ZM73.2871 17.3164V21.1641H62.877V23.2734H73.9121V24.2695H61.6465V20.207H72.0762V18.3125H61.6074V17.3164H73.2871ZM95.8066 7.29688V24.543H94.5566V20.1484H90.4551V19.1523H94.5566V7.29688H95.8066ZM81.627 16.5352C85.084 16.5156 89.3809 16.4766 93.1504 16.1055L93.248 17.043C91.4902 17.2676 89.6543 17.4043 87.8574 17.4922V23.9766H86.627V17.5312C84.918 17.5996 83.2773 17.6191 81.8027 17.6289L81.627 16.5352ZM91.5293 8.3125V14.3867H83.1895V8.3125H91.5293ZM84.4004 9.32812V13.3516H90.3184V9.32812H84.4004ZM117.975 7.29688V16.5156H116.744V7.29688H117.975ZM108.15 17.4336V19.6992H116.764V17.4336H117.975V24.2695H106.939V17.4336H108.15ZM108.15 23.2539H116.764V20.7148H108.15V23.2539ZM108.717 8.15625C111.314 8.15625 113.17 9.73828 113.17 12.1016C113.17 14.4258 111.314 16.0273 108.717 16.0078C106.119 16.0273 104.244 14.4258 104.264 12.1016C104.244 9.73828 106.119 8.15625 108.717 8.15625ZM108.717 9.21094C106.822 9.21094 105.455 10.4219 105.455 12.1016C105.455 13.7617 106.822 14.9727 108.717 14.9727C110.611 14.9727 111.979 13.7617 111.979 12.1016C111.979 10.4219 110.611 9.21094 108.717 9.21094ZM127.096 12.7852C127.096 15.7344 129.459 18.7227 131.881 19.7773L131.178 20.7539C129.195 19.8262 127.301 17.7656 126.49 15.3047C125.689 17.8926 123.805 20.1777 121.881 21.1836L121.139 20.207C123.482 19.0547 125.846 15.7734 125.865 12.7852V10.1484H121.666V9.09375H131.354V10.1484H127.096V12.7852ZM135.24 7.29688V24.5234H134.01V7.29688H135.24ZM141.178 18.625C141.197 16.3789 141.92 15.5977 143.268 14.7188C144.264 14.0938 144.83 13.332 144.83 12.2578C144.83 10.8125 143.697 9.85547 142.271 9.85547C140.943 9.85547 139.752 10.7148 139.674 12.3945H138.268C138.326 10.1094 140.064 8.66406 142.271 8.66406C144.596 8.66406 146.178 10.207 146.178 12.3164C146.178 13.7422 145.514 14.7383 144.225 15.5781C142.975 16.3789 142.545 17.082 142.525 18.625V18.957H141.178V18.625ZM141.9 23.0977C141.314 23.0977 140.846 22.6289 140.846 22.0625C140.846 21.4766 141.314 21.0078 141.9 21.0078C142.467 21.0078 142.936 21.4766 142.936 22.0625C142.936 22.6289 142.467 23.0977 141.9 23.0977ZM166.295 9.11328V10.8516C166.275 12.9609 166.275 15.3047 165.67 18.7031L164.42 18.5469C165.045 15.3047 165.045 12.9219 165.064 10.8516V10.1484H154.303V9.11328H166.295ZM168.307 20.9102V21.9648H152.604V20.9102H158.932V14.6797H160.143V20.9102H168.307ZM178.775 8.83984V16.7305H170.807V8.83984H178.775ZM171.998 9.875V15.7148H177.584V9.875H171.998ZM184.049 7.29688V19.7383H182.818V7.29688H184.049ZM184.615 22.8242V23.8789H173.053V18.5078H174.283V22.8242H184.615ZM200.592 7.21875V11.5547H203.268V12.5898H200.592V16.8086H199.361V7.21875H200.592ZM200.592 17.7656V21.418H190.982V23.3125H201.256V24.3086H189.771V20.4609H199.361V18.7227H189.732V17.7656H200.592ZM197.506 8.95703V9.95312H187.232V8.95703H191.764V7.08203H192.975V8.95703H197.506ZM192.369 10.8516C194.85 10.8516 196.471 11.9453 196.471 13.6836C196.471 15.4414 194.85 16.5156 192.369 16.5156C189.869 16.5156 188.248 15.4414 188.248 13.6836C188.248 11.9453 189.869 10.8516 192.369 10.8516ZM192.369 11.7891C190.592 11.8086 189.4 12.5703 189.42 13.6836C189.4 14.8164 190.592 15.5586 192.369 15.5586C194.127 15.5586 195.299 14.8164 195.318 13.6836C195.299 12.5703 194.127 11.8086 192.369 11.7891ZM215.221 12.1602C215.201 15.2852 217.564 18.4492 219.986 19.582L219.225 20.5586C217.281 19.582 215.426 17.4434 214.615 14.8945C213.824 17.5703 211.988 19.8457 210.025 20.8711L209.225 19.8359C211.646 18.6836 213.99 15.4023 213.99 12.1602V8.83984H215.221V12.1602ZM223.424 7.29688V24.543H222.193V7.29688H223.424ZM239.986 7.29688V12.668H242.643V13.7227H239.986V19.9922H238.736V7.29688H239.986ZM235.338 8.64453C235.338 13 232.076 16.3008 227.174 17.8828L226.646 16.8867C230.846 15.5391 233.697 12.9414 234.01 9.67969H227.33V8.64453H235.338ZM240.826 23.0781V24.1133H229.303V18.6836H230.533V23.0781H240.826ZM253.814 8.85938V23H252.408V10.3047H252.33L248.99 12.5117V11.0859L252.369 8.85938H253.814ZM262.193 23.1953C259.166 23.1953 257.408 20.5195 257.408 15.9297C257.408 11.3594 259.186 8.66406 262.193 8.66406C265.182 8.66406 266.959 11.3594 266.959 15.9297C266.959 20.5195 265.201 23.1953 262.193 23.1953ZM262.193 21.9453C264.342 21.9453 265.611 19.7578 265.611 15.9297C265.611 12.1016 264.322 9.89453 262.193 9.89453C260.045 9.89453 258.775 12.1016 258.775 15.9297C258.775 19.7578 260.045 21.9453 262.193 21.9453ZM284.557 21.2227V22.2773H268.775V21.2227H276.021V17.082H277.232V21.2227H284.557ZM277.252 11.2812C277.252 14.2109 280.436 16.1836 283.482 16.7305L282.994 17.6875C280.367 17.1797 277.682 15.7637 276.646 13.4297C275.592 15.7637 272.906 17.1797 270.279 17.6875L269.771 16.7305C272.838 16.1836 276.002 14.2109 276.021 11.2812V11.2031H270.279V10.1484H276.021V7.70703H277.232V10.1484H282.994V11.2031H277.252V11.2812ZM294.713 8.83984V10.4414H299.029V7.29688H300.26V19.8945H299.029V15.168H294.713V16.75H286.9V8.83984H294.713ZM288.111 9.85547V15.7539H293.502V9.85547H288.111ZM300.67 23.0781V24.1133H289.225V18.7812H290.455V23.0781H300.67ZM294.713 14.1133H299.029V11.4961H294.713V14.1133ZM323.873 15.8711V16.8867H316.627V18.8008C319.967 18.9277 321.92 19.9043 321.92 21.6523C321.92 23.4688 319.732 24.4648 316.021 24.4648C312.291 24.4648 310.084 23.4688 310.084 21.6523C310.084 19.9043 312.057 18.9277 315.416 18.8008V16.8867H308.17V15.8711H323.873ZM316.627 7.21875V9.01562H322.232V10.0312H316.686C316.744 12.209 319.85 13.5469 322.877 13.8594L322.486 14.8359C319.762 14.5234 317.027 13.4688 316.021 11.5742C315.006 13.4688 312.271 14.5234 309.576 14.8359L309.166 13.8594C312.174 13.5469 315.279 12.209 315.357 10.0312H309.83V9.01562H315.416V7.21875H316.627ZM316.021 19.7578C313.111 19.7578 311.334 20.4609 311.334 21.6523C311.334 22.8242 313.111 23.5078 316.021 23.4883C318.912 23.5078 320.689 22.8242 320.689 21.6523C320.689 20.4609 318.912 19.7578 316.021 19.7578ZM341.197 16.4961V17.5312H334.01V21.0859H332.799V17.5312H325.436V16.4961H341.197ZM339.439 23.0781V24.1133H327.506V19.4258H328.736V23.0781H339.439ZM328.795 7.84375V10.1875H337.857V7.84375H339.088V14.6602H327.564V7.84375H328.795ZM328.795 13.625H337.857V11.1641H328.795V13.625ZM351.451 10.3828V11.3984H342.701V10.3828H346.451V7.82422H347.701V10.3828H351.451ZM347.076 12.6875C349.225 12.707 350.768 14.2891 350.768 16.5547C350.768 18.8398 349.225 20.4414 347.076 20.4414C344.928 20.4414 343.385 18.8398 343.385 16.5547C343.385 14.2891 344.928 12.707 347.076 12.6875ZM347.076 13.7422C345.572 13.7617 344.479 14.9727 344.498 16.5547C344.479 18.1562 345.572 19.3672 347.076 19.3477C348.561 19.3672 349.654 18.1562 349.674 16.5547C349.654 14.9727 348.561 13.7617 347.076 13.7422ZM357.35 7.29688V24.5234H356.178V15.6758H353.58V23.6445H352.428V7.72656H353.58V14.6406H356.178V7.29688H357.35ZM375.807 21.1836V22.2383H360.025V21.1836H364.049V16.3984C362.535 15.6367 361.627 14.3965 361.627 12.8438C361.627 10.1875 364.205 8.46875 367.857 8.44922C371.529 8.46875 374.107 10.1875 374.107 12.8438C374.107 14.377 373.219 15.6074 371.744 16.3594V21.1836H375.807ZM367.857 9.48438C364.928 9.46484 362.799 10.832 362.799 12.8438C362.799 14.8164 364.928 16.2031 367.857 16.1836C370.787 16.2031 372.936 14.8164 372.936 12.8438C372.936 10.832 370.787 9.46484 367.857 9.48438ZM365.26 21.1836H370.514V16.8281C369.723 17.0625 368.824 17.1797 367.857 17.1797C366.91 17.1797 366.031 17.0625 365.26 16.8477V21.1836ZM379.01 23.0977C378.424 23.0977 377.955 22.6289 377.955 22.0625C377.955 21.4766 378.424 21.0078 379.01 21.0078C379.576 21.0078 380.045 21.4766 380.045 22.0625C380.045 22.6289 379.576 23.0977 379.01 23.0977ZM358.053 42.3828V43.3984H349.303V42.3828H353.053V39.8242H354.303V42.3828H358.053ZM353.678 44.6875C355.826 44.707 357.369 46.2891 357.369 48.5547C357.369 50.8398 355.826 52.4414 353.678 52.4414C351.529 52.4414 349.986 50.8398 349.986 48.5547C349.986 46.2891 351.529 44.707 353.678 44.6875ZM353.678 45.7422C352.174 45.7617 351.08 46.9727 351.1 48.5547C351.08 50.1562 352.174 51.3672 353.678 51.3477C355.162 51.3672 356.256 50.1562 356.275 48.5547C356.256 46.9727 355.162 45.7617 353.678 45.7422ZM363.951 39.2969V56.5234H362.779V47.6758H360.182V55.6445H359.029V39.7266H360.182V46.6406H362.779V39.2969H363.951ZM380.494 47.6758V48.7109H368.697V40.957H380.318V41.9922H369.908V47.6758H380.494ZM382.408 53.0273V54.082H366.627V53.0273H382.408ZM398.092 39.2969V56.543H396.881V49.082H393.092V48.0273H396.881V44.375H393.229V43.3203H396.881V39.2969H398.092ZM385.846 51.4062C388.58 51.4062 390.787 51.2891 393.521 50.8594L393.639 51.9141C390.826 52.3633 388.619 52.4609 385.846 52.4609H384.576V45.8203H390.846V41.9531H384.537V40.8984H392.057V46.8555H385.807V51.4062H385.846ZM416.979 53.1836V54.2383H401.197V53.1836H405.221V48.3984C403.707 47.6367 402.799 46.3965 402.799 44.8438C402.799 42.1875 405.377 40.4688 409.029 40.4492C412.701 40.4688 415.279 42.1875 415.279 44.8438C415.279 46.377 414.391 47.6074 412.916 48.3594V53.1836H416.979ZM409.029 41.4844C406.1 41.4648 403.971 42.832 403.971 44.8438C403.971 46.8164 406.1 48.2031 409.029 48.1836C411.959 48.2031 414.107 46.8164 414.107 44.8438C414.107 42.832 411.959 41.4648 409.029 41.4844ZM406.432 53.1836H411.686V48.8281C410.895 49.0625 409.996 49.1797 409.029 49.1797C408.082 49.1797 407.203 49.0625 406.432 48.8477V53.1836ZM420.182 55.0977C419.596 55.0977 419.127 54.6289 419.127 54.0625C419.127 53.4766 419.596 53.0078 420.182 53.0078C420.748 53.0078 421.217 53.4766 421.217 54.0625C421.217 54.6289 420.748 55.0977 420.182 55.0977Z" fill="#463C36"/>
<path d="M7.54492 41.7578C7.54492 43.8281 8.61914 45.8594 11.5293 46.7383L10.0449 48.9062C8.17969 48.3203 6.91016 47.1777 6.1582 45.7031C5.38672 47.4121 4.04883 48.75 2.03711 49.4141L0.513672 47.2266C3.59961 46.2109 4.71289 43.8477 4.71289 41.4648V39.9219H7.54492V41.7578ZM15.123 38.9453V42.9883H17.4473V45.3125H15.123V49.4922H12.3105V38.9453H15.123ZM9.20508 49.8242C12.9355 49.8242 15.2988 51.1328 15.2988 53.3398C15.2988 55.5859 12.9355 56.8945 9.20508 56.875C5.39648 56.8945 3.01367 55.5859 3.01367 53.3398C3.01367 51.1328 5.39648 49.8242 9.20508 49.8242ZM9.20508 52.0117C6.97852 52.0117 5.80664 52.4609 5.82617 53.3398C5.80664 54.2773 6.97852 54.6875 9.20508 54.6875C11.4121 54.6875 12.5254 54.2773 12.5254 53.3398C12.5254 52.4609 11.4121 52.0117 9.20508 52.0117ZM32.5645 38.9648V43.9453H34.7324V46.25H32.5645V51.0547H29.752V38.9648H32.5645ZM26.4512 51.1719C30.377 51.1523 32.6035 52.1875 32.623 54.043C32.6035 55.918 30.377 56.9141 26.4512 56.9141C22.4863 56.9141 20.2402 55.918 20.2402 54.043C20.2402 52.1875 22.4863 51.1523 26.4512 51.1719ZM26.4512 53.2031C24.0488 53.2031 23.0527 53.4375 23.0723 54.043C23.0527 54.6094 24.0488 54.8633 26.4512 54.8633C28.7949 54.8633 29.791 54.6094 29.791 54.043C29.791 53.4375 28.7949 53.2031 26.4512 53.2031ZM17.8965 48.5547C19.166 48.5547 20.6016 48.5547 22.0957 48.5156V47.5781C20.1816 47.3047 19.0098 46.4062 19.0098 45.0977C19.0098 43.4961 20.748 42.5195 23.4629 42.5195C26.1777 42.5195 27.916 43.4961 27.916 45.0977C27.916 46.3965 26.7734 47.2852 24.8887 47.5781V48.418C26.2852 48.3496 27.6816 48.2324 29.0098 48.0664L29.2051 49.9609C25.416 50.6055 21.3535 50.6641 18.1895 50.6641L17.8965 48.5547ZM28.5801 40.1562V42.207H18.3652V40.1562H22.0957V38.8086H24.8887V40.1562H28.5801ZM23.4629 44.3359C22.3105 44.3555 21.7051 44.5898 21.7051 45.0977C21.7051 45.6445 22.3105 45.8789 23.4629 45.8789C24.5957 45.8789 25.2207 45.6445 25.2207 45.0977C25.2207 44.5898 24.5957 44.3555 23.4629 44.3359ZM37.8574 50.5664C36.8809 50.5664 36.0801 49.7852 36.0996 48.7891C36.0801 47.832 36.8809 47.0508 37.8574 47.0508C38.7949 47.0508 39.6152 47.832 39.6348 48.7891C39.6152 49.7852 38.7949 50.5664 37.8574 50.5664ZM57.623 48.8477V51.0938H50.7676V56.8359H47.9746V51.0938H41.2363V48.8477H57.623ZM55.7285 39.7852V47.0898H43.1113V39.7852H55.7285ZM45.8652 42.0117V44.8828H52.916V42.0117H45.8652ZM73.1895 47.1484V49.375H60.416V40.3906H73.0723V42.6562H63.1895V47.1484H73.1895ZM74.9277 52.4609V54.7852H58.541V52.4609H74.9277ZM78.2676 50.5664C77.291 50.5664 76.4902 49.7852 76.5098 48.7891C76.4902 47.832 77.291 47.0508 78.2676 47.0508C79.2051 47.0508 80.0254 47.832 80.0449 48.7891C80.0254 49.7852 79.2051 50.5664 78.2676 50.5664ZM95.9434 38.9453V42.1875H98.2676V44.4922H95.9434V47.7539H93.1309V38.9453H95.9434ZM85.1621 39.7266V45.0391C87.1934 45.0098 89.4199 44.8145 91.7637 44.375L92.0762 46.6406C89.166 47.2266 86.3926 47.3828 83.9121 47.3633H82.3301V39.7266H85.1621ZM95.9434 48.457V53.5547H86.7637V54.4336H96.4121V56.6797H83.9316V51.4648H93.0918V50.625H83.9121V48.457H95.9434ZM114.42 38.9453V56.875H111.588V38.9453H114.42ZM103.736 43.1055C103.736 45.166 103.902 47.4609 104.889 49.2773C105.865 47.4609 106.021 45.2051 106.021 43.1055V40.3125H108.717V43.1055C108.697 46.0938 108.99 49.2188 111.314 51.0352L109.596 53.0273C108.453 52.1484 107.75 50.8398 107.33 49.3164C106.852 50.8984 106.1 52.2656 104.889 53.1641C103.688 52.2754 102.936 50.9277 102.467 49.375C102.057 50.8105 101.383 52.0508 100.318 52.9102L98.5215 51.0352C100.846 49.1797 101.119 46.0938 101.119 43.1055V40.3125H103.736V43.1055ZM131.822 38.9453V56.875H129.127V38.9453H131.822ZM128.053 39.1797V56.0742H125.396V47.6953H124.244C124 51.2109 122.486 53.3203 120.279 53.3203C117.916 53.3203 116.373 50.8203 116.373 46.7188C116.373 42.6367 117.916 40.1562 120.279 40.1562C122.428 40.1562 123.922 42.1387 124.225 45.4688H125.396V39.1797H128.053ZM120.279 42.8125C119.42 42.8125 118.932 44.0234 118.951 46.7188C118.932 49.4336 119.42 50.625 120.279 50.625C121.178 50.625 121.686 49.4336 121.686 46.7188C121.686 44.0234 121.178 42.8125 120.279 42.8125ZM147.154 40.0977V48.0273H138.463V40.0977H147.154ZM141.236 42.3047V45.8008H144.381V42.3047H141.236ZM152.271 38.9453V42.7148H154.596V45H152.271V48.9258H149.459V38.9453H152.271ZM152.467 49.707V51.9141H148.053C148.502 53.0957 150.074 54.3066 153.287 54.6875L152.271 56.8359C149.361 56.4746 147.408 55.3711 146.393 53.9062C145.367 55.3711 143.434 56.4355 140.514 56.7773L139.518 54.668C142.77 54.2969 144.322 53.1348 144.752 51.9141H140.299V49.707H152.467ZM165.768 40.625V42.793H162.584C162.672 44.0332 163.775 45.1758 166.334 45.6055L165.201 47.7734C163.219 47.4023 161.891 46.5527 161.139 45.4102C160.357 46.6602 158.98 47.5781 156.92 47.9688L155.748 45.8594C158.375 45.3906 159.488 44.1309 159.596 42.793H156.295V40.625H159.693V38.9844H162.467V40.625H165.768ZM170.729 38.9648V56.8555H167.857V53.5547H164.361V51.4062H167.857V38.9648H170.729ZM155.221 48.5742C158.502 48.5742 162.916 48.5352 166.744 48.0273L166.9 50.0781C165.396 50.3516 163.863 50.5176 162.35 50.625V56.3477H159.498V50.7812C158.092 50.8301 156.744 50.8398 155.533 50.8398L155.221 48.5742ZM180.572 55H176.979L181.783 40.8594H186.197L190.982 55H187.408L186.451 51.9727H181.529L180.572 55ZM182.33 49.4336H185.65L184.049 44.3555H183.932L182.33 49.4336ZM195.807 40.8594V55H192.486V40.8594H195.807ZM211.568 38.9453V45.6836H213.971V47.9883H211.568V56.8164H208.756V38.9453H211.568ZM206.725 40.7422C206.725 46.1914 204.732 50.8398 198.639 53.8281L197.057 51.6797C201.168 49.6191 203.375 46.9434 203.873 43.0469H198.131V40.7422H206.725ZM233.326 38.9453V45.5469H235.865V47.8711H233.326V56.875H230.514V38.9453H233.326ZM222.428 40.3516V44.5898H225.67V40.3516H228.463V52.7734H219.615V40.3516H222.428ZM222.428 50.4883H225.67V46.7578H222.428V50.4883ZM252.779 52.6562V54.9414H236.393V52.6562H243.17V50.1562H238.229V43.9844H248.17V42.3047H238.209V40.0586H250.943V46.1719H241.041V47.8906H251.354V50.1562H245.943V52.6562H252.779ZM272.994 40.3711V41.9141C272.975 44.0625 273.014 46.6406 272.135 50.5664L269.4 50.293C269.674 49.0234 269.859 47.8809 269.986 46.8359L259.771 47.4023L259.381 45.0195L270.162 44.6875C270.191 43.9355 270.211 43.252 270.221 42.6172H259.986V40.3711H272.994ZM274.498 52.6367V54.9219H258.15V52.6367H263.834V48.4375H266.627V52.6367H274.498ZM290.494 38.9453V56.9141H287.662V38.9453H290.494ZM285.26 40.4883V42.7539H279.303V50.332C282.408 50.3223 284.293 50.2441 286.412 49.8633L286.666 52.1484C284.303 52.6367 282.037 52.6953 278.072 52.6953H276.51V40.4883H285.26ZM309.088 46.8945V48.9453H292.701V46.8945H309.088ZM307.154 49.668V54.043H297.35V54.8438H307.662V56.7383H294.557V52.2852H304.361V51.582H294.537V49.668H307.154ZM307.154 39.2188V43.5742H297.506V44.3359H307.447V46.2109H294.713V41.8164H304.322V41.0938H294.693V39.2188H307.154ZM330.826 49.6484V51.9336H324.029V56.8945H321.217V51.9336H314.479V49.6484H330.826ZM329.361 40.957V43.1641H324.127C324.479 44.5508 326.227 46.2305 330.006 46.6406L328.99 48.8281C325.924 48.5059 323.805 47.3145 322.643 45.7812C321.48 47.334 319.352 48.4961 316.256 48.8281L315.24 46.6406C319.049 46.2207 320.797 44.5703 321.158 43.1641H315.924V40.957H321.217V38.9844H324.029V40.957H329.361ZM341.998 40.957V43.1641H338.521C338.531 45.0488 339.645 47.0898 342.643 48.0078L341.295 50.1758C339.322 49.6191 337.965 48.4473 337.174 46.9727C336.373 48.5742 334.996 49.834 332.936 50.4492L331.588 48.2617C334.566 47.3828 335.699 45.2246 335.709 43.1641H332.252V40.957H335.709V39.0625H338.541V40.957H341.998ZM346.939 38.9648V52.2266H344.146V46.3477H341.412V44.1016H344.146V38.9648H346.939ZM347.35 54.3359V56.582H334.928V51.1133H337.74V54.3359H347.35Z" fill="#80AD3D"/>
<path d="M41.6191 136.297V140.926H44.2754V141.961H41.6191V146.668H40.3887V136.297H41.6191ZM36.1309 147.02C39.627 147.02 41.7559 148.211 41.7559 150.242C41.7559 152.293 39.627 153.465 36.1309 153.465C32.6152 153.465 30.4668 152.293 30.4863 150.242C30.4668 148.211 32.6152 147.02 36.1309 147.02ZM36.1309 148.055C33.416 148.035 31.6777 148.895 31.6777 150.242C31.6777 151.59 33.416 152.449 36.1309 152.449C38.8262 152.449 40.584 151.59 40.584 150.242C40.584 148.895 38.8262 148.035 36.1309 148.055ZM30.3496 144.07C33.8652 144.07 35.9355 143.973 38.3574 143.484L38.5137 144.52C35.9941 145.008 33.9043 145.105 30.3496 145.105H29.041V137.664H36.6777V138.699H30.252V144.07H30.3496ZM59.6465 136.297V148.953H58.416V136.297H59.6465ZM60.2129 152.078V153.113H48.6504V147.801H49.8809V152.078H60.2129ZM51.4238 139.012C51.4043 141.766 53.3965 144.168 55.877 145.105L55.2129 146.102C53.2207 145.291 51.5703 143.65 50.8184 141.531C50.0859 143.777 48.4355 145.564 46.4434 146.414L45.7402 145.438C48.2402 144.422 50.1738 141.863 50.1934 139.012V137.254H51.4238V139.012ZM68.416 137.586C71.1309 137.586 73.0059 139.207 73.0254 141.57C73.0059 143.953 71.1309 145.555 68.416 145.555C65.7207 145.555 63.8066 143.953 63.8066 141.57C63.8066 139.207 65.7207 137.586 68.416 137.586ZM68.416 138.68C66.4434 138.68 64.998 139.891 65.0176 141.57C64.998 143.25 66.4434 144.48 68.416 144.461C70.3887 144.48 71.8145 143.25 71.8145 141.57C71.8145 139.891 70.3887 138.68 68.416 138.68ZM76.7949 136.297V153.543H75.5645V136.297H76.7949ZM62.8691 148.562C66.0918 148.582 70.5059 148.562 74.373 147.977L74.4707 148.914C70.4863 149.656 66.1895 149.656 63.0645 149.656L62.8691 148.562ZM93.3184 138.914C93.3184 142 97.0684 144.617 99.7832 145.125L99.1777 146.18C96.7461 145.574 93.7871 143.689 92.6934 141.043C91.5996 143.689 88.6406 145.574 86.209 146.18L85.623 145.125C88.3379 144.598 92.0293 142.02 92.0488 138.914V137.547H93.3184V138.914ZM100.662 150.066V151.102H84.8809V150.066H100.662ZM104.275 148.25C107.557 148.25 109.764 148.133 112.4 147.664L112.557 148.699C109.842 149.168 107.615 149.285 104.275 149.285H102.947V137.898H111.014V138.953H104.178V142.762H110.564V143.777H104.178V148.25H104.275ZM115.428 136.297V143.348H118.396V144.402H115.428V153.523H114.197V136.297H115.428ZM124.314 136.961C126.893 136.98 128.729 138.523 128.748 140.75C128.729 142.996 126.893 144.52 124.314 144.52C121.736 144.52 119.881 142.996 119.9 140.75C119.881 138.523 121.736 136.98 124.314 136.961ZM124.314 138.016C122.459 138.016 121.092 139.168 121.111 140.75C121.092 142.332 122.459 143.484 124.314 143.484C126.17 143.484 127.557 142.332 127.557 140.75C127.557 139.168 126.17 138.016 124.314 138.016ZM133.611 136.297V145.203H132.381V136.297H133.611ZM133.611 146.082V150.066H123.768V152.254H134.275V153.27H122.576V149.109H132.4V147.098H122.518V146.082H133.611ZM144.568 136.609C148.357 136.609 150.604 137.664 150.604 139.598C150.604 141.551 148.357 142.625 144.568 142.625C140.779 142.625 138.533 141.551 138.533 139.598C138.533 137.664 140.779 136.609 144.568 136.609ZM144.568 137.566C141.619 137.566 139.803 138.348 139.803 139.598C139.803 140.906 141.619 141.668 144.568 141.668C147.537 141.668 149.354 140.906 149.354 139.598C149.354 138.348 147.537 137.566 144.568 137.566ZM152.439 143.914V144.93H136.736V143.914H152.439ZM150.369 146.57V150.262H139.92V152.293H150.916V153.309H138.729V149.305H149.178V147.547H138.67V146.57H150.369ZM172.986 136.297V153.543H171.756V136.297H172.986ZM163.885 137.664C166.424 137.664 168.24 139.988 168.24 143.621C168.24 147.254 166.424 149.578 163.885 149.578C161.326 149.578 159.529 147.254 159.529 143.621C159.529 139.988 161.326 137.664 163.885 137.664ZM163.885 138.758C162.029 138.758 160.721 140.75 160.721 143.621C160.721 146.512 162.029 148.484 163.885 148.484C165.74 148.484 167.029 146.512 167.029 143.621C167.029 140.75 165.74 138.758 163.885 138.758ZM184.842 139.383V140.398H176.092V139.383H179.842V136.824H181.092V139.383H184.842ZM180.467 141.688C182.615 141.707 184.158 143.289 184.158 145.555C184.158 147.84 182.615 149.441 180.467 149.441C178.318 149.441 176.775 147.84 176.775 145.555C176.775 143.289 178.318 141.707 180.467 141.688ZM180.467 142.742C178.963 142.762 177.869 143.973 177.889 145.555C177.869 147.156 178.963 148.367 180.467 148.348C181.951 148.367 183.045 147.156 183.064 145.555C183.045 143.973 181.951 142.762 180.467 142.742ZM190.74 136.297V153.523H189.568V144.676H186.971V152.645H185.818V136.727H186.971V143.641H189.568V136.297H190.74ZM206.678 136.297V143.504H209.646V144.559H206.678V153.523H205.447V136.297H206.678ZM203.611 139.129V140.164H193.318V139.129H197.908V136.473H199.139V139.129H203.611ZM198.553 141.746C200.975 141.746 202.713 143.348 202.713 145.652C202.713 147.957 200.975 149.559 198.553 149.559C196.131 149.559 194.373 147.957 194.393 145.652C194.373 143.348 196.131 141.746 198.553 141.746ZM198.553 142.781C196.834 142.801 195.564 144.012 195.564 145.652C195.564 147.293 196.834 148.504 198.553 148.484C200.271 148.504 201.541 147.293 201.541 145.652C201.541 144.012 200.271 142.801 198.553 142.781ZM224.607 141.668V142.703H212.889V136.922H214.1V141.668H224.607ZM226.443 145.203V146.219H210.682V145.203H226.443ZM224.705 152.039V153.094H212.811V148.094H214.021V152.039H224.705Z" fill="#463C36"/>
<path d="M248.064 135.945V153.875H245.408V145.008H243.963V153.016H241.404V136.219H243.963V142.781H245.408V135.945H248.064ZM239.646 137.996V140.242H235.799V147.566C237.342 147.547 238.797 147.459 240.428 147.176L240.623 149.441C238.416 149.871 236.482 149.93 234.256 149.93H232.967V137.996H239.646ZM264.275 135.945V143.133H266.443V145.438H264.275V153.875H261.424V135.945H264.275ZM249.607 148.719C250.867 148.719 252.322 148.719 253.846 148.68V147.273C252.01 146.873 250.818 145.652 250.818 144.051C250.818 142.059 252.654 140.672 255.271 140.672C257.869 140.672 259.725 142.059 259.725 144.051C259.725 145.662 258.504 146.883 256.658 147.273V148.582C257.996 148.523 259.344 148.406 260.604 148.23L260.799 150.262C257.01 150.984 252.928 151.004 249.959 151.004L249.607 148.719ZM260.525 137.879V140.086H249.939V137.879H253.846V136.062H256.658V137.879H260.525ZM255.271 142.801C254.197 142.801 253.475 143.23 253.494 144.051C253.475 144.891 254.197 145.301 255.271 145.32C256.326 145.301 257.029 144.891 257.029 144.051C257.029 143.23 256.326 142.801 255.271 142.801ZM277.029 137.488V139.695H267.146V137.488H270.818V135.789H273.631V137.488H277.029ZM272.186 140.203C274.666 140.203 276.482 141.59 276.502 143.582C276.482 145.574 274.666 146.922 272.186 146.922C269.705 146.922 267.947 145.574 267.947 143.582C267.947 141.59 269.705 140.203 272.186 140.203ZM272.186 142.293C271.209 142.293 270.564 142.723 270.564 143.582C270.564 144.441 271.209 144.852 272.186 144.852C273.182 144.852 273.885 144.441 273.885 143.582C273.885 142.723 273.182 142.293 272.186 142.293ZM282.264 135.945V147.312H279.471V145.613H277.244V143.367H279.471V142H277.303V139.754H279.471V135.945H282.264ZM276.131 147.547C279.959 147.547 282.342 148.719 282.361 150.711C282.342 152.684 279.959 153.895 276.131 153.875C272.283 153.895 269.881 152.684 269.881 150.711C269.881 148.719 272.283 147.547 276.131 147.547ZM276.131 149.656C273.982 149.676 272.85 149.969 272.85 150.711C272.85 151.434 273.982 151.766 276.131 151.766C278.221 151.766 279.334 151.434 279.334 150.711C279.334 149.969 278.221 149.676 276.131 149.656ZM305.193 144.363V146.59H288.846V144.363H295.584V143.211C292.42 142.918 290.428 141.648 290.428 139.754C290.428 137.527 293.025 136.238 297.01 136.219C301.033 136.238 303.572 137.527 303.592 139.754C303.572 141.668 301.59 142.947 298.357 143.211V144.363H305.193ZM298.416 147.605C298.416 149.363 299.979 151.16 304.139 151.648L303.084 153.777C300.135 153.416 298.104 152.312 297.01 150.77C295.887 152.312 293.865 153.416 290.936 153.777L289.881 151.648C294.021 151.16 295.564 149.363 295.564 147.605V147.332H298.416V147.605ZM297.01 138.367C294.646 138.348 293.338 138.797 293.357 139.754C293.338 140.672 294.646 141.082 297.01 141.082C299.354 141.082 300.682 140.672 300.682 139.754C300.682 138.797 299.354 138.348 297.01 138.367ZM322.479 146.648V148.934H315.682V153.895H312.869V148.934H306.131V146.648H322.479ZM321.014 137.957V140.164H315.779C316.131 141.551 317.879 143.23 321.658 143.641L320.643 145.828C317.576 145.506 315.457 144.314 314.295 142.781C313.133 144.334 311.004 145.496 307.908 145.828L306.893 143.641C310.701 143.221 312.449 141.57 312.811 140.164H307.576V137.957H312.869V135.984H315.682V137.957H321.014ZM333.65 137.957V140.164H330.174C330.184 142.049 331.297 144.09 334.295 145.008L332.947 147.176C330.975 146.619 329.617 145.447 328.826 143.973C328.025 145.574 326.648 146.834 324.588 147.449L323.24 145.262C326.219 144.383 327.352 142.225 327.361 140.164H323.904V137.957H327.361V136.062H330.193V137.957H333.65ZM338.592 135.965V149.227H335.799V143.348H333.064V141.102H335.799V135.965H338.592ZM339.002 151.336V153.582H326.58V148.113H329.393V151.336H339.002ZM352.107 139.754C352.107 143.172 353.221 146.453 356.326 147.762L354.627 150.008C352.674 149.07 351.424 147.42 350.701 145.34C349.93 147.557 348.621 149.363 346.6 150.34L344.842 148.035C348.045 146.609 349.236 143.152 349.256 139.754V137.273H352.107V139.754ZM360.369 135.945V153.914H357.596V143.699H354.314V141.434H357.596V135.945H360.369ZM377.518 135.945V153.914H374.686V135.945H377.518ZM366.131 137.352V141.59H369.51V137.352H372.283V149.773H363.299V137.352H366.131ZM366.131 147.488H369.51V143.758H366.131V147.488ZM389.334 138.211C389.314 140.711 391.268 143.543 395.623 144.266L394.393 146.59C391.189 145.984 388.982 144.285 387.83 142.078C386.668 144.266 384.451 145.975 381.268 146.59L380.076 144.266C384.334 143.523 386.307 140.672 386.326 138.211V136.961H389.334V138.211ZM396.131 149.441V151.746H379.744V149.441H396.131Z" fill="#80AD3D"/>
</svg>
