<svg width="75" height="95" viewBox="0 0 75 95" fill="none" xmlns="http://www.w3.org/2000/svg">
<circle cx="37.4565" cy="37.4565" r="36.4565" fill="#EDE4E0" fill-opacity="0.81" stroke="white" stroke-width="2"/>
<mask id="path-2-inside-1_1149_3294" fill="white">
<path d="M38.901 12.3436C41.8284 10.1459 45.2431 10.8566 45.9869 12.3436C46.7996 13.9689 45.3789 15.8866 43.8609 15.8866C41.0899 15.8866 40.5097 16.1086 38.901 17.3036C38.693 17.458 38.5085 17.6305 38.3433 17.8153C42.1809 18.0837 45.9078 20.2103 47.9039 24.2567L48.6236 25.7157C48.9574 26.3924 49.3527 27.037 49.8043 27.6415L53.5748 32.6864C59.9667 41.2407 54.2541 53.3089 43.8707 54.0585V55.0682H45.2887C47.6367 55.0683 49.5406 56.9721 49.5406 59.3202C49.5403 61.668 47.6365 63.5712 45.2887 63.5712H39.6207C38.838 63.5712 38.2028 62.9368 38.2027 62.1542V54.0956H36.7838V62.1542C36.7837 62.9368 36.1494 63.5712 35.3668 63.5712H29.6978C27.3502 63.5709 25.4471 61.6678 25.4469 59.3202C25.4469 56.9723 27.35 55.0685 29.6978 55.0682H31.1158V54.0741C20.2408 53.5147 14.4613 40.6732 21.5592 32.1395L24.8941 28.1288C25.6634 27.2039 26.2849 26.1653 26.7349 25.0497C28.5192 20.6263 32.3923 18.1972 36.441 17.8339C36.6427 15.7213 37.3442 13.5124 38.901 12.3436Z"/>
</mask>
<path d="M38.901 12.3436C41.8284 10.1459 45.2431 10.8566 45.9869 12.3436C46.7996 13.9689 45.3789 15.8866 43.8609 15.8866C41.0899 15.8866 40.5097 16.1086 38.901 17.3036C38.693 17.458 38.5085 17.6305 38.3433 17.8153C42.1809 18.0837 45.9078 20.2103 47.9039 24.2567L48.6236 25.7157C48.9574 26.3924 49.3527 27.037 49.8043 27.6415L53.5748 32.6864C59.9667 41.2407 54.2541 53.3089 43.8707 54.0585V55.0682H45.2887C47.6367 55.0683 49.5406 56.9721 49.5406 59.3202C49.5403 61.668 47.6365 63.5712 45.2887 63.5712H39.6207C38.838 63.5712 38.2028 62.9368 38.2027 62.1542V54.0956H36.7838V62.1542C36.7837 62.9368 36.1494 63.5712 35.3668 63.5712H29.6978C27.3502 63.5709 25.4471 61.6678 25.4469 59.3202C25.4469 56.9723 27.35 55.0685 29.6978 55.0682H31.1158V54.0741C20.2408 53.5147 14.4613 40.6732 21.5592 32.1395L24.8941 28.1288C25.6634 27.2039 26.2849 26.1653 26.7349 25.0497C28.5192 20.6263 32.3923 18.1972 36.441 17.8339C36.6427 15.7213 37.3442 13.5124 38.901 12.3436Z" fill="#8DAEBF"/>
<path d="M38.901 12.3436L38.7187 12.1009L38.7187 12.1009L38.901 12.3436ZM45.9869 12.3436L46.2584 12.2079L46.2584 12.2078L45.9869 12.3436ZM43.8609 15.8866V15.583V15.583V15.8866ZM38.901 17.3036L38.7199 17.0599L38.7199 17.0599L38.901 17.3036ZM38.3433 17.8153L38.117 17.613L37.7043 18.0749L38.3222 18.1181L38.3433 17.8153ZM47.9039 24.2567L47.6317 24.391L47.6317 24.391L47.9039 24.2567ZM48.6236 25.7157L48.8958 25.5814V25.5814L48.6236 25.7157ZM49.8043 27.6415L49.5611 27.8232L49.5611 27.8232L49.8043 27.6415ZM53.5748 32.6864L53.818 32.5047L53.8179 32.5047L53.5748 32.6864ZM43.8707 54.0585L43.8488 53.7557L43.5671 53.776V54.0585H43.8707ZM43.8707 55.0682H43.5671V55.3718H43.8707V55.0682ZM45.2887 55.0682L45.2887 54.7647H45.2887V55.0682ZM49.5406 59.3202L49.8442 59.3202V59.3202H49.5406ZM45.2887 63.5712V63.8747H45.2887L45.2887 63.5712ZM38.2027 62.1542H37.8992V62.1542L38.2027 62.1542ZM38.2027 54.0956H38.5063V53.792H38.2027V54.0956ZM36.7838 54.0956V53.792H36.4802V54.0956H36.7838ZM36.7838 62.1542L37.0873 62.1542V62.1542H36.7838ZM29.6978 63.5712L29.6978 63.8747H29.6978V63.5712ZM25.4469 59.3202H25.1433V59.3202L25.4469 59.3202ZM29.6978 55.0682V54.7647H29.6978L29.6978 55.0682ZM31.1158 55.0682V55.3718H31.4194V55.0682H31.1158ZM31.1158 54.0741H31.4194V53.7858L31.1314 53.7709L31.1158 54.0741ZM21.5592 32.1395L21.7925 32.3336L21.7926 32.3336L21.5592 32.1395ZM24.8941 28.1288L24.6607 27.9347L24.6607 27.9347L24.8941 28.1288ZM26.7349 25.0497L27.0165 25.1632L27.0165 25.1632L26.7349 25.0497ZM36.441 17.8339L36.4681 18.1362L36.7192 18.1137L36.7432 17.8627L36.441 17.8339ZM38.901 12.3436L39.0832 12.5864C40.4882 11.5316 42.0017 11.1807 43.2423 11.2647C44.5053 11.3502 45.4129 11.8746 45.7154 12.4794L45.9869 12.3436L46.2584 12.2078C45.8171 11.3256 44.6455 10.7512 43.2833 10.659C41.8987 10.5653 40.2411 10.9579 38.7187 12.1009L38.901 12.3436ZM45.9869 12.3436L45.7154 12.4794C46.0641 13.1767 45.9407 13.9475 45.5433 14.5593C45.1419 15.1773 44.4937 15.583 43.8609 15.583V15.8866V16.1902C44.7461 16.1902 45.5672 15.637 46.0525 14.8899C46.5418 14.1366 46.7224 13.1359 46.2584 12.2079L45.9869 12.3436ZM43.8609 15.8866V15.583C42.4758 15.583 41.5981 15.6372 40.859 15.8559C40.1115 16.077 39.5278 16.4598 38.7199 17.0599L38.901 17.3036L39.082 17.5473C39.8829 16.9523 40.3937 16.6266 41.0312 16.438C41.6772 16.2469 42.475 16.1902 43.8609 16.1902V15.8866ZM38.901 17.3036L38.7199 17.0599C38.4941 17.2277 38.2945 17.4144 38.117 17.613L38.3433 17.8153L38.5697 18.0176C38.7224 17.8467 38.892 17.6884 39.082 17.5473L38.901 17.3036ZM38.3433 17.8153L38.3222 18.1181C42.0607 18.3796 45.6871 20.449 47.6317 24.391L47.9039 24.2567L48.1761 24.1224C46.1285 19.9716 42.301 17.7878 38.3645 17.5125L38.3433 17.8153ZM47.9039 24.2567L47.6317 24.391L48.3514 25.85L48.6236 25.7157L48.8958 25.5814L48.1761 24.1224L47.9039 24.2567ZM48.6236 25.7157L48.3514 25.85C48.6934 26.5433 49.0984 27.2039 49.5611 27.8232L49.8043 27.6415L50.0474 27.4598C49.6069 26.8702 49.2214 26.2414 48.8958 25.5814L48.6236 25.7157ZM49.8043 27.6415L49.5611 27.8232L53.3316 32.8681L53.5748 32.6864L53.8179 32.5047L50.0474 27.4598L49.8043 27.6415ZM53.5748 32.6864L53.3316 32.8681C59.5781 41.2279 53.9959 53.0232 43.8488 53.7557L43.8707 54.0585L43.8925 54.3612C54.5124 53.5946 60.3552 41.2536 53.818 32.5047L53.5748 32.6864ZM43.8707 54.0585H43.5671V55.0682H43.8707H44.1742V54.0585H43.8707ZM43.8707 55.0682V55.3718H45.2887V55.0682V54.7647H43.8707V55.0682ZM45.2887 55.0682L45.2886 55.3718C47.469 55.3718 49.237 57.1398 49.237 59.3202H49.5406H49.8442C49.8442 56.8045 47.8043 54.7647 45.2887 54.7647L45.2887 55.0682ZM49.5406 59.3202L49.237 59.3202C49.2368 61.5003 47.4689 63.2676 45.2886 63.2676L45.2887 63.5712L45.2887 63.8747C47.8041 63.8747 49.8439 61.8357 49.8442 59.3202L49.5406 59.3202ZM45.2887 63.5712V63.2676H39.6207V63.5712V63.8747H45.2887V63.5712ZM39.6207 63.5712V63.2676C39.0054 63.2676 38.5063 62.7689 38.5063 62.1542L38.2027 62.1542L37.8992 62.1542C37.8992 63.1047 38.6706 63.8747 39.6207 63.8747V63.5712ZM38.2027 62.1542H38.5063V54.0956H38.2027H37.8992V62.1542H38.2027ZM38.2027 54.0956V53.792H36.7838V54.0956V54.3991H38.2027V54.0956ZM36.7838 54.0956H36.4802V62.1542H36.7838H37.0873V54.0956H36.7838ZM36.7838 62.1542L36.4802 62.1542C36.4802 62.7692 35.9818 63.2676 35.3668 63.2676V63.5712V63.8747C36.3171 63.8747 37.0872 63.1044 37.0873 62.1542L36.7838 62.1542ZM35.3668 63.5712V63.2676H29.6978V63.5712V63.8747H35.3668V63.5712ZM29.6978 63.5712L29.6979 63.2676C27.5178 63.2673 25.7506 61.5002 25.7504 59.3202L25.4469 59.3202L25.1433 59.3202C25.1436 61.8355 27.1825 63.8744 29.6978 63.8747L29.6978 63.5712ZM25.4469 59.3202H25.7504C25.7504 57.1399 27.5177 55.3721 29.6979 55.3718L29.6978 55.0682L29.6978 54.7647C27.1823 54.765 25.1433 56.8047 25.1433 59.3202H25.4469ZM29.6978 55.0682V55.3718H31.1158V55.0682V54.7647H29.6978V55.0682ZM31.1158 55.0682H31.4194V54.0741H31.1158H30.8122V55.0682H31.1158ZM31.1158 54.0741L31.1314 53.7709C20.5037 53.2242 14.856 40.6733 21.7925 32.3336L21.5592 32.1395L21.3258 31.9454C14.0666 40.673 19.9778 53.8051 31.1002 54.3773L31.1158 54.0741ZM21.5592 32.1395L21.7926 32.3336L25.1275 28.3229L24.8941 28.1288L24.6607 27.9347L21.3258 31.9454L21.5592 32.1395ZM24.8941 28.1288L25.1275 28.3229C25.9168 27.3739 26.5546 26.3082 27.0165 25.1632L26.7349 25.0497L26.4534 24.9361C26.0152 26.0225 25.41 27.0339 24.6607 27.9347L24.8941 28.1288ZM26.7349 25.0497L27.0165 25.1632C28.7545 20.8546 32.523 18.4902 36.4681 18.1362L36.441 17.8339L36.4139 17.5315C32.2617 17.9041 28.284 20.398 26.4534 24.9361L26.7349 25.0497ZM36.441 17.8339L36.7432 17.8627C36.9425 15.7745 37.6316 13.6762 39.0832 12.5864L38.901 12.3436L38.7187 12.1009C37.0567 13.3487 36.3428 15.6681 36.1388 17.805L36.441 17.8339Z" fill="#6E8C9A" mask="url(#path-2-inside-1_1149_3294)"/>
<circle cx="40.4642" cy="25.9525" r="1.21422" fill="#272727"/>
<ellipse cx="42.89" cy="28.6851" rx="1.21422" ry="0.910663" fill="#E0A6A6"/>
<ellipse cx="31.3548" cy="28.6851" rx="1.21422" ry="0.910663" fill="#E0A6A6"/>
<circle cx="33.7845" cy="25.9486" r="1.21422" fill="#272727"/>
<path d="M34.7605 29.595C34.5576 29.595 34.3903 29.7604 34.4209 29.9609C34.4984 30.4695 34.7361 30.9439 35.1044 31.3122C35.5598 31.7676 36.1775 32.0234 36.8216 32.0234C37.4656 32.0234 38.0833 31.7676 38.5387 31.3122C38.907 30.9439 39.1448 30.4695 39.2223 29.9609C39.2528 29.7604 39.0855 29.595 38.8827 29.595V29.595C38.6798 29.595 38.5193 29.7614 38.4757 29.9595C38.4067 30.2726 38.2496 30.5624 38.0193 30.7927C37.7016 31.1103 37.2708 31.2888 36.8216 31.2888C36.3723 31.2888 35.9415 31.1103 35.6239 30.7927C35.3936 30.5624 35.2364 30.2726 35.1674 29.9595C35.1238 29.7614 34.9633 29.595 34.7605 29.595V29.595Z" fill="#272727"/>
<path d="M36.8873 41.839C36.4089 43.0644 36.4368 44.4297 36.965 45.6345C37.4932 46.8393 38.4784 47.785 39.7038 48.2634C40.9292 48.7419 42.2945 48.7139 43.4993 48.1857C44.7041 47.6575 45.6497 46.6724 46.1282 45.4469L41.5078 43.643L36.8873 41.839Z" fill="#8A9974"/>
<circle cx="40.8715" cy="44.6874" r="0.496012" transform="rotate(21.3273 40.8715 44.6874)" fill="#D9D9D9"/>
<path d="M21.5039 32.8052L22.111 31.8945L37.2887 41.6083L53.9842 47.6794L53.3771 48.59L36.9852 42.5189L21.5039 32.8052Z" fill="#8A9974"/>
<path d="M47.8785 37.6611L45.1465 40.6967C44.843 41.3038 44.5394 42.7608 45.7536 43.7322C46.9678 44.7036 48.2832 43.9346 48.7892 43.4287L51.8247 40.3931" stroke="#6E8C9A" stroke-width="0.312118" stroke-linecap="round"/>
<path d="M28.7895 38.2686L31.5215 41.3041C31.825 41.9112 32.1286 43.3683 30.9144 44.3396C29.7001 45.311 28.3847 44.542 27.8788 44.0361L24.8433 41.0005" stroke="#6E8C9A" stroke-width="0.312118" stroke-linecap="round"/>
<path d="M22.44 92H16.305V81.05H17.685V90.83H22.44V92ZM31.3894 88.205C31.3894 89.305 30.9994 90.245 30.2194 91.025C29.4394 91.795 28.4994 92.18 27.3994 92.18C26.2994 92.18 25.3594 91.795 24.5794 91.025C23.7994 90.245 23.4094 89.305 23.4094 88.205C23.4094 87.095 23.7994 86.155 24.5794 85.385C25.3594 84.605 26.2994 84.215 27.3994 84.215C28.4994 84.215 29.4394 84.605 30.2194 85.385C30.9994 86.155 31.3894 87.095 31.3894 88.205ZM30.0544 88.205C30.0544 87.415 29.7994 86.75 29.2894 86.21C28.7794 85.67 28.1494 85.4 27.3994 85.4C26.6594 85.4 26.0294 85.67 25.5094 86.21C24.9994 86.75 24.7444 87.415 24.7444 88.205C24.7444 88.985 24.9994 89.645 25.5094 90.185C26.0294 90.725 26.6594 90.995 27.3994 90.995C28.1494 90.995 28.7794 90.725 29.2894 90.185C29.7994 89.645 30.0544 88.985 30.0544 88.205ZM40.7204 88.205C40.7204 89.305 40.3304 90.245 39.5504 91.025C38.7704 91.795 37.8304 92.18 36.7304 92.18C35.6304 92.18 34.6904 91.795 33.9104 91.025C33.1304 90.245 32.7404 89.305 32.7404 88.205C32.7404 87.095 33.1304 86.155 33.9104 85.385C34.6904 84.605 35.6304 84.215 36.7304 84.215C37.8304 84.215 38.7704 84.605 39.5504 85.385C40.3304 86.155 40.7204 87.095 40.7204 88.205ZM39.3854 88.205C39.3854 87.415 39.1304 86.75 38.6204 86.21C38.1104 85.67 37.4804 85.4 36.7304 85.4C35.9904 85.4 35.3604 85.67 34.8404 86.21C34.3304 86.75 34.0754 87.415 34.0754 88.205C34.0754 88.985 34.3304 89.645 34.8404 90.185C35.3604 90.725 35.9904 90.995 36.7304 90.995C37.4804 90.995 38.1104 90.725 38.6204 90.185C39.1304 89.645 39.3854 88.985 39.3854 88.205ZM42.6565 92V80.6H43.9915V87.8L47.5165 84.395H49.1815L45.4165 87.935L49.3015 92H47.6515L43.9915 88.115V92H42.6565ZM51.5489 81.17H51.5639C51.8039 81.17 52.0039 81.25 52.1639 81.41C52.3339 81.57 52.4189 81.77 52.4189 82.01C52.4189 82.25 52.3339 82.45 52.1639 82.61C52.0039 82.77 51.8039 82.85 51.5639 82.85H51.5489C51.3089 82.85 51.1039 82.77 50.9339 82.61C50.7739 82.45 50.6939 82.25 50.6939 82.01C50.6939 81.77 50.7739 81.57 50.9339 81.41C51.1039 81.25 51.3089 81.17 51.5489 81.17ZM50.8889 92V84.395H52.2389V92H50.8889ZM58.3264 92.18C57.1364 92.18 56.1414 91.8 55.3414 91.04C54.5514 90.28 54.1564 89.335 54.1564 88.205C54.1564 87.105 54.5364 86.165 55.2964 85.385C56.0664 84.605 56.9814 84.215 58.0414 84.215C59.1814 84.215 60.0814 84.62 60.7414 85.43C61.4114 86.23 61.7164 87.255 61.6564 88.505H55.4464C55.5164 89.255 55.8264 89.86 56.3764 90.32C56.9264 90.78 57.6214 91.01 58.4614 91.01C58.9614 91.01 59.4514 90.92 59.9314 90.74C60.4114 90.55 60.8214 90.29 61.1614 89.96V91.28C60.7914 91.57 60.3614 91.795 59.8714 91.955C59.3814 92.105 58.8664 92.18 58.3264 92.18ZM58.0264 85.355C57.4164 85.355 56.8764 85.55 56.4064 85.94C55.9464 86.33 55.6464 86.845 55.5064 87.485H60.3514C60.2814 86.855 60.0364 86.345 59.6164 85.955C59.1964 85.555 58.6664 85.355 58.0264 85.355Z" fill="white"/>
</svg>
