<svg width="75" height="95" viewBox="0 0 75 95" fill="none" xmlns="http://www.w3.org/2000/svg">
<circle cx="37.4565" cy="37.4565" r="36.4565" fill="#EDE4E0" fill-opacity="0.81" stroke="white" stroke-width="2"/>
<mask id="path-2-inside-1_325_10210" fill="white">
<path fill-rule="evenodd" clip-rule="evenodd" d="M38.9009 12.3433C41.8283 10.1455 45.2431 10.8563 45.9869 12.3433C46.7996 13.9685 45.3797 15.8859 43.8619 15.8862C41.0908 15.8862 40.5098 16.1082 38.9009 17.3032C38.693 17.4577 38.5084 17.6301 38.3433 17.8149C42.181 18.0832 45.9086 20.2097 47.9048 24.2563L48.6245 25.7153C48.9584 26.392 49.3536 27.0367 49.8052 27.6411L53.5747 32.686C59.9665 41.2402 54.2548 53.3082 43.8716 54.0581V55.0679H45.2896C47.6374 55.0681 49.5415 56.9719 49.5415 59.3198C49.5412 61.6675 47.6372 63.5706 45.2896 63.5708H39.6216C38.839 63.5708 38.2038 62.9364 38.2037 62.1538V54.0952H36.7847V62.1538C36.7846 62.9363 36.1502 63.5706 35.3677 63.5708H29.6988C27.3511 63.5706 25.4481 61.6675 25.4478 59.3198C25.4478 56.9719 27.3509 55.0681 29.6988 55.0679H31.1167V54.0737C20.2414 53.5146 14.461 40.6719 21.5591 32.1382L24.8951 28.1284C25.6644 27.2035 26.2849 26.1641 26.7349 25.0483C28.5193 20.625 32.3932 18.1967 36.4419 17.8335C36.6436 15.7211 37.3444 13.5122 38.9009 12.3433Z"/>
</mask>
<path fill-rule="evenodd" clip-rule="evenodd" d="M38.9009 12.3433C41.8283 10.1455 45.2431 10.8563 45.9869 12.3433C46.7996 13.9685 45.3797 15.8859 43.8619 15.8862C41.0908 15.8862 40.5098 16.1082 38.9009 17.3032C38.693 17.4577 38.5084 17.6301 38.3433 17.8149C42.181 18.0832 45.9086 20.2097 47.9048 24.2563L48.6245 25.7153C48.9584 26.392 49.3536 27.0367 49.8052 27.6411L53.5747 32.686C59.9665 41.2402 54.2548 53.3082 43.8716 54.0581V55.0679H45.2896C47.6374 55.0681 49.5415 56.9719 49.5415 59.3198C49.5412 61.6675 47.6372 63.5706 45.2896 63.5708H39.6216C38.839 63.5708 38.2038 62.9364 38.2037 62.1538V54.0952H36.7847V62.1538C36.7846 62.9363 36.1502 63.5706 35.3677 63.5708H29.6988C27.3511 63.5706 25.4481 61.6675 25.4478 59.3198C25.4478 56.9719 27.3509 55.0681 29.6988 55.0679H31.1167V54.0737C20.2414 53.5146 14.461 40.6719 21.5591 32.1382L24.8951 28.1284C25.6644 27.2035 26.2849 26.1641 26.7349 25.0483C28.5193 20.625 32.3932 18.1967 36.4419 17.8335C36.6436 15.7211 37.3444 13.5122 38.9009 12.3433Z" fill="#8DAEBF"/>
<path d="M38.9009 12.3433L38.7187 12.1005L38.7186 12.1005L38.9009 12.3433ZM45.9869 12.3433L46.2583 12.2075L46.2583 12.2075L45.9869 12.3433ZM43.8619 15.8862V16.1898H43.8619L43.8619 15.8862ZM38.9009 17.3032L38.7199 17.0595L38.7199 17.0596L38.9009 17.3032ZM38.3433 17.8149L38.1169 17.6127L37.7043 18.0746L38.3221 18.1178L38.3433 17.8149ZM47.9048 24.2563L47.6326 24.3906L47.6326 24.3906L47.9048 24.2563ZM48.6245 25.7153L48.3523 25.8496L48.3523 25.8496L48.6245 25.7153ZM49.8052 27.6411L50.0484 27.4594V27.4594L49.8052 27.6411ZM53.5747 32.686L53.3316 32.8677L53.3316 32.8677L53.5747 32.686ZM43.8716 54.0581L43.8498 53.7553L43.5681 53.7757V54.0581H43.8716ZM43.8716 55.0679H43.5681V55.3714H43.8716V55.0679ZM45.2896 55.0679L45.2896 54.7643H45.2896V55.0679ZM49.5415 59.3198L49.8451 59.3199V59.3198H49.5415ZM45.2896 63.5708V63.8744H45.2896L45.2896 63.5708ZM38.2037 62.1538H37.9001V62.1539L38.2037 62.1538ZM38.2037 54.0952H38.5072V53.7917H38.2037V54.0952ZM36.7847 54.0952V53.7917H36.4812V54.0952H36.7847ZM36.7847 62.1538L37.0883 62.1539V62.1538H36.7847ZM35.3677 63.5708V63.8744H35.3678L35.3677 63.5708ZM29.6988 63.5708L29.6987 63.8744H29.6988V63.5708ZM25.4478 59.3198H25.1442V59.3199L25.4478 59.3198ZM29.6988 55.0679V54.7643H29.6987L29.6988 55.0679ZM31.1167 55.0679V55.3714H31.4203V55.0679H31.1167ZM31.1167 54.0737H31.4203V53.7854L31.1323 53.7706L31.1167 54.0737ZM21.5591 32.1382L21.3258 31.944L21.3257 31.9441L21.5591 32.1382ZM24.8951 28.1284L25.1284 28.3226L25.1284 28.3225L24.8951 28.1284ZM26.7349 25.0483L26.4534 24.9348L26.4534 24.9348L26.7349 25.0483ZM36.4419 17.8335L36.4691 18.1358L36.7202 18.1133L36.7441 17.8623L36.4419 17.8335ZM38.9009 12.3433L39.0832 12.586C40.4882 11.5312 42.0016 11.1804 43.2422 11.2643C44.5052 11.3498 45.4128 11.8742 45.7154 12.4791L45.9869 12.3433L46.2583 12.2075C45.8171 11.3253 44.6454 10.7508 43.2832 10.6586C41.8987 10.5649 40.2411 10.9576 38.7187 12.1005L38.9009 12.3433ZM45.9869 12.3433L45.7154 12.479C46.0641 13.1763 45.9409 13.9471 45.5438 14.5588C45.1425 15.1768 44.4945 15.5826 43.8618 15.5827L43.8619 15.8862L43.8619 16.1898C44.7471 16.1896 45.568 15.6365 46.053 14.8894C46.5421 14.136 46.7224 13.1354 46.2583 12.2075L45.9869 12.3433ZM43.8619 15.8862V15.5827C42.4767 15.5827 41.5988 15.6369 40.8595 15.8555C40.1117 16.0766 39.5278 16.4594 38.7199 17.0595L38.9009 17.3032L39.0819 17.5469C39.8829 16.9519 40.3939 16.6263 41.0316 16.4377C41.6778 16.2466 42.4759 16.1898 43.8619 16.1898V15.8862ZM38.9009 17.3032L38.7199 17.0596C38.4941 17.2273 38.2945 17.4139 38.1169 17.6127L38.3433 17.8149L38.5697 18.0172C38.7223 17.8463 38.8919 17.6881 39.082 17.5469L38.9009 17.3032ZM38.3433 17.8149L38.3221 18.1178C42.0609 18.3791 45.6879 20.4485 47.6326 24.3906L47.9048 24.2563L48.1771 24.1221C46.1293 19.971 42.3011 17.7873 38.3645 17.5121L38.3433 17.8149ZM47.9048 24.2563L47.6326 24.3906L48.3523 25.8496L48.6245 25.7153L48.8968 25.581L48.1771 24.1221L47.9048 24.2563ZM48.6245 25.7153L48.3523 25.8496C48.6944 26.543 49.0993 27.2035 49.562 27.8228L49.8052 27.6411L50.0484 27.4594C49.6078 26.8698 49.2224 26.2411 48.8968 25.581L48.6245 25.7153ZM49.8052 27.6411L49.562 27.8228L53.3316 32.8677L53.5747 32.686L53.8179 32.5043L50.0484 27.4594L49.8052 27.6411ZM53.5747 32.686L53.3316 32.8677C59.578 41.2274 53.9966 53.0225 43.8498 53.7553L43.8716 54.0581L43.8935 54.3609C54.5131 53.5939 60.3551 41.2531 53.8179 32.5043L53.5747 32.686ZM43.8716 54.0581H43.5681V55.0679H43.8716H44.1752V54.0581H43.8716ZM43.8716 55.0679V55.3714H45.2896V55.0679V54.7643H43.8716V55.0679ZM45.2896 55.0679L45.2896 55.3714C47.4698 55.3716 49.238 57.1396 49.238 59.3198H49.5415H49.8451C49.8451 56.8042 47.8051 54.7646 45.2896 54.7643L45.2896 55.0679ZM49.5415 59.3198L49.238 59.3198C49.2377 61.4997 47.4697 63.267 45.2896 63.2672L45.2896 63.5708L45.2896 63.8744C47.8048 63.8741 49.8447 61.8352 49.8451 59.3199L49.5415 59.3198ZM45.2896 63.5708V63.2672H39.6216V63.5708V63.8744H45.2896V63.5708ZM39.6216 63.5708V63.2672C39.0064 63.2672 38.5073 62.7685 38.5072 62.1538L38.2037 62.1538L37.9001 62.1539C37.9003 63.1043 38.6716 63.8744 39.6216 63.8744V63.5708ZM38.2037 62.1538H38.5072V54.0952H38.2037H37.9001V62.1538H38.2037ZM38.2037 54.0952V53.7917H36.7847V54.0952V54.3988H38.2037V54.0952ZM36.7847 54.0952H36.4812V62.1538H36.7847H37.0883V54.0952H36.7847ZM36.7847 62.1538L36.4812 62.1538C36.4811 62.7686 35.9825 63.2671 35.3677 63.2672L35.3677 63.5708L35.3678 63.8744C36.3178 63.8742 37.0881 63.104 37.0883 62.1539L36.7847 62.1538ZM35.3677 63.5708V63.2672H29.6988V63.5708V63.8744H35.3677V63.5708ZM29.6988 63.5708L29.6988 63.2672C27.5188 63.267 25.7516 61.4998 25.7513 59.3198L25.4478 59.3198L25.1442 59.3199C25.1446 61.8351 27.1834 63.8741 29.6987 63.8744L29.6988 63.5708ZM25.4478 59.3198H25.7513C25.7513 57.1395 27.5186 55.3716 29.6988 55.3714L29.6988 55.0679L29.6987 54.7643C27.1832 54.7646 25.1442 56.8043 25.1442 59.3198H25.4478ZM29.6988 55.0679V55.3714H31.1167V55.0679V54.7643H29.6988V55.0679ZM31.1167 55.0679H31.4203V54.0737H31.1167H30.8132V55.0679H31.1167ZM31.1167 54.0737L31.1323 53.7706C20.5043 53.2242 14.8557 40.6721 21.7925 32.3323L21.5591 32.1382L21.3257 31.9441C14.0663 40.6718 19.9784 53.805 31.1012 54.3769L31.1167 54.0737ZM21.5591 32.1382L21.7925 32.3323L25.1284 28.3226L24.8951 28.1284L24.6617 27.9343L21.3258 31.944L21.5591 32.1382ZM24.8951 28.1284L25.1284 28.3225C25.9179 27.3733 26.5546 26.3067 27.0164 25.1619L26.7349 25.0483L26.4534 24.9348C26.0151 26.0214 25.4108 27.0336 24.6617 27.9343L24.8951 28.1284ZM26.7349 25.0483L27.0164 25.1619C28.7545 20.8533 32.5238 18.4897 36.4691 18.1358L36.4419 17.8335L36.4148 17.5312C32.2627 17.9036 28.2841 20.3967 26.4534 24.9348L26.7349 25.0483ZM36.4419 17.8335L36.7441 17.8623C36.9435 15.7742 37.6319 13.6759 39.0832 12.586L38.9009 12.3433L38.7186 12.1005C37.0569 13.3484 36.3437 15.668 36.1398 17.8046L36.4419 17.8335Z" fill="#6E8C9A" mask="url(#path-2-inside-1_325_10210)"/>
<circle cx="40.4632" cy="25.9522" r="1.21422" fill="#272727"/>
<ellipse cx="42.892" cy="28.6843" rx="1.21422" ry="0.910663" fill="#E0A6A6"/>
<ellipse cx="31.3568" cy="28.6843" rx="1.21422" ry="0.910663" fill="#E0A6A6"/>
<circle cx="33.7845" cy="25.9479" r="1.21422" fill="#272727"/>
<path d="M34.7595 29.5949C34.5566 29.5949 34.3893 29.7602 34.4199 29.9608C34.4974 30.4694 34.7352 30.9438 35.1034 31.312C35.5588 31.7674 36.1765 32.0233 36.8206 32.0233C37.4646 32.0233 38.0823 31.7674 38.5378 31.312C38.906 30.9438 39.1438 30.4694 39.2213 29.9608C39.2519 29.7602 39.0846 29.5949 38.8817 29.5949C38.6788 29.5949 38.5184 29.7612 38.4747 29.9593C38.4057 30.2725 38.2486 30.5622 38.0183 30.7925C37.7006 31.1102 37.2698 31.2886 36.8206 31.2886C36.3714 31.2886 35.9405 31.1102 35.6229 30.7925C35.3926 30.5622 35.2355 30.2725 35.1665 29.9593C35.1228 29.7612 34.9623 29.5949 34.7595 29.5949Z" fill="#272727"/>
<path d="M36.8883 41.8389C36.4098 43.0643 36.4378 44.4296 36.966 45.6344C37.4942 46.8392 38.4793 47.7848 39.7048 48.2633C40.9302 48.7417 42.2955 48.7138 43.5003 48.1856C44.7051 47.6574 45.6507 46.6722 46.1292 45.4468L41.5087 43.6428L36.8883 41.8389Z" fill="#8A9974"/>
<circle cx="40.8734" cy="44.6875" r="0.496012" transform="rotate(21.3273 40.8734 44.6875)" fill="#D9D9D9"/>
<path d="M21.5039 32.8044L22.111 31.8937L37.2887 41.6075L53.9842 47.6786L53.3771 48.5892L36.9852 42.5181L21.5039 32.8044Z" fill="#8A9974"/>
<path d="M47.8804 37.6611L45.1485 40.6967C44.8449 41.3038 44.5414 42.7608 45.7556 43.7322C46.9698 44.7036 48.2852 43.9346 48.7911 43.4286L51.8267 40.3931" stroke="#6E8C9A" stroke-width="0.312118" stroke-linecap="round"/>
<path d="M28.7895 38.2682L31.5215 41.3037C31.825 41.9108 32.1286 43.3679 30.9144 44.3392C29.7001 45.3106 28.3847 44.5416 27.8788 44.0357L24.8433 41.0001" stroke="#6E8C9A" stroke-width="0.312118" stroke-linecap="round"/>
<path d="M22.44 92H16.305V81.05H17.685V90.83H22.44V92ZM31.3894 88.205C31.3894 89.305 30.9994 90.245 30.2194 91.025C29.4394 91.795 28.4994 92.18 27.3994 92.18C26.2994 92.18 25.3594 91.795 24.5794 91.025C23.7994 90.245 23.4094 89.305 23.4094 88.205C23.4094 87.095 23.7994 86.155 24.5794 85.385C25.3594 84.605 26.2994 84.215 27.3994 84.215C28.4994 84.215 29.4394 84.605 30.2194 85.385C30.9994 86.155 31.3894 87.095 31.3894 88.205ZM30.0544 88.205C30.0544 87.415 29.7994 86.75 29.2894 86.21C28.7794 85.67 28.1494 85.4 27.3994 85.4C26.6594 85.4 26.0294 85.67 25.5094 86.21C24.9994 86.75 24.7444 87.415 24.7444 88.205C24.7444 88.985 24.9994 89.645 25.5094 90.185C26.0294 90.725 26.6594 90.995 27.3994 90.995C28.1494 90.995 28.7794 90.725 29.2894 90.185C29.7994 89.645 30.0544 88.985 30.0544 88.205ZM40.7204 88.205C40.7204 89.305 40.3304 90.245 39.5504 91.025C38.7704 91.795 37.8304 92.18 36.7304 92.18C35.6304 92.18 34.6904 91.795 33.9104 91.025C33.1304 90.245 32.7404 89.305 32.7404 88.205C32.7404 87.095 33.1304 86.155 33.9104 85.385C34.6904 84.605 35.6304 84.215 36.7304 84.215C37.8304 84.215 38.7704 84.605 39.5504 85.385C40.3304 86.155 40.7204 87.095 40.7204 88.205ZM39.3854 88.205C39.3854 87.415 39.1304 86.75 38.6204 86.21C38.1104 85.67 37.4804 85.4 36.7304 85.4C35.9904 85.4 35.3604 85.67 34.8404 86.21C34.3304 86.75 34.0754 87.415 34.0754 88.205C34.0754 88.985 34.3304 89.645 34.8404 90.185C35.3604 90.725 35.9904 90.995 36.7304 90.995C37.4804 90.995 38.1104 90.725 38.6204 90.185C39.1304 89.645 39.3854 88.985 39.3854 88.205ZM42.6565 92V80.6H43.9915V87.8L47.5165 84.395H49.1815L45.4165 87.935L49.3015 92H47.6515L43.9915 88.115V92H42.6565ZM51.5489 81.17H51.5639C51.8039 81.17 52.0039 81.25 52.1639 81.41C52.3339 81.57 52.4189 81.77 52.4189 82.01C52.4189 82.25 52.3339 82.45 52.1639 82.61C52.0039 82.77 51.8039 82.85 51.5639 82.85H51.5489C51.3089 82.85 51.1039 82.77 50.9339 82.61C50.7739 82.45 50.6939 82.25 50.6939 82.01C50.6939 81.77 50.7739 81.57 50.9339 81.41C51.1039 81.25 51.3089 81.17 51.5489 81.17ZM50.8889 92V84.395H52.2389V92H50.8889ZM58.3264 92.18C57.1364 92.18 56.1414 91.8 55.3414 91.04C54.5514 90.28 54.1564 89.335 54.1564 88.205C54.1564 87.105 54.5364 86.165 55.2964 85.385C56.0664 84.605 56.9814 84.215 58.0414 84.215C59.1814 84.215 60.0814 84.62 60.7414 85.43C61.4114 86.23 61.7164 87.255 61.6564 88.505H55.4464C55.5164 89.255 55.8264 89.86 56.3764 90.32C56.9264 90.78 57.6214 91.01 58.4614 91.01C58.9614 91.01 59.4514 90.92 59.9314 90.74C60.4114 90.55 60.8214 90.29 61.1614 89.96V91.28C60.7914 91.57 60.3614 91.795 59.8714 91.955C59.3814 92.105 58.8664 92.18 58.3264 92.18ZM58.0264 85.355C57.4164 85.355 56.8764 85.55 56.4064 85.94C55.9464 86.33 55.6464 86.845 55.5064 87.485H60.3514C60.2814 86.855 60.0364 86.345 59.6164 85.955C59.1964 85.555 58.6664 85.355 58.0264 85.355Z" fill="#1F1F1F"/>
</svg>
