<svg width="75" height="97" viewBox="0 0 75 97" fill="none" xmlns="http://www.w3.org/2000/svg">
<path d="M23.5698 81.1279V88.3487C23.5698 89.4329 23.8409 90.2895 24.383 90.9183C24.9359 91.5472 25.6732 91.8616 26.5948 91.8616C27.5163 91.8616 28.2482 91.5472 28.7903 90.9183C29.3432 90.2895 29.6197 89.4329 29.6197 88.3487V81.1279H31.1159V88.3813C31.1159 89.8233 30.6931 90.9888 29.8474 91.8778C29.0126 92.7561 27.9283 93.1952 26.5948 93.1952C25.2612 93.1952 24.1716 92.7561 23.3259 91.8778C22.491 90.9888 22.0736 89.8233 22.0736 88.3813V81.1279H23.5698ZM33.0552 92.382V90.9021C33.4238 91.249 33.8304 91.5201 34.2749 91.7152C34.7303 91.8995 35.1856 91.9917 35.641 91.9917C36.1289 91.9917 36.5138 91.8887 36.7957 91.6827C37.0884 91.4767 37.2348 91.1948 37.2348 90.837C37.2348 90.5876 37.1698 90.3816 37.0396 90.219C36.9095 90.0564 36.6602 89.8883 36.2915 89.7148L34.8116 89.0155C34.1936 88.7228 33.7653 88.4192 33.5268 88.1048C33.2991 87.7795 33.1853 87.3838 33.1853 86.9176C33.1853 86.2454 33.4455 85.687 33.9659 85.2425C34.4863 84.7871 35.1423 84.5594 35.9338 84.5594C36.3674 84.5594 36.7794 84.6245 37.1698 84.7546C37.5709 84.8847 37.9341 85.0744 38.2594 85.3238V86.7549C37.8691 86.4297 37.4788 86.1857 37.0884 86.0231C36.709 85.8605 36.3295 85.7792 35.95 85.7792C35.5272 85.7792 35.1856 85.8767 34.9254 86.0719C34.6761 86.2671 34.5514 86.5273 34.5514 86.8525C34.5514 87.0694 34.6164 87.2591 34.7465 87.4217C34.8875 87.5735 35.1965 87.7633 35.6735 87.9909L37.121 88.674C37.6522 88.9234 38.0317 89.2161 38.2594 89.5522C38.4979 89.8775 38.6172 90.2841 38.6172 90.7719C38.6172 91.4767 38.3353 92.0567 37.7715 92.5121C37.2077 92.9675 36.5084 93.1952 35.6735 93.1952C35.1965 93.1952 34.7249 93.1247 34.2586 92.9837C33.8033 92.8319 33.4021 92.6314 33.0552 92.382ZM44.5633 93.1952C43.2731 93.1952 42.1943 92.7832 41.3269 91.9592C40.4704 91.1352 40.0421 90.1106 40.0421 88.8854C40.0421 87.6928 40.4541 86.6736 41.2781 85.8279C42.1129 84.9823 43.105 84.5594 44.2543 84.5594C45.4903 84.5594 46.4661 84.9985 47.1816 85.8767C47.9081 86.7441 48.2387 87.8554 48.1737 89.2107H41.4407C41.5166 90.0238 41.8527 90.6798 42.4491 91.1785C43.0454 91.6773 43.7989 91.9266 44.7096 91.9266C45.2517 91.9266 45.783 91.8291 46.3034 91.6339C46.8238 91.4279 47.2684 91.146 47.637 90.7882V92.2194C47.2358 92.5338 46.7696 92.7777 46.2384 92.9512C45.7071 93.1138 45.1487 93.1952 44.5633 93.1952ZM44.238 85.7954C43.5766 85.7954 42.9912 86.0068 42.4816 86.4297C41.9828 86.8525 41.6576 87.4109 41.5058 88.1048H46.7588C46.6829 87.4217 46.4173 86.8688 45.9619 86.4459C45.5065 86.0123 44.9319 85.7954 44.238 85.7954ZM54.5142 84.6407V86.1044C53.6685 85.9743 52.98 86.1424 52.4487 86.6086C51.9175 87.0639 51.6518 87.7687 51.6518 88.7228V93H50.1882V84.7546H51.6518V86.2508C51.9012 85.6978 52.2861 85.275 52.8065 84.9823C53.3269 84.6787 53.8962 84.5648 54.5142 84.6407Z" fill="#1F1F1F"/>
<circle cx="37.5" cy="37.5" r="36.5766" fill="#FFFEFB" stroke="#9C6E40" stroke-width="1.8468"/>
<path d="M50.7868 52.1721V48.9402C50.7868 47.2259 50.1058 45.5818 48.8936 44.3696C47.6814 43.1574 46.0374 42.4764 44.323 42.4764H31.3954C29.6811 42.4764 28.037 43.1574 26.8248 44.3696C25.6126 45.5818 24.9316 47.2259 24.9316 48.9402V52.1721" stroke="#9C6E40" stroke-width="2" stroke-linecap="round" stroke-linejoin="round"/>
<path d="M37.8593 36.0126C41.4292 36.0126 44.3231 33.1187 44.3231 29.5488C44.3231 25.979 41.4292 23.085 37.8593 23.085C34.2895 23.085 31.3955 25.979 31.3955 29.5488C31.3955 33.1187 34.2895 36.0126 37.8593 36.0126Z" stroke="#9C6E40" stroke-width="2" stroke-linecap="round" stroke-linejoin="round"/>
</svg>
