<svg width="82" height="104" viewBox="0 0 82 104" fill="none" xmlns="http://www.w3.org/2000/svg">
<circle cx="40.6108" cy="40.6108" r="39.5266" fill="#EBACAC" stroke="#E2A4A4" stroke-width="2.16842"/>
<path d="M27.8315 87.6123V94.8331C27.8315 95.9173 28.1026 96.7738 28.6447 97.4027C29.1976 98.0315 29.9349 98.346 30.8565 98.346C31.7781 98.346 32.5099 98.0315 33.052 97.4027C33.605 96.7738 33.8814 95.9173 33.8814 94.8331V87.6123H35.3776V94.8656C35.3776 96.3076 34.9548 97.4732 34.1091 98.3622C33.2743 99.2404 32.1901 99.6795 30.8565 99.6795C29.5229 99.6795 28.4333 99.2404 27.5876 98.3622C26.7527 97.4732 26.3353 96.3076 26.3353 94.8656V87.6123H27.8315ZM37.3169 98.8664V97.3864C37.6855 97.7334 38.0921 98.0044 38.5366 98.1996C38.992 98.3839 39.4474 98.4761 39.9027 98.4761C40.3906 98.4761 40.7755 98.3731 41.0574 98.1671C41.3502 97.9611 41.4965 97.6792 41.4965 97.3214C41.4965 97.072 41.4315 96.866 41.3014 96.7034C41.1713 96.5407 40.9219 96.3727 40.5533 96.1992L39.0733 95.4999C38.4553 95.2072 38.0271 94.9036 37.7885 94.5892C37.5608 94.2639 37.447 93.8682 37.447 93.402C37.447 92.7297 37.7072 92.1714 38.2276 91.7268C38.7481 91.2715 39.404 91.0438 40.1955 91.0438C40.6292 91.0438 41.0412 91.1088 41.4315 91.239C41.8326 91.3691 42.1958 91.5588 42.5211 91.8082V93.2393C42.1308 92.9141 41.7405 92.6701 41.3502 92.5075C40.9707 92.3448 40.5912 92.2635 40.2117 92.2635C39.7889 92.2635 39.4474 92.3611 39.1872 92.5563C38.9378 92.7514 38.8131 93.0116 38.8131 93.3369C38.8131 93.5537 38.8782 93.7435 39.0083 93.9061C39.1492 94.0579 39.4582 94.2476 39.9353 94.4753L41.3827 95.1584C41.9139 95.4077 42.2934 95.7005 42.5211 96.0366C42.7596 96.3618 42.8789 96.7684 42.8789 97.2563C42.8789 97.9611 42.597 98.5411 42.0332 98.9965C41.4694 99.4518 40.7701 99.6795 39.9353 99.6795C39.4582 99.6795 38.9866 99.6091 38.5204 99.4681C38.065 99.3163 37.6638 99.1157 37.3169 98.8664ZM48.825 99.6795C47.5348 99.6795 46.456 99.2675 45.5886 98.4435C44.7321 97.6195 44.3038 96.595 44.3038 95.3698C44.3038 94.1772 44.7158 93.158 45.5398 92.3123C46.3747 91.4666 47.3667 91.0438 48.516 91.0438C49.752 91.0438 50.7278 91.4829 51.4434 92.3611C52.1698 93.2285 52.5005 94.3398 52.4354 95.6951H45.7025C45.7784 96.5082 46.1145 97.1642 46.7108 97.6629C47.3071 98.1616 48.0606 98.411 48.9714 98.411C49.5135 98.411 50.0447 98.3134 50.5651 98.1183C51.0856 97.9123 51.5301 97.6304 51.8987 97.2726V98.7037C51.4976 99.0182 51.0314 99.2621 50.5001 99.4356C49.9688 99.5982 49.4105 99.6795 48.825 99.6795ZM48.4997 92.2798C47.8384 92.2798 47.2529 92.4912 46.7433 92.9141C46.2446 93.3369 45.9193 93.8953 45.7675 94.5892H51.0205C50.9446 93.9061 50.679 93.3532 50.2236 92.9303C49.7682 92.4966 49.1936 92.2798 48.4997 92.2798ZM58.7759 91.1251V92.5888C57.9302 92.4587 57.2417 92.6267 56.7105 93.093C56.1792 93.5483 55.9136 94.2531 55.9136 95.2072V99.4844H54.4499V91.239H55.9136V92.7352C56.1629 92.1822 56.5478 91.7594 57.0682 91.4666C57.5887 91.1631 58.1579 91.0492 58.7759 91.1251Z" fill="white"/>
<path d="M55 56.5V53C55 51.1435 54.2625 49.363 52.9497 48.0503C51.637 46.7375 49.8565 46 48 46H34C32.1435 46 30.363 46.7375 29.0503 48.0503C27.7375 49.363 27 51.1435 27 53V56.5" stroke="#FFE9E9" stroke-width="3.5" stroke-linecap="round" stroke-linejoin="round"/>
<path d="M41 39C44.866 39 48 35.866 48 32C48 28.134 44.866 25 41 25C37.134 25 34 28.134 34 32C34 35.866 37.134 39 41 39Z" stroke="#FFE9E9" stroke-width="3.5" stroke-linecap="round" stroke-linejoin="round"/>
</svg>
